<?xml  version="1.0" encoding="UTF-8"?>
<!DOCTYPE svg PUBLIC "-//W3C//DTD SVG 1.0//EN" "http://www.w3.org/TR/2001/REC-SVG-20010904/DTD/svg10.dtd" >
<svg xmlns="http://www.w3.org/2000/svg" >
<metadata>
<version>1.0</version>
<id><![CDATA[DIN Next LT W23 Regular]]></id>
<vendor>Monotype Imaging Inc.</vendor>
<credits>
<name>Fonts.com WebFonts</name>
<URL>http://webfonts.fonts.com</URL>
<role>Home of the Web fonts</role>
</credits>
<license>
<URL>http://webfonts.fonts.com/Legal</URL>
</license>
<copyright><![CDATA[Copyright © 2008 - 2011 Linotype GmbH, www.linotype.com. All rights reserved. This font software may not be reproduced, modified, disclosed or transferred without the express written approval of Linotype GmbH.]]></copyright>
<trademark></trademark>
<licensee>
<name></name>
</licensee>
</metadata>
<defs >
<font horiz-adv-x="521" id="96953c77-fad6-4aa8-93d1-24182ebd0494">
<font-face font-family="" panose-1="2 11 5 3 2 2 3 5 2 3" ascent="1200" descent="-270" units-per-em="1000" alphabetic="0">
</font-face>
<missing-glyph horiz-adv-x="379" d="M379 533V0H0V533H379ZM343 37V496H37V37H343ZM167 173L166 186Q166 236 181 257Q189 267 196 275T209 289Q233 313 239 325T246 354Q246 381 229 398T190 416Q167 416 150 399T128 345L92 351Q98 402 125 427T191 453Q231 453 257 428T284 356Q284 331 275 313T238 267Q210 241 206 227Q201 210 201 176L167 173ZM159 111Q159 122 166 130T185 138Q195 138 203 130T211 111Q211 100 203 92T185 84Q174 84 167 91T159 111Z"  />

<glyph unicode="&#xA;" />
<glyph unicode="&#xD;" horiz-adv-x="200" />
<glyph unicode=" " horiz-adv-x="240" />
<glyph unicode="!" horiz-adv-x="288" d="M123 184Q113 184 113 194L97 670Q97 680 107 680H181Q191 680 191 670L175 194Q175 184 165 184H123ZM96 96Q96 106 106 106H182Q192 106 192 96V10Q192 0 182 0H106Q96 0 96 10V96Z"  />
<glyph unicode="&quot;" horiz-adv-x="329" d="M208 503Q198 503 198 513V670Q198 680 208 680H252Q262 680 262 670V513Q262 503 252 503H208ZM77 503Q67 503 67 513V670Q67 680 77 680H121Q131 680 131 670V513Q131 503 121 503H77Z"  />
<glyph unicode="#" horiz-adv-x="517" d="M107 214H34Q24 214 24 224V267Q24 277 34 277H115L134 417H59Q49 417 49 427V469Q49 479 59 479H143L169 670Q171 680 180 680H225Q236 680 234 670L208 479H341L367 670Q369 680 378 680H423Q434 680 432 670L406 479H483Q493 479 493 469V427Q493 417 483 417H397L378 277H457Q467 277 467 267V224Q467 214 457 214H370L342 10Q340 0 331 0H286Q275 0 277 10L305 214H172L144 10Q142 0 133 0H88Q77 0 79 10L107 214ZM313 277L332 417H199L180 277H313Z"  />
<glyph unicode="$" horiz-adv-x="542" d="M61 56Q58 58 58 62T60 70L97 120Q103 127 111 121Q137 102 173 86T252 67V307Q161 324 117 371T72 493Q72 535 85 569T122 629T179 670T252 690V741Q252 751 262 751H291Q301 751 301 741V690Q344 686 382 673T450 640Q457 634 452 626L420 577Q414 569 406 574Q353 605 301 611V381Q393 365 438 318T483 195Q483 111 435 57T301 -8V-61Q301 -71 291 -71H262Q252 -71 252 -61V-11Q195 -9 147 9T61 56ZM252 611Q207 605 181 576T154 500Q154 458 175 431T252 390V611ZM301 70Q348 78 374 108T401 190Q401 231 379 258T301 298V70Z"  />
<glyph unicode="%" horiz-adv-x="778" d="M552 681Q558 691 568 691H616Q621 691 622 688T621 681L226 -1Q220 -11 211 -11H163Q158 -11 157 -8T157 -1L552 681ZM198 330Q155 330 125 351T83 407Q81 414 80 421T77 438T76 465T75 509Q75 536 75 552T77 579T79 597T83 611Q95 646 125 667T198 688Q241 688 271 667T313 611Q315 604 316 597T319 580T320 553T321 509Q321 482 321 466T319 439T317 421T313 407Q301 372 271 351T198 330ZM198 388Q218 388 232 397T252 423Q253 427 254 432T255 446T256 471T257 509Q257 532 257 547T256 571T254 586T252 595Q246 612 232 621T198 630Q178 630 164 621T144 595Q143 591 142 586T141 572T140 547T139 509Q139 486 139 471T140 447T142 432T144 423Q150 406 164 397T198 388ZM465 68Q463 75 462 82T459 99T458 126T457 170Q457 197 457 213T459 240T461 258T465 272Q477 307 507 328T580 349Q623 349 653 328T695 272Q697 265 698 258T701 241T702 214T703 170Q703 143 703 127T701 100T699 82T695 68Q683 33 653 12T580 -9Q537 -9 507 12T465 68ZM526 84Q532 67 546 58T580 49Q600 49 614 58T634 84Q635 88 636 93T637 107T638 132T639 170Q639 193 639 208T638 232T636 247T634 256Q628 273 614 282T580 291Q560 291 546 282T526 256Q525 252 524 247T523 233T522 208T521 170Q521 147 521 132T522 108T524 93T526 84Z"  />
<glyph unicode="&amp;" horiz-adv-x="633" d="M70 167Q70 223 102 273T205 380Q182 409 166 431T140 473T125 509T120 545Q120 576 131 603T164 649T213 680T276 691Q312 691 340 680T389 648T421 602T432 545Q432 522 426 502T405 462T368 419T311 369L440 203L509 288Q515 296 523 290L562 256Q570 250 564 242L486 143L519 100Q529 88 538 82T559 76H574Q584 76 584 66V10Q584 0 574 0H547Q517 0 499 9T460 47L433 82Q388 34 346 12T249 -11Q206 -11 173 2T117 39T82 95T70 167ZM267 429Q295 451 312 467T339 497T351 523T354 547Q354 578 333 599T276 620Q240 620 221 599T201 546Q201 535 204 525T214 501T235 471T267 429ZM149 172Q149 121 176 92T255 63Q290 63 320 81T388 141L250 321Q196 279 173 245T149 172Z"  />
<glyph unicode="&apos;" horiz-adv-x="198" d="M77 503Q67 503 67 513V670Q67 680 77 680H121Q131 680 131 670V513Q131 503 121 503H77H77Z"  />
<glyph unicode="(" horiz-adv-x="285" d="M182 -74Q122 17 93 121T63 328Q63 431 92 535T182 730Q189 740 198 740H233Q244 740 239 730Q194 639 169 535T144 328Q144 225 169 120T239 -74Q244 -84 233 -84H198Q189 -84 182 -74Z"  />
<glyph unicode=")" horiz-adv-x="285" d="M46 -74Q91 15 116 120T141 328Q141 431 116 535T46 730Q41 740 52 740H87Q96 740 103 730Q163 639 192 535T222 328Q222 225 193 121T103 -74Q96 -84 87 -84H52Q41 -84 46 -74Z"  />
<glyph unicode="*" horiz-adv-x="342" d="M156 396Q146 396 146 406V495L70 450Q66 447 62 448T56 453L41 481Q35 490 45 495L121 537L45 581Q35 586 41 595L56 623Q58 627 62 628T70 626L146 580V670Q146 680 156 680H186Q196 680 196 670L195 580L272 626Q276 629 280 628T286 623L301 595Q307 586 297 581L221 537L297 495Q307 490 301 481L286 453Q284 449 280 448T272 450L195 495L196 406Q196 396 186 396H156H156Z"  />
<glyph unicode="+" horiz-adv-x="542" d="M233 233Q233 239 227 239H71Q61 239 61 249V303Q61 313 71 313H227Q233 313 233 319V477Q233 487 243 487H299Q309 487 309 477V319Q309 313 315 313H471Q481 313 481 303V249Q481 239 471 239H315Q309 239 309 233V75Q309 65 299 65H243Q233 65 233 75V233Z"  />
<glyph unicode="&#x2c;" horiz-adv-x="230" d="M70 96Q70 106 80 106H150Q160 106 160 96V3Q160 -5 159 -9T154 -19L92 -101Q86 -108 79 -108Q70 -108 70 -99V96H70Z"  />
<glyph unicode="-" horiz-adv-x="380" d="M57 227Q47 227 47 237V295Q47 305 57 305H323Q333 305 333 295V237Q333 227 323 227H57H57Z"  />
<glyph unicode="." horiz-adv-x="236" d="M70 96Q70 106 80 106H156Q166 106 166 96V10Q166 0 156 0H80Q70 0 70 10V96Z"  />
<glyph unicode="/" horiz-adv-x="417" d="M282 681Q285 691 295 691H349Q359 691 356 681L134 -1Q131 -11 121 -11H68Q58 -11 61 -1L282 681Z"  />
<glyph unicode="0" horiz-adv-x="542" d="M85 118Q82 128 80 141T75 179T71 241T70 340Q70 400 71 438T74 501T79 538T85 562Q105 625 152 658T271 691Q342 691 389 658T457 562Q460 552 462 539T467 501T471 439T472 340Q472 280 471 242T468 179T463 142T457 118Q437 55 390 22T271 -11Q200 -11 153 22T85 118ZM168 135Q180 101 206 84T271 67Q309 67 335 84T374 135Q377 143 379 154T382 187T384 245T385 340Q385 398 385 434T383 493T379 526T374 545Q362 579 336 596T271 613Q233 613 207 596T168 545Q165 537 163 526T160 493T158 435T157 340Q157 282 157 246T159 187T163 154T168 135Z"  />
<glyph unicode="1" horiz-adv-x="542" d="M244 574H242L129 495Q118 488 118 501V575Q118 583 125 589L242 674Q249 680 258 680H318Q328 680 328 670V10Q328 0 318 0H254Q244 0 244 10V574Z"  />
<glyph unicode="2" horiz-adv-x="542" d="M79 62Q79 70 84 76L329 388Q352 417 364 445T377 506Q377 552 349 582T270 613Q221 613 194 586T159 513Q157 503 148 505L87 518Q78 521 79 530Q82 560 96 589T134 640T192 677T272 691Q317 691 352 677T412 638T450 579T463 506Q463 460 446 421T397 343L187 79V78H453Q463 78 463 68V10Q463 0 453 0H89Q79 0 79 10V62Z"  />
<glyph unicode="3" horiz-adv-x="542" d="M67 133Q66 142 75 145L136 160Q145 163 148 153Q153 137 162 122T186 94T221 75T269 67Q324 67 355 101T386 187Q386 244 352 278T261 313H231Q221 313 221 323V381Q221 391 231 391H260Q311 391 342 422T373 505Q373 553 344 583T264 613Q216 613 191 589T156 530Q153 521 144 522L84 537Q74 539 76 549Q81 577 96 603T136 648T193 679T267 691Q312 691 347 678T408 640T446 581T459 507Q459 456 435 420T375 361V359Q391 352 408 338T439 303T462 253T472 190Q472 145 457 108T415 45T351 4T269 -11Q186 -11 134 29T67 133Z"  />
<glyph unicode="4" horiz-adv-x="542" d="M63 119Q53 119 53 129V184Q53 190 56 196L276 672Q280 680 290 680H357Q368 680 364 671L147 198V196H327Q333 196 333 202V380Q333 390 343 390H407Q417 390 417 380V202Q417 196 423 196H485Q495 196 495 186V129Q495 119 485 119H423Q417 119 417 113V10Q417 0 407 0H343Q333 0 333 10V113Q333 119 327 119H63H63Z"  />
<glyph unicode="5" horiz-adv-x="542" d="M86 131Q84 141 94 143L153 158Q163 159 166 150Q174 114 201 91T277 67Q312 67 339 84T377 134Q382 148 384 168T386 219Q386 251 384 271T376 305Q365 340 339 355T277 371Q236 371 211 352T177 308Q173 298 165 298H106Q96 298 96 308V670Q96 680 106 680H448Q458 680 458 670V612Q458 602 448 602H180Q174 602 174 596V405H177Q189 421 218 435T289 449Q352 449 395 421T457 337Q464 315 468 288T472 219Q472 183 469 156T458 109Q439 51 391 20T277 -11Q238 -11 205 -1T147 29T107 74T86 131Z"  />
<glyph unicode="6" horiz-adv-x="542" d="M63 197Q63 238 75 277T108 352L281 673Q284 680 294 680H362Q373 680 368 670L216 388L218 386Q228 393 246 397T287 402Q327 402 362 388T423 348T465 284T480 200Q480 150 464 111T420 45T354 4T271 -11Q226 -11 188 3T123 44T79 109T63 197ZM149 196Q149 139 182 103T271 67Q327 67 360 103T394 196Q394 253 361 288T271 324Q215 324 182 289T149 196Z"  />
<glyph unicode="7" horiz-adv-x="542" d="M379 599V602H172Q166 602 166 596V511Q166 501 156 501H96Q86 501 86 511V670Q86 680 96 680H459Q469 680 469 670V608Q469 604 467 598L233 9Q231 4 229 2T220 0H153Q142 0 147 11L379 599Z"  />
<glyph unicode="8" horiz-adv-x="542" d="M61 189Q61 249 88 292T157 357V359Q125 377 101 414T77 503Q77 541 90 575T129 635T190 676T271 691Q317 691 353 676T414 636T452 576T465 503Q465 452 441 415T385 359V357Q426 335 453 292T481 189Q481 144 466 108T423 45T356 4T271 -11Q224 -11 186 3T120 44T77 107T61 189ZM271 396Q321 396 350 428T379 505Q379 550 350 581T271 613Q222 613 193 582T163 505Q163 460 192 428T271 396ZM147 193Q147 138 181 103T271 67Q328 67 361 102T395 193Q395 247 362 282T271 318Q214 318 181 283T147 193Z"  />
<glyph unicode="9" horiz-adv-x="542" d="M326 292L324 294Q314 287 296 283T255 278Q215 278 180 292T119 332T77 396T62 480Q62 530 78 569T122 635T188 676T271 691Q316 691 354 677T419 636T463 571T479 483Q479 442 467 403T434 328L261 7Q257 0 248 0H180Q169 0 174 10L326 292ZM271 356Q327 356 360 391T393 484Q393 541 360 577T271 613Q215 613 182 577T148 484Q148 427 181 392T271 356Z"  />
<glyph unicode=":" horiz-adv-x="244" d="M84 373Q74 373 74 383V469Q74 479 84 479H160Q170 479 170 469V383Q170 373 160 373H84ZM74 96Q74 106 84 106H160Q170 106 170 96V10Q170 0 160 0H84Q74 0 74 10V96Z"  />
<glyph unicode=";" horiz-adv-x="244" d="M84 373Q74 373 74 383V469Q74 479 84 479H160Q170 479 170 469V383Q170 373 160 373H84ZM77 96Q77 106 87 106H157Q167 106 167 96V3Q167 -5 166 -9T161 -18L99 -101Q93 -108 86 -108Q77 -108 77 -99V96Z"  />
<glyph unicode="&lt;" horiz-adv-x="542" d="M71 239Q61 242 61 252V299Q61 309 71 313L471 477Q481 480 481 471V409Q481 400 471 396L170 277V275L471 156Q481 152 481 143V81Q481 72 471 75L71 239H71Z"  />
<glyph unicode="=" horiz-adv-x="542" d="M71 339Q61 339 61 349V403Q61 413 71 413H471Q481 413 481 403V349Q481 339 471 339H71ZM71 139Q61 139 61 149V203Q61 213 71 213H471Q481 213 481 203V149Q481 139 471 139H71Z"  />
<glyph unicode="&gt;" horiz-adv-x="542" d="M61 143Q61 152 71 156L372 275V277L71 396Q61 400 61 409V471Q61 480 71 477L471 313Q481 309 481 299V252Q481 242 471 239L71 75Q61 72 61 81V143Z"  />
<glyph unicode="?" horiz-adv-x="456" d="M190 182Q180 182 180 192V233Q180 263 187 282T210 323L277 415Q290 433 299 447T313 473T321 496T324 520Q324 563 297 588T227 613Q185 613 159 589T123 518Q121 508 112 510L49 521Q39 523 41 532Q52 604 101 647T229 691Q269 691 302 679T360 644T397 590T410 521Q410 485 398 456T359 391L292 299Q277 279 272 264T266 224V192Q266 182 256 182H190ZM175 96Q175 106 185 106H261Q271 106 271 96V10Q271 0 261 0H185Q175 0 175 10V96Z"  />
<glyph unicode="@" horiz-adv-x="887" d="M47 268Q47 355 76 427T157 550T282 631T442 660Q529 660 601 631T726 550T807 426T836 268Q836 212 824 172T789 106T739 68T677 55Q633 55 603 74T558 126H557Q540 93 507 75T422 56Q312 56 279 154Q273 174 270 198T266 263Q266 303 269 327T279 372Q296 422 331 446T419 470Q464 470 492 454T534 416H536V451Q536 460 544 460H597Q606 460 606 451V205Q606 160 627 140T677 120Q695 120 711 127T739 151T758 197T765 268Q765 340 742 400T677 504T576 571T442 595Q368 595 308 572T206 505T141 402T118 268Q118 194 141 134T206 31T308 -36T442 -60Q514 -60 564 -48T658 -14Q668 -9 672 -18L688 -58Q693 -66 684 -71Q633 -98 577 -111T442 -125Q355 -125 282 -97T157 -16T76 108T47 268ZM347 184Q368 122 437 122Q506 122 528 184Q533 198 534 215T536 263Q536 293 535 310T528 342Q506 404 437 404Q368 404 347 342Q342 328 340 311T338 263Q338 233 340 216T347 184Z"  />
<glyph unicode="A" horiz-adv-x="607" d="M260 670Q263 680 272 680H337Q347 680 350 670L583 10Q586 0 576 0H506Q496 0 493 10L441 158H166L114 10Q110 0 101 0H31Q21 0 24 10L260 670ZM412 240L305 549H303L195 240H412Z"  />
<glyph unicode="B" horiz-adv-x="604" d="M84 670Q84 680 94 680H335Q438 680 489 632T540 501Q540 441 515 405T449 353V351Q466 346 484 334T518 302T542 255T552 194Q552 98 495 49T330 0H94Q84 0 84 10V670ZM333 386Q390 386 421 415T452 492Q452 541 421 570T333 599H179Q173 599 173 593V392Q173 386 179 386H333ZM173 87Q173 81 179 81H338Q399 81 431 111T463 193Q463 244 431 274T338 305H179Q173 305 173 299V87Z"  />
<glyph unicode="C" horiz-adv-x="566" d="M78 149Q73 164 70 179T64 216T61 268T60 340Q60 382 61 412T64 463T69 500T78 531Q104 612 162 651T304 691Q380 691 436 656T522 554Q525 545 518 541L458 512Q448 507 444 517Q424 557 391 582T304 608Q248 608 214 582T163 508Q160 497 158 485T154 454T151 408T150 340Q150 300 151 273T153 227T157 195T163 172Q180 124 214 98T304 72Q358 72 391 97T444 163Q448 173 458 168L518 139Q525 135 522 126Q493 60 437 25T304 -11Q220 -11 162 28T78 149Z"  />
<glyph unicode="D" horiz-adv-x="623" d="M84 670Q84 680 94 680H323Q498 680 545 535Q549 521 552 506T558 469T562 416T563 340Q563 295 562 264T559 211T553 174T545 145Q498 0 323 0H94Q84 0 84 10V670ZM173 89Q173 83 179 83H304Q366 83 404 104T459 176Q462 185 465 197T469 227T472 273T473 340Q473 380 472 407T470 452T465 483T459 504Q442 554 404 575T304 597H179Q173 597 173 591V89Z"  />
<glyph unicode="E" horiz-adv-x="563" d="M84 670Q84 680 94 680H503Q513 680 513 670V607Q513 597 503 597H179Q173 597 173 591V391Q173 385 179 385H454Q464 385 464 375V312Q464 302 454 302H179Q173 302 173 296V89Q173 83 179 83H503Q513 83 513 73V10Q513 0 503 0H94Q84 0 84 10V670Z"  />
<glyph unicode="F" horiz-adv-x="556" d="M84 670Q84 680 94 680H503Q513 680 513 670V607Q513 597 503 597H179Q173 597 173 591V384Q173 378 179 378H454Q464 378 464 368V305Q464 295 454 295H179Q173 295 173 289V10Q173 0 163 0H94Q84 0 84 10V670Z"  />
<glyph unicode="G" horiz-adv-x="619" d="M78 148Q73 163 70 179T65 216T61 268T60 340Q60 382 61 412T64 463T70 501T78 532Q104 611 164 651T311 691Q356 691 392 681T456 652T504 609T537 556Q542 547 534 542L474 513Q465 508 460 518Q435 564 400 586T311 608Q253 608 217 582T164 507Q161 498 158 485T154 453T151 407T150 340Q150 301 151 274T153 227T158 195T164 173Q180 124 216 98T311 72Q363 72 402 97T457 170Q462 187 466 213T470 277Q470 283 464 283H332Q322 283 322 293V351Q322 361 332 361H549Q559 361 559 351V300Q559 254 555 215T542 150Q517 72 457 31T311 -11Q224 -11 164 29T78 148Z"  />
<glyph unicode="H" horiz-adv-x="653" d="M84 670Q84 680 94 680H163Q173 680 173 670V391Q173 385 179 385H474Q480 385 480 391V670Q480 680 490 680H559Q569 680 569 670V10Q569 0 559 0H490Q480 0 480 10V296Q480 302 474 302H179Q173 302 173 296V10Q173 0 163 0H94Q84 0 84 10V670Z"  />
<glyph unicode="I" horiz-adv-x="257" d="M84 670Q84 680 94 680H163Q173 680 173 670V10Q173 0 163 0H94Q84 0 84 10V670Z"  />
<glyph unicode="J" horiz-adv-x="491" d="M33 59Q26 66 33 73L83 116Q90 122 98 114Q114 99 139 86T197 72Q257 72 290 107T323 218V670Q323 680 333 680H402Q412 680 412 670V218Q412 104 353 47T194 -11Q144 -11 101 9T33 59Z"  />
<glyph unicode="K" horiz-adv-x="616" d="M84 670Q84 680 94 680H163Q173 680 173 670V316L462 671Q468 680 478 680H560Q565 680 566 677T564 668L352 413L585 11Q592 0 579 0H499Q490 0 485 9L294 344L173 198V10Q173 0 163 0H94Q84 0 84 10V670Z"  />
<glyph unicode="L" horiz-adv-x="538" d="M84 670Q84 680 94 680H163Q173 680 173 670V89Q173 83 179 83H503Q513 83 513 73V10Q513 0 503 0H94Q84 0 84 10V670Z"  />
<glyph unicode="M" horiz-adv-x="755" d="M84 670Q84 680 94 680H159Q171 680 175 670L378 212H381L580 670Q584 680 596 680H661Q671 680 671 670V10Q671 0 661 0H598Q588 0 588 10V483H585L416 109Q411 97 398 97H358Q344 97 339 109L170 483H167V10Q167 0 157 0H94Q84 0 84 10V670Z"  />
<glyph unicode="N" horiz-adv-x="654" d="M84 670Q84 680 94 680H158Q170 680 175 670L483 160H487V670Q487 680 497 680H560Q570 680 570 670V10Q570 0 560 0H496Q484 0 479 10L170 518H167V10Q167 0 157 0H94Q84 0 84 10V670Z"  />
<glyph unicode="O" horiz-adv-x="619" d="M309 -11Q223 -11 164 29T78 148Q73 163 70 179T64 216T61 268T60 340Q60 382 61 412T64 463T69 501T78 532Q104 611 163 651T309 691Q396 691 455 651T541 532Q546 517 549 501T555 464T558 412T559 340Q559 298 558 268T555 217T550 179T541 148Q515 69 456 29T309 -11ZM309 72Q366 72 402 98T454 173Q457 182 459 195T464 229T468 276T469 340Q469 377 468 404T465 451T460 484T454 507Q438 556 402 582T309 608Q252 608 217 582T165 507Q162 498 160 485T155 451T151 404T150 340Q150 303 151 276T154 229T159 196T165 173Q181 124 216 98T309 72Z"  />
<glyph unicode="P" horiz-adv-x="592" d="M94 0Q84 0 84 10V670Q84 680 94 680H336Q385 680 425 666T493 625T536 561T552 477Q552 431 537 394T493 330T425 289T336 274H179Q173 274 173 268V10Q173 0 163 0H94ZM331 357Q394 357 429 389T464 477Q464 533 429 565T331 597H179Q173 597 173 591V363Q173 357 179 357H331Z"  />
<glyph unicode="Q" horiz-adv-x="619" d="M309 -11Q223 -11 164 29T78 148Q73 163 70 179T64 216T61 268T60 340Q60 382 61 412T64 463T69 501T78 532Q104 611 163 651T309 691Q396 691 455 651T541 532Q546 517 549 501T555 464T558 412T559 340Q559 298 558 268T555 217T550 179T541 148Q536 132 530 119T515 92L586 22Q592 16 586 8L542 -39Q539 -42 535 -42T527 -39L457 30Q398 -11 309 -11ZM309 72Q360 72 395 93L321 168Q315 174 321 182L365 230Q373 236 379 230L449 159L454 173Q457 182 459 195T464 229T468 276T469 340Q469 377 468 404T465 451T460 484T454 507Q438 556 402 582T309 608Q252 608 217 582T165 507Q162 498 160 485T155 451T151 404T150 340Q150 303 151 276T154 229T159 196T165 173Q181 124 216 98T309 72Z"  />
<glyph unicode="R" horiz-adv-x="617" d="M478 0Q469 0 465 10L329 288H179Q173 288 173 282V10Q173 0 163 0H94Q84 0 84 10V670Q84 680 94 680H340Q388 680 427 666T494 627T537 565T553 484Q553 415 517 367T419 299L564 12Q567 7 565 4T558 0H478ZM338 371Q398 371 431 400T464 484Q464 538 431 567T338 597H179Q173 597 173 591V377Q173 371 179 371H338Z"  />
<glyph unicode="S" horiz-adv-x="591" d="M290 -11Q254 -11 219 -4T153 14T96 41T51 74Q44 81 50 89L94 141Q100 148 108 142Q141 116 190 94T298 72Q369 72 408 104T448 188Q448 210 441 228T418 260T374 284T306 299L272 304Q72 331 72 492Q72 537 87 574T132 637T202 677T294 691Q354 691 408 674T501 628Q509 622 503 614L469 559Q463 552 455 557Q413 583 374 595T291 608Q228 608 195 578T162 498Q162 455 194 428T305 389L338 384Q438 370 488 324T538 194Q538 149 523 112T476 47T398 5T290 -11Z"  />
<glyph unicode="T" horiz-adv-x="537" d="M234 0Q224 0 224 10V591Q224 597 218 597H32Q22 597 22 607V670Q22 680 32 680H505Q515 680 515 670V607Q515 597 505 597H319Q313 597 313 591V10Q313 0 303 0H234Z"  />
<glyph unicode="U" horiz-adv-x="639" d="M320 -11Q207 -11 143 52T79 237V670Q79 680 89 680H158Q168 680 168 670V238Q168 155 209 114T320 72Q388 72 429 113T471 238V670Q471 680 481 680H550Q560 680 560 670V237Q560 116 496 53T320 -11Z"  />
<glyph unicode="V" horiz-adv-x="562" d="M252 0Q243 0 240 10L20 668Q18 674 20 677T27 680H95Q106 680 109 670L283 145H285L453 670Q456 680 466 680H535Q546 680 542 668L323 10Q320 0 311 0H252Z"  />
<glyph unicode="W" horiz-adv-x="823" d="M568 0Q560 0 557 10L412 517H410L266 10Q263 0 254 0H199Q190 0 188 10L24 670Q21 680 32 680H98Q109 680 110 670L231 165H233L374 670Q377 680 386 680H437Q446 680 449 670L593 165H595L713 670Q716 680 726 680H791Q801 680 799 670L635 10Q633 0 623 0H568Z"  />
<glyph unicode="X" horiz-adv-x="558" d="M449 0Q439 0 435 9L279 268H278L122 9Q116 0 107 0H29Q24 0 23 3T24 12L229 354L42 668Q39 673 40 676T47 680H125Q131 680 134 678T140 671L278 441H279L418 671Q422 680 432 680H510Q515 680 516 677T516 668L328 354L534 12Q536 7 535 4T528 0H449Z"  />
<glyph unicode="Y" horiz-adv-x="526" d="M229 0Q219 0 219 10V278L18 669Q14 680 26 680H97Q106 680 112 670L264 379H266L417 670Q421 680 431 680H500Q512 680 508 669L307 278V10Q307 0 297 0H229Z"  />
<glyph unicode="Z" horiz-adv-x="536" d="M59 0Q49 0 49 10V73Q49 79 53 84L385 596V597H71Q61 597 61 607V670Q61 680 71 680H477Q487 680 487 670V607Q487 601 483 596L150 84V83H477Q487 83 487 73V10Q487 0 477 0H59Z"  />
<glyph unicode="[" horiz-adv-x="281" d="M90 -84Q80 -84 80 -74V730Q80 740 90 740H234Q244 740 244 730V682Q244 672 234 672H165Q159 672 159 666V-10Q159 -16 165 -16H234Q244 -16 244 -26V-74Q244 -84 234 -84H90Z"  />
<glyph unicode="\" horiz-adv-x="417" d="M295 -11Q285 -11 282 -1L61 681Q58 691 68 691H121Q131 691 134 681L356 -1Q359 -11 349 -11H295Z"  />
<glyph unicode="]" horiz-adv-x="281" d="M47 -84Q37 -84 37 -74V-26Q37 -16 47 -16H116Q122 -16 122 -10V666Q122 672 116 672H47Q37 672 37 682V730Q37 740 47 740H191Q201 740 201 730V-74Q201 -84 191 -84H47Z"  />
<glyph unicode="^" horiz-adv-x="542" d="M416 272Q406 272 402 282L272 574H270L140 282Q136 272 127 272H68Q57 272 62 282L235 670Q240 680 249 680H293Q302 680 307 670L480 282Q485 272 474 272H416Z"  />
<glyph unicode="_" horiz-adv-x="476" d="M0 -132V-76H476V-132H0Z"  />
<glyph unicode="`" horiz-adv-x="421" d="M239 557Q227 557 220 567L128 690Q125 694 126 697T133 700H199Q211 700 217 690L292 567Q297 557 286 557H239Z"  />
<glyph unicode="a" horiz-adv-x="519" d="M372 0Q362 0 362 10V52H361Q344 25 309 7T219 -11Q185 -11 156 -2T105 25T71 70T58 133Q58 209 107 245T245 281H354Q360 281 360 287V322Q360 372 336 394T245 416Q204 416 177 407T129 382Q120 375 115 383L88 429Q84 437 90 443Q117 464 158 477T253 490Q355 490 398 453T441 327V10Q441 0 431 0H372ZM239 61Q296 61 328 85T360 155V208Q360 214 354 214H258Q195 214 167 196T139 136Q139 99 165 80T239 61Z"  />
<glyph unicode="b" horiz-adv-x="538" d="M92 0Q82 0 82 10V670Q82 680 92 680H156Q166 680 166 670V424H167Q184 453 216 471T303 490Q366 490 408 461T468 375Q478 346 481 316T485 240Q485 195 482 164T468 104Q450 47 408 18T303 -11Q249 -11 217 8T167 56H166V10Q166 0 156 0H92ZM283 67Q363 67 388 140Q394 159 396 183T399 240Q399 272 397 296T388 340Q363 412 283 412Q201 412 177 340Q171 322 169 299T166 240Q166 204 168 181T177 140Q201 67 283 67Z"  />
<glyph unicode="c" horiz-adv-x="472" d="M53 240Q53 280 57 309T68 361Q88 424 138 457T257 490Q312 490 353 469T421 409Q426 401 418 395L374 359Q366 353 360 360Q339 386 316 399T257 412Q218 412 190 394T150 337Q144 318 142 295T139 240Q139 208 141 185T150 142Q162 104 190 86T257 67Q293 67 316 80T360 119Q366 126 374 120L418 84Q426 78 421 70Q395 32 354 11T257 -11Q188 -11 138 22T68 118Q61 140 57 169T53 240Z"  />
<glyph unicode="d" horiz-adv-x="538" d="M382 0Q372 0 372 10V56H371Q354 27 322 8T235 -11Q172 -11 130 18T70 104Q60 133 57 164T53 240Q53 285 56 315T70 375Q88 432 130 461T235 490Q289 490 321 472T371 424H372V670Q372 680 382 680H446Q456 680 456 670V10Q456 0 446 0H382ZM255 67Q337 67 361 140Q367 157 369 180T372 240Q372 276 370 299T361 340Q337 412 255 412Q175 412 150 340Q144 320 142 296T139 240Q139 207 141 183T150 140Q175 67 255 67Z"  />
<glyph unicode="e" horiz-adv-x="512" d="M261 -11Q188 -11 139 22T69 119Q61 142 57 170T53 240Q53 282 56 310T68 361Q88 424 137 457T256 490Q325 490 374 457T444 361Q448 349 450 337T455 308T458 272T459 224Q459 214 448 214H145Q139 214 139 208Q139 188 141 175T147 150Q161 108 192 88T268 67Q311 67 341 82T391 120Q399 128 406 122L447 85Q454 79 448 71Q419 35 372 12T261 -11ZM367 281Q373 281 373 287Q373 320 366 341Q354 377 326 396T256 416Q215 416 187 397T146 341Q139 320 139 287Q139 281 145 281H367Z"  />
<glyph unicode="f" horiz-adv-x="318" d="M108 0Q98 0 98 10V405Q98 411 92 411H51Q41 411 41 421V469Q41 479 51 479H92Q98 479 98 485V526Q98 611 133 645T244 680H281Q291 680 291 670V612Q291 602 281 602H255Q232 602 218 599T196 588T185 566T182 530V485Q182 479 188 479H281Q291 479 291 469V421Q291 411 281 411H188Q182 411 182 405V10Q182 0 172 0H108Z"  />
<glyph unicode="g" horiz-adv-x="529" d="M238 -191Q187 -191 142 -172T72 -120Q66 -113 73 -106L114 -65Q121 -58 129 -65Q154 -88 180 -100T242 -113Q302 -113 332 -82T363 16V72H362Q345 42 314 24T229 6Q168 6 127 35T68 122Q59 149 56 177T52 248Q52 290 55 318T68 374Q86 431 127 460T229 490Q282 490 313 472T362 424H363V469Q363 479 373 479H437Q447 479 447 469V21Q447 -82 394 -136T238 -191ZM250 83Q327 83 352 155Q358 173 360 195T363 248Q363 279 361 300T352 341Q327 412 250 412Q174 412 149 341Q143 322 140 300T137 248Q137 191 149 155Q174 83 250 83Z"  />
<glyph unicode="h" horiz-adv-x="544" d="M393 0Q383 0 383 10V290Q383 348 357 380T276 412Q227 412 197 381T166 295V10Q166 0 156 0H92Q82 0 82 10V670Q82 680 92 680H156Q166 680 166 670V425H167Q184 453 218 471T301 490Q379 490 423 441T467 310V10Q467 0 457 0H393Z"  />
<glyph unicode="i" horiz-adv-x="248" d="M90 587Q80 587 80 597V670Q80 680 90 680H158Q168 680 168 670V597Q168 587 158 587H90ZM92 0Q82 0 82 10V469Q82 479 92 479H156Q166 479 166 469V10Q166 0 156 0H92Z"  />
<glyph unicode="j" horiz-adv-x="248" d="M90 587Q80 587 80 597V670Q80 680 90 680H158Q168 680 168 670V597Q168 587 158 587H90ZM3 -180Q-7 -180 -7 -170V-112Q-7 -102 3 -102H19Q54 -102 68 -89T82 -38V469Q82 479 92 479H156Q166 479 166 469V-36Q166 -114 131 -147T23 -180H3Z"  />
<glyph unicode="k" horiz-adv-x="511" d="M401 0Q391 0 385 10L249 233L166 136V10Q166 0 156 0H92Q82 0 82 10V670Q82 680 92 680H156Q166 680 166 670V247L355 470Q363 479 373 479H447Q452 479 453 476T451 469L304 298L481 10Q483 7 482 4T475 0H401Z"  />
<glyph unicode="l" horiz-adv-x="277" d="M197 -5Q134 -5 107 25T80 121V670Q80 680 90 680H154Q164 680 164 670V126Q164 96 175 85T212 73H231Q241 73 241 63V5Q241 -5 231 -5H197Z"  />
<glyph unicode="m" horiz-adv-x="845" d="M694 0Q684 0 684 10V290Q684 348 658 380T577 412Q529 412 498 381T467 295V10Q467 0 457 0H393Q383 0 383 10V290Q383 348 357 380T276 412Q227 412 197 381T166 295V10Q166 0 156 0H92Q82 0 82 10V469Q82 479 92 479H156Q166 479 166 469V425H167Q184 453 218 471T301 490Q350 490 385 471T441 415H442Q467 450 504 470T597 490Q681 490 724 441T768 310V10Q768 0 758 0H694Z"  />
<glyph unicode="n" horiz-adv-x="544" d="M393 0Q383 0 383 10V290Q383 348 357 380T276 412Q227 412 197 381T166 295V10Q166 0 156 0H92Q82 0 82 10V469Q82 479 92 479H156Q166 479 166 469V425H167Q184 453 218 471T301 490Q379 490 423 441T467 310V10Q467 0 457 0H393Z"  />
<glyph unicode="o" horiz-adv-x="516" d="M258 -11Q188 -11 139 23T69 118Q61 143 57 170T53 240Q53 282 57 309T69 361Q89 423 138 456T258 490Q328 490 377 457T447 361Q455 336 459 309T463 240Q463 198 459 171T447 118Q427 57 378 23T258 -11ZM258 67Q298 67 326 86T366 142Q372 162 374 183T377 240Q377 275 375 296T366 337Q354 373 326 392T258 412Q218 412 190 393T150 337Q144 317 142 296T139 240Q139 205 141 184T150 142Q162 106 190 87T258 67Z"  />
<glyph unicode="p" horiz-adv-x="538" d="M92 -180Q82 -180 82 -170V469Q82 479 92 479H156Q166 479 166 469V424H167Q184 453 216 471T303 490Q366 490 408 461T468 375Q478 346 481 316T485 240Q485 195 482 164T468 104Q450 47 408 18T303 -11Q249 -11 217 8T167 56H166V-170Q166 -180 156 -180H92ZM283 67Q363 67 388 140Q394 159 396 183T399 240Q399 272 397 296T388 340Q363 412 283 412Q201 412 177 340Q171 322 169 299T166 240Q166 204 168 181T177 140Q201 67 283 67Z"  />
<glyph unicode="q" horiz-adv-x="538" d="M382 -180Q372 -180 372 -170V56H371Q354 27 322 8T235 -11Q172 -11 130 18T70 104Q60 133 57 164T53 240Q53 285 56 315T70 375Q88 432 130 461T235 490Q289 490 321 472T371 424H372V469Q372 479 382 479H446Q456 479 456 469V-170Q456 -180 446 -180H382ZM255 67Q337 67 361 140Q367 157 369 180T372 240Q372 276 370 299T361 340Q337 412 255 412Q175 412 150 340Q144 320 142 296T139 240Q139 207 141 183T150 140Q175 67 255 67Z"  />
<glyph unicode="r" horiz-adv-x="410" d="M92 0Q82 0 82 10V469Q82 479 92 479H156Q166 479 166 469V420H167Q183 451 214 470T294 490Q323 490 348 481T392 454Q399 447 394 440L357 391Q351 383 343 389Q326 400 308 406T269 412Q214 412 190 374T166 272V10Q166 0 156 0H92Z"  />
<glyph unicode="s" horiz-adv-x="490" d="M247 -11Q212 -11 182 -5T128 12T84 35T49 61Q42 68 49 75L90 119Q97 126 104 119Q131 96 169 80T252 64Q305 64 331 84T357 137Q357 165 339 181T264 204L213 209Q142 217 106 251T70 344Q70 413 116 451T248 490Q301 490 344 475T418 437Q426 432 420 423L386 380Q380 373 372 378Q349 393 315 405T243 417Q198 417 175 399T152 351Q152 322 172 307T246 286L296 281Q369 274 404 239T440 146Q440 75 391 32T247 -11Z"  />
<glyph unicode="t" horiz-adv-x="316" d="M221 -5Q151 -5 122 27T92 131V405Q92 411 86 411H46Q36 411 36 421V469Q36 479 46 479H86Q92 479 92 485V620Q92 630 102 630H166Q176 630 176 620V485Q176 479 182 479H258Q268 479 268 469V421Q268 411 258 411H182Q176 411 176 405V134Q176 98 190 86T237 73H258Q268 73 268 63V5Q268 -5 258 -5H221Z"  />
<glyph unicode="u" horiz-adv-x="539" d="M383 0Q373 0 373 10V55H372Q353 25 321 7T241 -11Q162 -11 119 38T75 170V469Q75 479 85 479H149Q159 479 159 469V190Q159 131 185 99T265 67Q314 67 343 99T373 185V469Q373 479 383 479H447Q457 479 457 469V10Q457 0 447 0H383Z"  />
<glyph unicode="v" horiz-adv-x="477" d="M210 0Q201 0 198 10L26 469Q23 479 34 479H103Q112 479 116 469L240 125H242L363 469Q366 479 375 479H443Q454 479 451 469L280 10Q277 0 267 0H210Z"  />
<glyph unicode="w" horiz-adv-x="745" d="M494 0Q485 0 482 10L374 353H372L263 10Q260 0 251 0H193Q184 0 181 10L31 469Q28 479 38 479H106Q115 479 119 469L225 123H227L335 469Q338 479 347 479H399Q409 479 412 469L521 123H523L626 469Q628 479 639 479H707Q717 479 714 469L563 10Q560 0 551 0H494Z"  />
<glyph unicode="x" horiz-adv-x="480" d="M371 0Q362 0 356 9L240 178H239L123 9Q118 0 108 0H37Q31 0 30 3T30 10L193 250L44 469Q42 473 43 476T51 479H123Q128 479 131 478T138 470L239 321H240L343 470Q348 479 357 479H429Q435 479 436 476T436 469L286 250L450 10Q452 6 451 3T443 0H371Z"  />
<glyph unicode="y" horiz-adv-x="477" d="M86 -180Q76 -180 76 -170V-112Q76 -102 86 -102H104Q133 -102 151 -87T185 -30L201 14L25 469Q22 479 33 479H103Q112 479 115 469L241 123H243L364 469Q367 479 376 479H444Q455 479 452 469L263 -37Q247 -79 232 -107T199 -151T160 -173T112 -180H86Z"  />
<glyph unicode="z" horiz-adv-x="477" d="M65 0Q55 0 55 10V63Q55 70 59 74L322 401V403H78Q68 403 68 413V469Q68 479 78 479H412Q422 479 422 469V413Q422 407 418 402L157 78V76H412Q422 76 422 66V10Q422 0 412 0H65Z"  />
<glyph unicode="{" horiz-adv-x="333" d="M240 -84Q133 -84 133 29V211Q133 254 118 272T71 292Q61 292 61 302V359Q61 369 71 369Q102 370 117 388T133 449V627Q133 740 240 740H286Q296 740 296 730V682Q296 672 286 672H257Q234 672 223 661T212 623V450Q212 394 198 369T150 331V330Q183 318 197 293T212 211V33Q212 7 223 -4T257 -16H286Q296 -16 296 -26V-74Q296 -84 286 -84H240Z"  />
<glyph unicode="|" horiz-adv-x="290" d="M119 -84Q109 -84 109 -74V730Q109 740 119 740H171Q181 740 181 730V-74Q181 -84 171 -84H119Z"  />
<glyph unicode="}" horiz-adv-x="333" d="M47 -84Q37 -84 37 -74V-26Q37 -16 47 -16H76Q99 -16 110 -5T121 33V211Q121 267 135 292T183 330V331Q150 343 136 368T121 450V623Q121 649 110 660T76 672H47Q37 672 37 682V730Q37 740 47 740H93Q200 740 200 627V449Q200 407 215 389T262 369Q272 369 272 359V302Q272 292 262 292Q231 291 216 273T200 211V29Q200 -84 93 -84H47Z"  />
<glyph unicode="~" horiz-adv-x="542" d="M286 307Q303 296 321 287T357 278Q383 278 399 292T432 332Q437 340 446 334L484 312Q492 307 488 298Q468 256 433 232T356 208Q325 208 301 219T256 245Q239 256 221 265T185 274Q159 274 143 260T110 220Q105 212 96 218L58 240Q50 245 54 254Q74 296 109 320T186 344Q217 344 241 333T286 307Z"  />
<glyph unicode="&#xA0;" horiz-adv-x="240" />
<glyph unicode="&#xA1;" horiz-adv-x="288" d="M165 295Q175 295 175 285L191 -191Q191 -201 181 -201H107Q97 -201 97 -191L113 285Q113 295 123 295H165ZM192 383Q192 373 182 373H106Q96 373 96 383V469Q96 479 106 479H182Q192 479 192 469V383Z"  />
<glyph unicode="&#xA2;" horiz-adv-x="542" d="M313 489Q364 486 401 465T462 409Q467 401 459 395L415 359Q407 353 401 360Q382 383 363 395T313 411V68Q343 71 362 83T401 119Q407 126 415 120L459 84Q467 78 462 70Q438 35 401 14T313 -10V-90Q313 -100 303 -100H277Q267 -100 267 -90V-9Q205 -3 162 29T101 118Q94 140 90 169T86 240Q86 280 90 309T101 361Q119 418 162 450T267 488V570Q267 580 277 580H303Q313 580 313 570V489ZM183 142Q202 80 267 69V410Q203 399 183 337Q177 318 175 295T172 240Q172 208 174 185T183 142Z"  />
<glyph unicode="&#xA3;" horiz-adv-x="542" d="M108 0Q98 0 98 10V66Q98 73 103 78Q112 87 119 96T130 115T137 140T139 174V279Q139 285 133 285H85Q75 285 75 295V342Q75 352 85 352H133Q139 352 139 358V510Q139 598 183 644T303 691Q367 691 407 657T460 567Q462 558 451 556L390 540Q381 538 379 548Q372 577 353 595T303 613Q267 613 246 591T225 523V358Q225 352 231 352H358Q368 352 368 342V295Q368 285 358 285H231Q225 285 225 279V187Q225 149 218 124T197 79V78H453Q463 78 463 68V10Q463 0 453 0H108Z"  />
<glyph unicode="&#xA4;" horiz-adv-x="538" d="M456 98Q448 92 442 98L380 159Q357 143 329 135T268 126Q204 126 156 160L95 99Q89 93 81 99L44 138Q38 146 44 152L104 212Q72 259 72 323Q72 387 104 434L44 495Q37 502 44 509L81 548Q88 555 95 548L156 486Q180 502 208 511T268 520Q300 520 328 511T380 486L441 548Q449 556 455 548L493 509Q500 502 493 495L432 434Q447 411 455 383T464 323Q464 291 456 264T432 213L493 152Q501 144 493 138L456 98ZM268 196Q295 196 318 205T358 232T384 273T394 323Q394 350 385 373T359 413T319 440T268 450Q241 450 218 441T179 414T153 373T143 323Q143 296 152 273T178 233T218 206T268 196Z"  />
<glyph unicode="&#xA5;" horiz-adv-x="542" d="M239 0Q229 0 229 10V142Q229 148 223 148H97Q87 148 87 158V200Q87 210 97 210H223Q229 210 229 216V267Q229 273 223 273H97Q87 273 87 283V325Q87 335 97 335H205V337L50 669Q44 680 57 680H125Q136 680 139 670L272 372H275L404 670Q408 680 418 680H485Q497 680 492 669L337 337V335H445Q455 335 455 325V283Q455 273 445 273H319Q313 273 313 267V216Q313 210 319 210H445Q455 210 455 200V158Q455 148 445 148H319Q313 148 313 142V10Q313 0 303 0H239Z"  />
<glyph unicode="&#xA6;" horiz-adv-x="290" d="M119 388Q109 388 109 398V730Q109 740 119 740H171Q181 740 181 730V398Q181 388 171 388H119ZM119 -84Q109 -84 109 -74V262Q109 272 119 272H171Q181 272 181 262V-74Q181 -84 171 -84H119Z"  />
<glyph unicode="&#xA7;" horiz-adv-x="556" d="M275 -191Q194 -191 153 -153T106 -51Q104 -41 113 -40L171 -27Q180 -25 182 -34Q184 -77 208 -98T274 -120Q317 -120 341 -99T366 -37Q366 5 337 30T237 70Q162 87 128 133T93 252Q93 308 118 351T193 412V413Q151 435 134 465T116 542Q116 573 128 600T162 647T214 679T280 691Q320 691 350 680T401 650T431 607T443 556Q443 546 436 545L379 533Q374 531 371 533T368 540Q366 575 345 597T282 620Q242 620 219 600T195 542Q195 499 222 475T319 434Q393 417 428 371T463 252Q463 195 437 153T364 93V92Q404 73 424 42T445 -41Q445 -74 433 -101T398 -149T344 -180T275 -191ZM278 141Q326 141 355 169T384 252Q384 306 355 334T278 363Q230 363 201 335T172 252Q172 198 201 170T278 141Z"  />
<glyph unicode="&#xA8;" horiz-adv-x="421" d="M280 587Q270 587 270 597V670Q270 680 280 680H339Q349 680 349 670V597Q349 587 339 587H280ZM83 587Q73 587 73 597V670Q73 680 83 680H142Q152 680 152 670V597Q152 587 142 587H83Z"  />
<glyph unicode="&#xA9;" horiz-adv-x="828" d="M414 -11Q340 -11 276 16T164 90T90 201T63 340Q63 414 90 478T164 589T275 664T414 691Q488 691 552 664T663 590T738 478T765 340Q765 266 738 202T664 90T552 16T414 -11ZM414 50Q475 50 528 72T619 133T680 225T702 340Q702 402 680 455T620 547T528 608T414 630Q352 630 300 608T209 547T148 455T126 340Q126 278 148 225T208 133T299 72T414 50ZM423 143Q366 143 327 169T270 248Q265 263 262 283T259 340Q259 376 262 396T270 432Q287 484 326 510T423 537Q468 537 500 520T553 474Q559 466 551 460L519 431Q512 426 505 433Q490 453 472 464T424 475Q355 475 334 413Q330 402 329 387T327 340Q327 308 328 293T334 267Q355 205 424 205Q453 205 471 216T505 247Q512 254 519 249L551 220Q559 214 553 206Q533 178 501 161T423 143Z"  />
<glyph unicode="&#xAA;" horiz-adv-x="343" d="M240 392Q230 392 230 402V419H229Q217 404 196 396T141 387Q99 387 69 408T39 473Q39 521 71 543T163 566H223Q229 566 229 572V586Q229 608 215 618T161 628Q138 628 121 624T91 611Q82 606 77 613L58 648Q52 656 60 662Q79 674 105 681T169 688Q240 688 268 665T296 587V402Q296 392 286 392H240ZM159 442Q192 442 210 453T229 488V510Q229 516 223 516H168Q135 516 121 506T106 478Q106 442 159 442Z"  />
<glyph unicode="&#xAB;" horiz-adv-x="535" d="M266 257Q259 264 266 271L455 463Q458 466 461 465T465 459V386Q465 376 456 366L357 268Q353 264 357 260L456 162Q465 152 465 142V69Q465 64 462 63T455 65L266 257ZM51 257Q44 264 51 271L240 463Q243 466 246 465T250 459V386Q250 376 241 366L142 268Q138 264 142 260L241 162Q250 152 250 142V69Q250 64 247 63T240 65L51 257Z"  />
<glyph unicode="&#xAC;" horiz-adv-x="542" d="M415 103Q405 103 405 113V233Q405 239 399 239H71Q61 239 61 249V303Q61 313 71 313H471Q481 313 481 303V113Q481 103 471 103H415Z"  />
<glyph unicode="&#xAD;" horiz-adv-x="380" d="M57 227Q47 227 47 237V295Q47 305 57 305H323Q333 305 333 295V237Q333 227 323 227H57H57Z"  />
<glyph unicode="&#xAE;" horiz-adv-x="452" d="M226 301Q185 301 151 315T90 356T50 417T35 493Q35 533 49 568T90 629T150 669T226 684Q267 684 302 670T362 629T402 568T417 493Q417 452 403 417T363 356T302 316T226 301ZM226 334Q260 334 288 346T338 379T371 430T383 493Q383 527 371 556T338 606T289 639T226 651Q192 651 164 639T114 606T81 556T69 493Q69 459 81 430T114 380T163 346T226 334ZM159 388Q152 388 152 395V593Q152 600 159 600H239Q274 600 293 584T312 537Q312 515 301 500T270 478L313 395Q316 388 309 388H281Q275 388 272 395L232 473H194Q190 473 190 469V395Q190 388 183 388H159ZM239 507Q274 507 274 537Q274 566 239 566H194Q190 566 190 562V511Q190 507 194 507H239Z"  />
<glyph unicode="&#xAF;" horiz-adv-x="421" d="M83 601Q73 601 73 611V656Q73 666 83 666H338Q348 666 348 656V611Q348 601 338 601H83Z"  />
<glyph unicode="&#xB0;" horiz-adv-x="456" d="M228 397Q196 397 170 408T124 438T93 485T82 543Q82 574 93 601T123 647T169 678T228 689Q259 689 286 678T332 648T363 601T374 543Q374 512 363 485T333 439T286 408T228 397ZM228 449Q268 449 293 475T319 543Q319 584 294 610T228 637Q188 637 163 611T137 543Q137 502 162 476T228 449Z"  />
<glyph unicode="&#xB1;" horiz-adv-x="542" d="M243 134Q233 134 233 144V302Q233 308 227 308H71Q61 308 61 318V372Q61 382 71 382H227Q233 382 233 388V546Q233 556 243 556H299Q309 556 309 546V388Q309 382 315 382H471Q481 382 481 372V318Q481 308 471 308H315Q309 308 309 302V144Q309 134 299 134H243ZM71 0Q61 0 61 10V64Q61 74 71 74H471Q481 74 481 64V10Q481 0 471 0H71Z"  />
<glyph unicode="&#xB2;" horiz-adv-x="341" d="M52 430Q42 430 42 440V481Q42 489 49 495L198 664Q212 678 220 694T229 728Q229 752 214 767T172 782Q122 782 111 732Q109 722 100 724L55 734Q45 736 47 745Q49 761 58 778T82 810T120 834T173 843Q231 843 263 810T296 728Q296 699 285 676T252 628L130 493V491H288Q298 491 298 481V440Q298 430 288 430H52Z"  />
<glyph unicode="&#xB3;" horiz-adv-x="341" d="M172 423Q120 423 85 445T39 510Q36 520 45 522L90 534Q98 535 102 527Q110 510 127 497T170 484Q199 484 217 501T235 546Q235 574 217 591T166 608H147Q137 608 137 618V659Q137 669 147 669H162Q191 669 208 684T225 726Q225 752 210 767T166 782Q140 782 127 772T106 745Q103 736 94 738L52 748Q43 749 45 760Q53 794 83 818T168 843Q227 843 260 812T293 731Q293 705 281 683T247 645V644Q265 636 283 611T302 547Q302 490 267 457T172 423Z"  />
<glyph unicode="&#xB4;" horiz-adv-x="421" d="M135 557Q124 557 129 567L205 690Q211 700 222 700H288Q293 700 294 697T293 690L201 567Q193 557 182 557H135Z"  />
<glyph unicode="&#xB5;" horiz-adv-x="546" d="M390 0Q380 0 380 10V55H379Q365 26 334 8T259 -11Q226 -11 204 -1T168 26H166V-170Q166 -180 156 -180H92Q82 -180 82 -170V469Q82 479 92 479H156Q166 479 166 469V185Q166 129 192 98T272 67Q321 67 350 98T380 185V469Q380 479 390 479H454Q464 479 464 469V10Q464 0 454 0H390Z"  />
<glyph unicode="&#xB6;" horiz-adv-x="603" d="M451 -180Q441 -180 441 -170V600Q441 606 435 606H351Q345 606 345 600V-170Q345 -180 335 -180H281Q271 -180 271 -170V262Q226 265 190 282T128 326T89 391T75 471Q75 514 89 552T132 619T202 663T298 680H505Q515 680 515 670V-170Q515 -180 505 -180H451Z"  />
<glyph unicode="&#xB7;" horiz-adv-x="236" d="M80 212Q70 212 70 222V308Q70 318 80 318H156Q166 318 166 308V222Q166 212 156 212H80Z"  />
<glyph unicode="&#xB8;" horiz-adv-x="421" d="M157 -152Q147 -152 150 -142L207 0Q211 10 220 10H267Q277 10 274 0L228 -142Q225 -152 212 -152H157Z"  />
<glyph unicode="&#xB9;" horiz-adv-x="341" d="M173 430Q163 430 163 440V755H161L95 711Q91 709 88 710T85 717V770Q85 780 93 785L158 829Q166 836 174 836H220Q230 836 230 826V440Q230 430 220 430H173Z"  />
<glyph unicode="&#xBA;" horiz-adv-x="351" d="M175 384Q126 384 94 404T47 468Q38 495 38 536Q38 577 47 604Q61 647 93 667T175 688Q276 688 304 604Q313 577 313 536Q313 495 304 468Q276 384 175 384ZM175 447Q221 447 236 489Q242 507 242 536Q242 565 236 583Q221 625 175 625Q130 625 115 583Q109 565 109 536Q109 507 115 489Q130 447 175 447Z"  />
<glyph unicode="&#xBB;" horiz-adv-x="535" d="M295 65Q292 62 289 63T285 69V142Q285 152 294 162L393 260Q397 264 393 268L294 366Q285 376 285 386V459Q285 464 288 465T295 463L484 271Q491 264 484 257L295 65ZM80 65Q77 62 74 63T70 69V142Q70 152 79 162L178 260Q182 264 178 268L79 366Q70 376 70 386V459Q70 464 73 465T80 463L269 271Q276 264 269 257L80 65Z"  />
<glyph unicode="&#xBC;" horiz-adv-x="835" d="M182 274Q172 274 172 284V599H170L104 555Q100 553 97 554T94 561V614Q94 624 102 629L167 673Q175 680 183 680H229Q239 680 239 670V284Q239 274 229 274H182ZM644 0Q634 0 634 10V61Q634 67 628 67H466Q456 67 456 77V117Q456 125 460 133L588 396Q593 406 602 406H654Q665 406 660 396L532 129V128H628Q634 128 634 134V223Q634 233 644 233H689Q699 233 699 223V134Q699 128 705 128H731Q741 128 741 118V77Q741 67 731 67H705Q699 67 699 61V10Q699 0 689 0H644ZM179 -11Q174 -11 173 -8T174 -1L568 681Q574 691 583 691H630Q635 691 636 688T636 681L241 -1Q238 -6 235 -8T226 -11H179Z"  />
<glyph unicode="&#xBD;" horiz-adv-x="870" d="M182 274Q172 274 172 284V599H170L104 555Q100 553 97 554T94 561V614Q94 624 102 629L167 673Q175 680 183 680H229Q239 680 239 670V284Q239 274 229 274H182ZM530 0Q520 0 520 10V51Q520 59 527 65L676 234Q690 248 698 264T707 298Q707 322 692 337T650 352Q600 352 589 302Q587 292 578 294L533 304Q523 306 525 315Q527 331 536 348T560 380T598 404T651 413Q709 413 741 380T774 298Q774 269 763 246T730 198L608 63V61H766Q776 61 776 51V10Q776 0 766 0H530ZM179 -11Q174 -11 173 -8T174 -1L568 681Q574 691 583 691H630Q635 691 636 688T636 681L241 -1Q238 -6 235 -8T226 -11H179Z"  />
<glyph unicode="&#xBE;" horiz-adv-x="906" d="M715 0Q705 0 705 10V61Q705 67 699 67H537Q527 67 527 77V117Q527 125 531 133L659 396Q664 406 673 406H725Q736 406 731 396L603 129V128H699Q705 128 705 134V223Q705 233 715 233H760Q770 233 770 223V134Q770 128 776 128H802Q812 128 812 118V77Q812 67 802 67H776Q770 67 770 61V10Q770 0 760 0H715ZM251 -11Q246 -11 245 -8T246 -1L640 681Q646 691 655 691H702Q707 691 708 688T708 681L313 -1Q310 -6 307 -8T298 -11H251ZM228 267Q176 267 141 289T95 354Q92 364 101 366L146 378Q154 379 158 371Q166 354 183 341T226 328Q255 328 273 345T291 390Q291 418 273 435T222 452H203Q193 452 193 462V503Q193 513 203 513H218Q247 513 264 528T281 570Q281 596 266 611T222 626Q196 626 183 616T162 589Q159 580 150 582L108 592Q99 593 101 604Q109 638 139 662T224 687Q283 687 316 656T349 575Q349 549 337 527T303 489V488Q321 480 339 455T358 391Q358 334 323 301T228 267Z"  />
<glyph unicode="&#xBF;" horiz-adv-x="456" d="M266 297Q276 297 276 287V246Q276 216 269 197T246 156L179 64Q153 28 143 6T132 -41Q132 -84 159 -109T229 -134Q271 -134 297 -110T333 -39Q335 -29 344 -31L407 -42Q417 -44 415 -53Q404 -125 355 -168T227 -212Q186 -212 153 -200T96 -165T59 -111T46 -42Q46 -6 58 23T97 88L164 180Q171 190 176 198T184 215T188 232T190 255V287Q190 297 200 297H266ZM281 383Q281 373 271 373H195Q185 373 185 383V469Q185 479 195 479H271Q281 479 281 469V383Z"  />
<glyph unicode="&#xC0;" horiz-adv-x="607" d="M260 670Q263 680 272 680H337Q347 680 350 670L583 10Q586 0 576 0H506Q496 0 493 10L441 158H166L114 10Q110 0 101 0H31Q21 0 24 10L260 670ZM412 240L305 549H303L195 240H412ZM277 762Q271 762 268 763T259 771L152 878Q148 882 149 885T156 888H226Q237 888 245 878L330 772Q334 768 333 765T326 762H277Z"  />
<glyph unicode="&#xC1;" horiz-adv-x="607" d="M260 670Q263 680 272 680H337Q347 680 350 670L583 10Q586 0 576 0H506Q496 0 493 10L441 158H166L114 10Q110 0 101 0H31Q21 0 24 10L260 670ZM412 240L305 549H303L195 240H412ZM281 762Q276 762 275 765T277 772L363 878Q367 883 370 885T381 888H451Q456 888 457 885T456 878L349 771Q344 765 340 764T331 762H281Z"  />
<glyph unicode="&#xC2;" horiz-adv-x="607" d="M260 670Q263 680 272 680H337Q347 680 350 670L583 10Q586 0 576 0H506Q496 0 493 10L441 158H166L114 10Q110 0 101 0H31Q21 0 24 10L260 670ZM412 240L305 549H303L195 240H412ZM386 754Q376 754 367 764L304 834H302L238 764Q233 758 230 756T219 754H174Q169 754 168 757T170 764L265 887Q272 897 281 897H324Q333 897 340 887L435 764Q438 760 437 757T431 754H386Z"  />
<glyph unicode="&#xC3;" horiz-adv-x="607" d="M260 670Q263 680 272 680H337Q347 680 350 670L583 10Q586 0 576 0H506Q496 0 493 10L441 158H166L114 10Q110 0 101 0H31Q21 0 24 10L260 670ZM412 240L305 549H303L195 240H412ZM358 767Q340 767 326 773T295 788Q281 796 269 801T242 806Q222 806 208 797T179 774Q176 771 174 772T171 776V824Q171 830 172 833T178 842Q192 856 209 865T246 874Q265 874 279 868T309 854Q323 846 335 841T362 836Q382 836 396 845T425 868Q428 871 430 870T433 865V817Q433 812 432 809T426 800Q412 786 395 777T358 767Z"  />
<glyph unicode="&#xC4;" horiz-adv-x="607" d="M260 670Q263 680 272 680H337Q347 680 350 670L583 10Q586 0 576 0H506Q496 0 493 10L441 158H166L114 10Q110 0 101 0H31Q21 0 24 10L260 670ZM412 240L305 549H303L195 240H412ZM374 777Q364 777 364 787V859Q364 869 374 869H430Q440 869 440 859V787Q440 777 430 777H374ZM174 777Q164 777 164 787V859Q164 869 174 869H230Q240 869 240 859V787Q240 777 230 777H174Z"  />
<glyph unicode="&#xC5;" horiz-adv-x="607" d="M260 670Q263 680 272 680H337Q347 680 350 670L583 10Q586 0 576 0H506Q496 0 493 10L441 158H166L114 10Q110 0 101 0H31Q21 0 24 10L260 670ZM412 240L305 549H303L195 240H412ZM303 729Q263 729 236 755T208 823Q208 864 235 890T303 917Q343 917 370 891T398 823Q398 782 371 756T303 729ZM303 770Q325 770 339 785T354 823Q354 846 340 861T303 876Q281 876 267 861T252 823Q252 800 266 785T303 770Z"  />
<glyph unicode="&#xC6;" horiz-adv-x="933" d="M464 0Q454 0 454 10V152Q454 158 448 158H207L125 10Q119 0 111 0H31Q20 0 25 10L394 671Q398 680 408 680H872Q882 680 882 670V607Q882 597 872 597H549Q543 597 543 591V391Q543 385 549 385H824Q834 385 834 375V312Q834 302 824 302H549Q543 302 543 296V89Q543 83 549 83H872Q882 83 882 73V10Q882 0 872 0H464ZM253 240H448Q454 240 454 246V596H452L253 240Z"  />
<glyph unicode="&#xC7;" horiz-adv-x="566" d="M220 -152Q210 -152 213 -142L266 -9Q197 1 149 38T78 149Q73 164 70 179T64 216T61 268T60 340Q60 382 61 412T64 463T69 500T78 531Q104 612 162 651T304 691Q380 691 436 656T522 554Q525 545 518 541L458 512Q448 507 444 517Q424 557 391 582T304 608Q248 608 214 582T163 508Q160 497 158 485T154 454T151 408T150 340Q150 300 151 273T153 227T157 195T163 172Q180 124 214 98T304 72Q358 72 391 97T444 163Q448 173 458 168L518 139Q525 135 522 126Q496 69 448 34T334 -10L291 -142Q288 -152 275 -152H220Z"  />
<glyph unicode="&#xC8;" horiz-adv-x="563" d="M292 762Q286 762 283 763T274 771L167 878Q163 882 164 885T171 888H241Q252 888 260 878L345 772Q349 768 348 765T341 762H292ZM84 670Q84 680 94 680H503Q513 680 513 670V607Q513 597 503 597H179Q173 597 173 591V391Q173 385 179 385H454Q464 385 464 375V312Q464 302 454 302H179Q173 302 173 296V89Q173 83 179 83H503Q513 83 513 73V10Q513 0 503 0H94Q84 0 84 10V670Z"  />
<glyph unicode="&#xC9;" horiz-adv-x="563" d="M245 762Q240 762 239 765T241 772L327 878Q331 883 334 885T345 888H415Q420 888 421 885T420 878L313 771Q308 765 304 764T295 762H245ZM84 670Q84 680 94 680H503Q513 680 513 670V607Q513 597 503 597H179Q173 597 173 591V391Q173 385 179 385H454Q464 385 464 375V312Q464 302 454 302H179Q173 302 173 296V89Q173 83 179 83H503Q513 83 513 73V10Q513 0 503 0H94Q84 0 84 10V670Z"  />
<glyph unicode="&#xCA;" horiz-adv-x="563" d="M84 670Q84 680 94 680H503Q513 680 513 670V607Q513 597 503 597H179Q173 597 173 591V391Q173 385 179 385H454Q464 385 464 375V312Q464 302 454 302H179Q173 302 173 296V89Q173 83 179 83H503Q513 83 513 73V10Q513 0 503 0H94Q84 0 84 10V670ZM382 754Q372 754 363 764L300 834H298L234 764Q229 758 226 756T215 754H170Q165 754 164 757T166 764L261 887Q268 897 277 897H320Q329 897 336 887L431 764Q434 760 433 757T427 754H382Z"  />
<glyph unicode="&#xCB;" horiz-adv-x="563" d="M367 777Q357 777 357 787V859Q357 869 367 869H423Q433 869 433 859V787Q433 777 423 777H367ZM167 777Q157 777 157 787V859Q157 869 167 869H223Q233 869 233 859V787Q233 777 223 777H167ZM84 670Q84 680 94 680H503Q513 680 513 670V607Q513 597 503 597H179Q173 597 173 591V391Q173 385 179 385H454Q464 385 464 375V312Q464 302 454 302H179Q173 302 173 296V89Q173 83 179 83H503Q513 83 513 73V10Q513 0 503 0H94Q84 0 84 10V670Z"  />
<glyph unicode="&#xCC;" horiz-adv-x="257" d="M84 670Q84 680 94 680H163Q173 680 173 670V10Q173 0 163 0H94Q84 0 84 10V670ZM106 762Q100 762 97 763T88 771L-19 878Q-23 882 -22 885T-15 888H55Q66 888 74 878L159 772Q163 768 162 765T155 762H106Z"  />
<glyph unicode="&#xCD;" horiz-adv-x="257" d="M84 670Q84 680 94 680H163Q173 680 173 670V10Q173 0 163 0H94Q84 0 84 10V670ZM106 762Q101 762 100 765T102 772L188 878Q192 883 195 885T206 888H276Q281 888 282 885T281 878L174 771Q169 765 165 764T156 762H106Z"  />
<glyph unicode="&#xCE;" horiz-adv-x="257" d="M84 670Q84 680 94 680H163Q173 680 173 670V10Q173 0 163 0H94Q84 0 84 10V670ZM213 754Q203 754 194 764L131 834H129L65 764Q60 758 57 756T46 754H1Q-4 754 -5 757T-3 764L92 887Q99 897 108 897H151Q160 897 167 887L262 764Q265 760 264 757T258 754H213Z"  />
<glyph unicode="&#xCF;" horiz-adv-x="257" d="M84 670Q84 680 94 680H163Q173 680 173 670V10Q173 0 163 0H94Q84 0 84 10V670ZM201 777Q191 777 191 787V859Q191 869 201 869H257Q267 869 267 859V787Q267 777 257 777H201ZM1 777Q-9 777 -9 787V859Q-9 869 1 869H57Q67 869 67 859V787Q67 777 57 777H1Z"  />
<glyph unicode="&#xD0;" horiz-adv-x="622" d="M94 0Q84 0 84 10V302Q84 308 78 308H46Q36 308 36 318V370Q36 380 46 380H78Q84 380 84 386V670Q84 680 94 680H323Q498 680 545 535Q549 521 552 506T558 469T562 416T563 340Q563 295 562 264T559 211T553 174T545 145Q498 0 323 0H94ZM304 83Q366 83 404 104T459 176Q462 185 465 197T469 227T472 273T473 340Q473 380 472 407T470 452T465 483T459 504Q442 554 404 575T304 597H179Q173 597 173 591V386Q173 380 179 380H292Q302 380 302 370V318Q302 308 292 308H179Q173 308 173 302V89Q173 83 179 83H304Z"  />
<glyph unicode="&#xD1;" horiz-adv-x="654" d="M382 767Q364 767 350 773T319 788Q305 796 293 801T266 806Q246 806 232 797T203 774Q200 771 198 772T195 776V824Q195 830 196 833T202 842Q216 856 233 865T270 874Q289 874 303 868T333 854Q347 846 359 841T386 836Q406 836 420 845T449 868Q452 871 454 870T457 865V817Q457 812 456 809T450 800Q436 786 419 777T382 767ZM84 670Q84 680 94 680H158Q170 680 175 670L483 160H487V670Q487 680 497 680H560Q570 680 570 670V10Q570 0 560 0H496Q484 0 479 10L170 518H167V10Q167 0 157 0H94Q84 0 84 10V670Z"  />
<glyph unicode="&#xD2;" horiz-adv-x="619" d="M302 762Q296 762 293 763T284 771L177 878Q173 882 174 885T181 888H251Q262 888 270 878L355 772Q359 768 358 765T351 762H302ZM309 -11Q223 -11 164 29T78 148Q73 163 70 179T64 216T61 268T60 340Q60 382 61 412T64 463T69 501T78 532Q104 611 163 651T309 691Q396 691 455 651T541 532Q546 517 549 501T555 464T558 412T559 340Q559 298 558 268T555 217T550 179T541 148Q515 69 456 29T309 -11ZM309 72Q366 72 402 98T454 173Q457 182 459 195T464 229T468 276T469 340Q469 377 468 404T465 451T460 484T454 507Q438 556 402 582T309 608Q252 608 217 582T165 507Q162 498 160 485T155 451T151 404T150 340Q150 303 151 276T154 229T159 196T165 173Q181 124 216 98T309 72Z"  />
<glyph unicode="&#xD3;" horiz-adv-x="619" d="M267 762Q262 762 261 765T263 772L349 878Q353 883 356 885T367 888H437Q442 888 443 885T442 878L335 771Q330 765 326 764T317 762H267ZM309 -11Q223 -11 164 29T78 148Q73 163 70 179T64 216T61 268T60 340Q60 382 61 412T64 463T69 501T78 532Q104 611 163 651T309 691Q396 691 455 651T541 532Q546 517 549 501T555 464T558 412T559 340Q559 298 558 268T555 217T550 179T541 148Q515 69 456 29T309 -11ZM309 72Q366 72 402 98T454 173Q457 182 459 195T464 229T468 276T469 340Q469 377 468 404T465 451T460 484T454 507Q438 556 402 582T309 608Q252 608 217 582T165 507Q162 498 160 485T155 451T151 404T150 340Q150 303 151 276T154 229T159 196T165 173Q181 124 216 98T309 72Z"  />
<glyph unicode="&#xD4;" horiz-adv-x="619" d="M309 -11Q223 -11 164 29T78 148Q73 163 70 179T64 216T61 268T60 340Q60 382 61 412T64 463T69 501T78 532Q104 611 163 651T309 691Q396 691 455 651T541 532Q546 517 549 501T555 464T558 412T559 340Q559 298 558 268T555 217T550 179T541 148Q515 69 456 29T309 -11ZM309 72Q366 72 402 98T454 173Q457 182 459 195T464 229T468 276T469 340Q469 377 468 404T465 451T460 484T454 507Q438 556 402 582T309 608Q252 608 217 582T165 507Q162 498 160 485T155 451T151 404T150 340Q150 303 151 276T154 229T159 196T165 173Q181 124 216 98T309 72ZM392 754Q382 754 373 764L310 834H308L244 764Q239 758 236 756T225 754H180Q175 754 174 757T176 764L271 887Q278 897 287 897H330Q339 897 346 887L441 764Q444 760 443 757T437 754H392Z"  />
<glyph unicode="&#xD5;" horiz-adv-x="619" d="M364 767Q346 767 332 773T301 788Q287 796 275 801T248 806Q228 806 214 797T185 774Q182 771 180 772T177 776V824Q177 830 178 833T184 842Q198 856 215 865T252 874Q271 874 285 868T315 854Q329 846 341 841T368 836Q388 836 402 845T431 868Q434 871 436 870T439 865V817Q439 812 438 809T432 800Q418 786 401 777T364 767ZM309 -11Q223 -11 164 29T78 148Q73 163 70 179T64 216T61 268T60 340Q60 382 61 412T64 463T69 501T78 532Q104 611 163 651T309 691Q396 691 455 651T541 532Q546 517 549 501T555 464T558 412T559 340Q559 298 558 268T555 217T550 179T541 148Q515 69 456 29T309 -11ZM309 72Q366 72 402 98T454 173Q457 182 459 195T464 229T468 276T469 340Q469 377 468 404T465 451T460 484T454 507Q438 556 402 582T309 608Q252 608 217 582T165 507Q162 498 160 485T155 451T151 404T150 340Q150 303 151 276T154 229T159 196T165 173Q181 124 216 98T309 72Z"  />
<glyph unicode="&#xD6;" horiz-adv-x="619" d="M381 777Q371 777 371 787V859Q371 869 381 869H437Q447 869 447 859V787Q447 777 437 777H381ZM181 777Q171 777 171 787V859Q171 869 181 869H237Q247 869 247 859V787Q247 777 237 777H181ZM309 -11Q223 -11 164 29T78 148Q73 163 70 179T64 216T61 268T60 340Q60 382 61 412T64 463T69 501T78 532Q104 611 163 651T309 691Q396 691 455 651T541 532Q546 517 549 501T555 464T558 412T559 340Q559 298 558 268T555 217T550 179T541 148Q515 69 456 29T309 -11ZM309 72Q366 72 402 98T454 173Q457 182 459 195T464 229T468 276T469 340Q469 377 468 404T465 451T460 484T454 507Q438 556 402 582T309 608Q252 608 217 582T165 507Q162 498 160 485T155 451T151 404T150 340Q150 303 151 276T154 229T159 196T165 173Q181 124 216 98T309 72Z"  />
<glyph unicode="&#xD7;" horiz-adv-x="542" d="M412 97Q405 90 398 97L275 218Q271 222 267 218L145 97Q138 90 131 97L93 136Q86 143 93 150L215 272Q219 276 215 280L93 402Q86 409 93 416L131 455Q138 462 145 455L267 334Q271 329 276 334L398 455Q405 462 412 455L449 416Q456 409 449 402L327 281Q322 276 327 272L449 150Q456 143 449 136L412 97Z"  />
<glyph unicode="&#xD8;" horiz-adv-x="619" d="M71 -30Q66 -30 65 -27T65 -20L118 71Q94 101 78 148Q73 163 70 179T64 216T61 268T60 340Q60 382 61 412T64 463T69 501T78 532Q104 611 163 651T309 691Q398 691 458 649L488 701Q493 710 503 710H548Q553 710 554 707T553 700L500 609Q513 592 523 574T541 532Q546 517 549 501T555 464T558 412T559 340Q559 298 558 268T555 217T550 179T541 148Q515 69 456 29T309 -11Q219 -11 161 31L131 -21Q126 -30 116 -30H71ZM150 340Q150 305 150 278T153 230T159 191T170 157L412 574Q372 608 309 608Q252 608 217 582T165 507Q162 498 160 485T155 451T151 404T150 340ZM309 72Q366 72 402 98T454 173Q457 182 459 195T464 229T468 276T469 340Q469 380 468 408T465 456T459 491T448 522L206 106Q246 72 309 72Z"  />
<glyph unicode="&#xD9;" horiz-adv-x="639" d="M310 762Q304 762 301 763T292 771L185 878Q181 882 182 885T189 888H259Q270 888 278 878L363 772Q367 768 366 765T359 762H310ZM320 -11Q207 -11 143 52T79 237V670Q79 680 89 680H158Q168 680 168 670V238Q168 155 209 114T320 72Q388 72 429 113T471 238V670Q471 680 481 680H550Q560 680 560 670V237Q560 116 496 53T320 -11Z"  />
<glyph unicode="&#xDA;" horiz-adv-x="639" d="M279 762Q274 762 273 765T275 772L361 878Q365 883 368 885T379 888H449Q454 888 455 885T454 878L347 771Q342 765 338 764T329 762H279ZM320 -11Q207 -11 143 52T79 237V670Q79 680 89 680H158Q168 680 168 670V238Q168 155 209 114T320 72Q388 72 429 113T471 238V670Q471 680 481 680H550Q560 680 560 670V237Q560 116 496 53T320 -11Z"  />
<glyph unicode="&#xDB;" horiz-adv-x="639" d="M320 -11Q207 -11 143 52T79 237V670Q79 680 89 680H158Q168 680 168 670V238Q168 155 209 114T320 72Q388 72 429 113T471 238V670Q471 680 481 680H550Q560 680 560 670V237Q560 116 496 53T320 -11ZM402 754Q392 754 383 764L320 834H318L254 764Q249 758 246 756T235 754H190Q185 754 184 757T186 764L281 887Q288 897 297 897H340Q349 897 356 887L451 764Q454 760 453 757T447 754H402Z"  />
<glyph unicode="&#xDC;" horiz-adv-x="639" d="M391 777Q381 777 381 787V859Q381 869 391 869H447Q457 869 457 859V787Q457 777 447 777H391ZM191 777Q181 777 181 787V859Q181 869 191 869H247Q257 869 257 859V787Q257 777 247 777H191ZM320 -11Q207 -11 143 52T79 237V670Q79 680 89 680H158Q168 680 168 670V238Q168 155 209 114T320 72Q388 72 429 113T471 238V670Q471 680 481 680H550Q560 680 560 670V237Q560 116 496 53T320 -11Z"  />
<glyph unicode="&#xDD;" horiz-adv-x="526" d="M229 0Q219 0 219 10V278L18 669Q14 680 26 680H97Q106 680 112 670L264 379H266L417 670Q421 680 431 680H500Q512 680 508 669L307 278V10Q307 0 297 0H229ZM230 762Q225 762 224 765T226 772L312 878Q316 883 319 885T330 888H400Q405 888 406 885T405 878L298 771Q293 765 289 764T280 762H230Z"  />
<glyph unicode="&#xDE;" horiz-adv-x="592" d="M94 0Q84 0 84 10V670Q84 680 94 680H163Q173 680 173 670V560Q173 554 179 554H336Q385 554 425 540T493 499T536 435T552 351Q552 305 537 268T493 204T425 163T336 148H179Q173 148 173 142V10Q173 0 163 0H94ZM331 231Q394 231 429 263T464 351Q464 407 429 439T331 471H179Q173 471 173 465V237Q173 231 179 231H331Z"  />
<glyph unicode="&#xDF;" horiz-adv-x="539" d="M283 -4Q273 -4 273 6V64Q273 74 283 74H303Q339 74 360 85T392 125Q393 130 394 136T396 153T397 180T398 223Q398 248 398 264T397 292T395 311T391 325Q381 354 357 367T294 380H283Q273 380 273 390V448Q273 458 283 458H303Q348 458 369 476T390 535Q390 573 363 593T283 614Q220 614 193 586T166 495V10Q166 0 156 0H92Q82 0 82 10V492Q82 539 93 576T128 638T189 677T281 691Q376 691 425 651T474 535Q474 457 411 423V421Q432 411 447 395T472 353Q475 343 477 333T480 308T482 273T483 223Q483 193 482 172T480 135T476 110T471 90Q454 39 413 18T305 -4H283Z"  />
<glyph unicode="&#xE0;" horiz-adv-x="519" d="M372 0Q362 0 362 10V52H361Q344 25 309 7T219 -11Q185 -11 156 -2T105 25T71 70T58 133Q58 209 107 245T245 281H354Q360 281 360 287V322Q360 372 336 394T245 416Q204 416 177 407T129 382Q120 375 115 383L88 429Q84 437 90 443Q117 464 158 477T253 490Q355 490 398 453T441 327V10Q441 0 431 0H372ZM239 61Q296 61 328 85T360 155V208Q360 214 354 214H258Q195 214 167 196T139 136Q139 99 165 80T239 61ZM269 557Q257 557 250 567L158 690Q155 694 156 697T163 700H229Q241 700 247 690L322 567Q327 557 316 557H269Z"  />
<glyph unicode="&#xE1;" horiz-adv-x="519" d="M372 0Q362 0 362 10V52H361Q344 25 309 7T219 -11Q185 -11 156 -2T105 25T71 70T58 133Q58 209 107 245T245 281H354Q360 281 360 287V322Q360 372 336 394T245 416Q204 416 177 407T129 382Q120 375 115 383L88 429Q84 437 90 443Q117 464 158 477T253 490Q355 490 398 453T441 327V10Q441 0 431 0H372ZM239 61Q296 61 328 85T360 155V208Q360 214 354 214H258Q195 214 167 196T139 136Q139 99 165 80T239 61ZM225 557Q214 557 219 567L295 690Q301 700 312 700H378Q383 700 384 697T383 690L291 567Q283 557 272 557H225Z"  />
<glyph unicode="&#xE2;" horiz-adv-x="519" d="M372 0Q362 0 362 10V52H361Q344 25 309 7T219 -11Q185 -11 156 -2T105 25T71 70T58 133Q58 209 107 245T245 281H354Q360 281 360 287V322Q360 372 336 394T245 416Q204 416 177 407T129 382Q120 375 115 383L88 429Q84 437 90 443Q117 464 158 477T253 490Q355 490 398 453T441 327V10Q441 0 431 0H372ZM239 61Q296 61 328 85T360 155V208Q360 214 354 214H258Q195 214 167 196T139 136Q139 99 165 80T239 61ZM342 557Q332 557 323 567L260 637H258L194 567Q189 561 186 559T175 557H130Q125 557 124 560T126 567L221 690Q228 700 237 700H280Q289 700 296 690L391 567Q394 563 393 560T387 557H342Z"  />
<glyph unicode="&#xE3;" horiz-adv-x="519" d="M372 0Q362 0 362 10V52H361Q344 25 309 7T219 -11Q185 -11 156 -2T105 25T71 70T58 133Q58 209 107 245T245 281H354Q360 281 360 287V322Q360 372 336 394T245 416Q204 416 177 407T129 382Q120 375 115 383L88 429Q84 437 90 443Q117 464 158 477T253 490Q355 490 398 453T441 327V10Q441 0 431 0H372ZM239 61Q296 61 328 85T360 155V208Q360 214 354 214H258Q195 214 167 196T139 136Q139 99 165 80T239 61ZM314 576Q296 576 282 582T251 597Q237 605 225 610T198 615Q178 615 164 606T135 583Q132 580 130 581T127 585V633Q127 638 128 642T134 651Q148 665 165 674T202 683Q221 683 235 677T265 662Q279 654 291 649T318 644Q338 644 352 653T381 676Q384 679 386 678T389 674V626Q389 621 388 617T382 608Q368 594 351 585T314 576Z"  />
<glyph unicode="&#xE4;" horiz-adv-x="519" d="M372 0Q362 0 362 10V52H361Q344 25 309 7T219 -11Q185 -11 156 -2T105 25T71 70T58 133Q58 209 107 245T245 281H354Q360 281 360 287V322Q360 372 336 394T245 416Q204 416 177 407T129 382Q120 375 115 383L88 429Q84 437 90 443Q117 464 158 477T253 490Q355 490 398 453T441 327V10Q441 0 431 0H372ZM239 61Q296 61 328 85T360 155V208Q360 214 354 214H258Q195 214 167 196T139 136Q139 99 165 80T239 61ZM327 587Q317 587 317 597V670Q317 680 327 680H386Q396 680 396 670V597Q396 587 386 587H327ZM130 587Q120 587 120 597V670Q120 680 130 680H189Q199 680 199 670V597Q199 587 189 587H130Z"  />
<glyph unicode="&#xE5;" horiz-adv-x="519" d="M372 0Q362 0 362 10V52H361Q344 25 309 7T219 -11Q185 -11 156 -2T105 25T71 70T58 133Q58 209 107 245T245 281H354Q360 281 360 287V322Q360 372 336 394T245 416Q204 416 177 407T129 382Q120 375 115 383L88 429Q84 437 90 443Q117 464 158 477T253 490Q355 490 398 453T441 327V10Q441 0 431 0H372ZM239 61Q296 61 328 85T360 155V208Q360 214 354 214H258Q195 214 167 196T139 136Q139 99 165 80T239 61ZM263 535Q223 535 196 561T168 629Q168 670 195 696T263 723Q303 723 330 697T358 629Q358 588 331 562T263 535ZM263 576Q285 576 299 591T314 629Q314 652 300 667T263 682Q241 682 227 667T212 629Q212 606 226 591T263 576Z"  />
<glyph unicode="&#xE6;" horiz-adv-x="814" d="M563 -11Q502 -11 461 12T397 73H396Q375 31 330 10T219 -11Q185 -11 156 -2T105 25T71 70T58 133Q58 209 107 245T245 281H354Q360 281 360 287V322Q360 372 336 394T245 416Q204 416 177 407T129 382Q120 375 115 383L88 429Q84 437 90 443Q117 464 158 477T253 490Q313 490 354 475T412 426H414Q437 458 474 474T558 490Q628 490 677 457T746 361Q750 349 752 337T757 308T760 272T761 224Q761 214 750 214H447Q441 214 441 208Q441 188 443 175T449 150Q463 108 494 88T570 67Q613 67 643 82T693 120Q701 128 708 122L749 85Q756 79 750 71Q721 35 674 12T563 -11ZM669 281Q675 281 675 287Q675 320 668 341Q656 377 628 396T558 416Q517 416 489 397T448 341Q441 320 441 287Q441 281 447 281H669ZM239 61Q296 61 328 85T360 155V208Q360 214 354 214H258Q195 214 167 196T139 136Q139 99 165 80T239 61Z"  />
<glyph unicode="&#xE7;" horiz-adv-x="472" d="M173 -152Q163 -152 166 -142L219 -8Q165 0 125 32T68 118Q61 140 57 169T53 240Q53 280 57 309T68 361Q88 424 138 457T257 490Q312 490 353 469T421 409Q426 401 418 395L374 359Q366 353 360 360Q339 386 316 399T257 412Q218 412 190 394T150 337Q144 318 142 295T139 240Q139 208 141 185T150 142Q162 104 190 86T257 67Q293 67 316 80T360 119Q366 126 374 120L418 84Q426 78 421 70Q398 38 365 18T287 -9L244 -142Q241 -152 228 -152H173Z"  />
<glyph unicode="&#xE8;" horiz-adv-x="512" d="M261 -11Q188 -11 139 22T69 119Q61 142 57 170T53 240Q53 282 56 310T68 361Q88 424 137 457T256 490Q325 490 374 457T444 361Q448 349 450 337T455 308T458 272T459 224Q459 214 448 214H145Q139 214 139 208Q139 188 141 175T147 150Q161 108 192 88T268 67Q311 67 341 82T391 120Q399 128 406 122L447 85Q454 79 448 71Q419 35 372 12T261 -11ZM367 281Q373 281 373 287Q373 320 366 341Q354 377 326 396T256 416Q215 416 187 397T146 341Q139 320 139 287Q139 281 145 281H367ZM250 557Q238 557 231 567L139 690Q136 694 137 697T144 700H210Q222 700 228 690L303 567Q308 557 297 557H250Z"  />
<glyph unicode="&#xE9;" horiz-adv-x="512" d="M218 557Q207 557 212 567L288 690Q294 700 305 700H371Q376 700 377 697T376 690L284 567Q276 557 265 557H218ZM261 -11Q188 -11 139 22T69 119Q61 142 57 170T53 240Q53 282 56 310T68 361Q88 424 137 457T256 490Q325 490 374 457T444 361Q448 349 450 337T455 308T458 272T459 224Q459 214 448 214H145Q139 214 139 208Q139 188 141 175T147 150Q161 108 192 88T268 67Q311 67 341 82T391 120Q399 128 406 122L447 85Q454 79 448 71Q419 35 372 12T261 -11ZM367 281Q373 281 373 287Q373 320 366 341Q354 377 326 396T256 416Q215 416 187 397T146 341Q139 320 139 287Q139 281 145 281H367Z"  />
<glyph unicode="&#xEA;" horiz-adv-x="512" d="M339 557Q329 557 320 567L257 637H255L191 567Q186 561 183 559T172 557H127Q122 557 121 560T123 567L218 690Q225 700 234 700H277Q286 700 293 690L388 567Q391 563 390 560T384 557H339ZM261 -11Q188 -11 139 22T69 119Q61 142 57 170T53 240Q53 282 56 310T68 361Q88 424 137 457T256 490Q325 490 374 457T444 361Q448 349 450 337T455 308T458 272T459 224Q459 214 448 214H145Q139 214 139 208Q139 188 141 175T147 150Q161 108 192 88T268 67Q311 67 341 82T391 120Q399 128 406 122L447 85Q454 79 448 71Q419 35 372 12T261 -11ZM367 281Q373 281 373 287Q373 320 366 341Q354 377 326 396T256 416Q215 416 187 397T146 341Q139 320 139 287Q139 281 145 281H367Z"  />
<glyph unicode="&#xEB;" horiz-adv-x="512" d="M324 587Q314 587 314 597V670Q314 680 324 680H383Q393 680 393 670V597Q393 587 383 587H324ZM127 587Q117 587 117 597V670Q117 680 127 680H186Q196 680 196 670V597Q196 587 186 587H127ZM261 -11Q188 -11 139 22T69 119Q61 142 57 170T53 240Q53 282 56 310T68 361Q88 424 137 457T256 490Q325 490 374 457T444 361Q448 349 450 337T455 308T458 272T459 224Q459 214 448 214H145Q139 214 139 208Q139 188 141 175T147 150Q161 108 192 88T268 67Q311 67 341 82T391 120Q399 128 406 122L447 85Q454 79 448 71Q419 35 372 12T261 -11ZM367 281Q373 281 373 287Q373 320 366 341Q354 377 326 396T256 416Q215 416 187 397T146 341Q139 320 139 287Q139 281 145 281H367Z"  />
<glyph unicode="&#xEC;" horiz-adv-x="248" d="M92 0Q82 0 82 10V469Q82 479 92 479H156Q166 479 166 469V10Q166 0 156 0H92ZM104 557Q92 557 85 567L-7 690Q-10 694 -9 697T-2 700H64Q76 700 82 690L157 567Q162 557 151 557H104Z"  />
<glyph unicode="&#xED;" horiz-adv-x="248" d="M100 557Q89 557 94 567L170 690Q176 700 187 700H253Q258 700 259 697T258 690L166 567Q158 557 147 557H100ZM92 0Q82 0 82 10V469Q82 479 92 479H156Q166 479 166 469V10Q166 0 156 0H92Z"  />
<glyph unicode="&#xEE;" horiz-adv-x="248" d="M208 557Q198 557 189 567L126 637H124L60 567Q55 561 52 559T41 557H-4Q-9 557 -10 560T-8 567L87 690Q94 700 103 700H146Q155 700 162 690L257 567Q260 563 259 560T253 557H208ZM92 0Q82 0 82 10V469Q82 479 92 479H156Q166 479 166 469V10Q166 0 156 0H92Z"  />
<glyph unicode="&#xEF;" horiz-adv-x="248" d="M193 587Q183 587 183 597V670Q183 680 193 680H252Q262 680 262 670V597Q262 587 252 587H193ZM-4 587Q-14 587 -14 597V670Q-14 680 -4 680H55Q65 680 65 670V597Q65 587 55 587H-4ZM92 0Q82 0 82 10V469Q82 479 92 479H156Q166 479 166 469V10Q166 0 156 0H92Z"  />
<glyph unicode="&#xF0;" horiz-adv-x="516" d="M258 -11Q188 -11 139 22T69 118Q62 140 58 167T53 229Q53 262 57 291T68 342Q88 401 131 433T235 466Q258 466 276 461T313 443H314L238 543L144 514Q134 511 131 521L119 563Q116 573 126 576L197 597L142 670Q139 674 140 677T147 680H219Q230 680 237 670L275 621L368 649Q378 652 381 643L393 600Q396 591 386 588L316 566L345 528Q406 448 434 380T463 242Q463 197 459 169T447 118Q427 56 378 23T258 -11ZM258 67Q340 67 366 142Q372 160 374 181T377 229Q377 256 375 277T366 316Q353 353 328 372T258 391Q176 391 150 316Q144 298 142 277T139 229Q139 202 141 181T150 142Q176 67 258 67Z"  />
<glyph unicode="&#xF1;" horiz-adv-x="544" d="M393 0Q383 0 383 10V290Q383 348 357 380T276 412Q227 412 197 381T166 295V10Q166 0 156 0H92Q82 0 82 10V469Q82 479 92 479H156Q166 479 166 469V425H167Q184 453 218 471T301 490Q379 490 423 441T467 310V10Q467 0 457 0H393ZM327 576Q309 576 295 582T264 597Q250 605 238 610T211 615Q191 615 177 606T148 583Q145 580 143 581T140 585V633Q140 638 141 642T147 651Q161 665 178 674T215 683Q234 683 248 677T278 662Q292 654 304 649T331 644Q351 644 365 653T394 676Q397 679 399 678T402 674V626Q402 621 401 617T395 608Q381 594 364 585T327 576Z"  />
<glyph unicode="&#xF2;" horiz-adv-x="516" d="M258 -11Q188 -11 139 23T69 118Q61 143 57 170T53 240Q53 282 57 309T69 361Q89 423 138 456T258 490Q328 490 377 457T447 361Q455 336 459 309T463 240Q463 198 459 171T447 118Q427 57 378 23T258 -11ZM258 67Q298 67 326 86T366 142Q372 162 374 183T377 240Q377 275 375 296T366 337Q354 373 326 392T258 412Q218 412 190 393T150 337Q144 317 142 296T139 240Q139 205 141 184T150 142Q162 106 190 87T258 67ZM247 557Q235 557 228 567L136 690Q133 694 134 697T141 700H207Q219 700 225 690L300 567Q305 557 294 557H247Z"  />
<glyph unicode="&#xF3;" horiz-adv-x="516" d="M222 557Q211 557 216 567L292 690Q298 700 309 700H375Q380 700 381 697T380 690L288 567Q280 557 269 557H222ZM258 -11Q188 -11 139 23T69 118Q61 143 57 170T53 240Q53 282 57 309T69 361Q89 423 138 456T258 490Q328 490 377 457T447 361Q455 336 459 309T463 240Q463 198 459 171T447 118Q427 57 378 23T258 -11ZM258 67Q298 67 326 86T366 142Q372 162 374 183T377 240Q377 275 375 296T366 337Q354 373 326 392T258 412Q218 412 190 393T150 337Q144 317 142 296T139 240Q139 205 141 184T150 142Q162 106 190 87T258 67Z"  />
<glyph unicode="&#xF4;" horiz-adv-x="516" d="M341 557Q331 557 322 567L259 637H257L193 567Q188 561 185 559T174 557H129Q124 557 123 560T125 567L220 690Q227 700 236 700H279Q288 700 295 690L390 567Q393 563 392 560T386 557H341ZM258 -11Q188 -11 139 23T69 118Q61 143 57 170T53 240Q53 282 57 309T69 361Q89 423 138 456T258 490Q328 490 377 457T447 361Q455 336 459 309T463 240Q463 198 459 171T447 118Q427 57 378 23T258 -11ZM258 67Q298 67 326 86T366 142Q372 162 374 183T377 240Q377 275 375 296T366 337Q354 373 326 392T258 412Q218 412 190 393T150 337Q144 317 142 296T139 240Q139 205 141 184T150 142Q162 106 190 87T258 67Z"  />
<glyph unicode="&#xF5;" horiz-adv-x="516" d="M258 -11Q188 -11 139 23T69 118Q61 143 57 170T53 240Q53 282 57 309T69 361Q89 423 138 456T258 490Q328 490 377 457T447 361Q455 336 459 309T463 240Q463 198 459 171T447 118Q427 57 378 23T258 -11ZM258 67Q298 67 326 86T366 142Q372 162 374 183T377 240Q377 275 375 296T366 337Q354 373 326 392T258 412Q218 412 190 393T150 337Q144 317 142 296T139 240Q139 205 141 184T150 142Q162 106 190 87T258 67ZM313 576Q295 576 281 582T250 597Q236 605 224 610T197 615Q177 615 163 606T134 583Q131 580 129 581T126 585V633Q126 638 127 642T133 651Q147 665 164 674T201 683Q220 683 234 677T264 662Q278 654 290 649T317 644Q337 644 351 653T380 676Q383 679 385 678T388 674V626Q388 621 387 617T381 608Q367 594 350 585T313 576Z"  />
<glyph unicode="&#xF6;" horiz-adv-x="516" d="M326 587Q316 587 316 597V670Q316 680 326 680H385Q395 680 395 670V597Q395 587 385 587H326ZM129 587Q119 587 119 597V670Q119 680 129 680H188Q198 680 198 670V597Q198 587 188 587H129ZM258 -11Q188 -11 139 23T69 118Q61 143 57 170T53 240Q53 282 57 309T69 361Q89 423 138 456T258 490Q328 490 377 457T447 361Q455 336 459 309T463 240Q463 198 459 171T447 118Q427 57 378 23T258 -11ZM258 67Q298 67 326 86T366 142Q372 162 374 183T377 240Q377 275 375 296T366 337Q354 373 326 392T258 412Q218 412 190 393T150 337Q144 317 142 296T139 240Q139 205 141 184T150 142Q162 106 190 87T258 67Z"  />
<glyph unicode="&#xF7;" horiz-adv-x="542" d="M215 438Q215 461 231 477T271 494Q294 494 310 478T327 438Q327 415 311 399T271 382Q248 382 232 398T215 438ZM71 239Q61 239 61 249V303Q61 313 71 313H471Q481 313 481 303V249Q481 239 471 239H71ZM215 114Q215 137 231 153T271 170Q294 170 310 154T327 114Q327 91 311 75T271 58Q248 58 232 74T215 114Z"  />
<glyph unicode="&#xF8;" horiz-adv-x="516" d="M258 -11Q186 -11 137 24L107 -20Q100 -30 89 -30H60Q55 -30 54 -27T55 -20L104 53Q81 81 69 118Q61 143 57 170T53 240Q53 282 57 309T69 361Q89 423 138 456T258 490Q329 490 379 455L409 499Q415 509 427 509H456Q461 509 462 506T461 499L412 425Q436 397 447 361Q455 336 459 309T463 240Q463 198 459 171T447 118Q427 57 378 23T258 -11ZM258 67Q298 67 326 86T367 142Q373 162 375 183T378 240Q378 278 374 303T360 353L183 91Q213 67 258 67ZM332 388Q302 412 258 412Q218 412 190 393T149 337Q143 317 141 296T138 240Q138 205 141 179T155 126L332 388Z"  />
<glyph unicode="&#xF9;" horiz-adv-x="539" d="M383 0Q373 0 373 10V55H372Q353 25 321 7T241 -11Q162 -11 119 38T75 170V469Q75 479 85 479H149Q159 479 159 469V190Q159 131 185 99T265 67Q314 67 343 99T373 185V469Q373 479 383 479H447Q457 479 457 469V10Q457 0 447 0H383ZM260 557Q248 557 241 567L149 690Q146 694 147 697T154 700H220Q232 700 238 690L313 567Q318 557 307 557H260Z"  />
<glyph unicode="&#xFA;" horiz-adv-x="539" d="M233 557Q222 557 227 567L303 690Q309 700 320 700H386Q391 700 392 697T391 690L299 567Q291 557 280 557H233ZM383 0Q373 0 373 10V55H372Q353 25 321 7T241 -11Q162 -11 119 38T75 170V469Q75 479 85 479H149Q159 479 159 469V190Q159 131 185 99T265 67Q314 67 343 99T373 185V469Q373 479 383 479H447Q457 479 457 469V10Q457 0 447 0H383Z"  />
<glyph unicode="&#xFB;" horiz-adv-x="539" d="M352 557Q342 557 333 567L270 637H268L204 567Q199 561 196 559T185 557H140Q135 557 134 560T136 567L231 690Q238 700 247 700H290Q299 700 306 690L401 567Q404 563 403 560T397 557H352ZM383 0Q373 0 373 10V55H372Q353 25 321 7T241 -11Q162 -11 119 38T75 170V469Q75 479 85 479H149Q159 479 159 469V190Q159 131 185 99T265 67Q314 67 343 99T373 185V469Q373 479 383 479H447Q457 479 457 469V10Q457 0 447 0H383Z"  />
<glyph unicode="&#xFC;" horiz-adv-x="539" d="M338 587Q328 587 328 597V670Q328 680 338 680H397Q407 680 407 670V597Q407 587 397 587H338ZM141 587Q131 587 131 597V670Q131 680 141 680H200Q210 680 210 670V597Q210 587 200 587H141ZM383 0Q373 0 373 10V55H372Q353 25 321 7T241 -11Q162 -11 119 38T75 170V469Q75 479 85 479H149Q159 479 159 469V190Q159 131 185 99T265 67Q314 67 343 99T373 185V469Q373 479 383 479H447Q457 479 457 469V10Q457 0 447 0H383Z"  />
<glyph unicode="&#xFD;" horiz-adv-x="477" d="M86 -180Q76 -180 76 -170V-112Q76 -102 86 -102H104Q133 -102 151 -87T185 -30L201 14L25 469Q22 479 33 479H103Q112 479 115 469L241 123H243L364 469Q367 479 376 479H444Q455 479 452 469L263 -37Q247 -79 232 -107T199 -151T160 -173T112 -180H86ZM207 557Q196 557 201 567L277 690Q283 700 294 700H360Q365 700 366 697T365 690L273 567Q265 557 254 557H207Z"  />
<glyph unicode="&#xFE;" horiz-adv-x="538" d="M92 -180Q82 -180 82 -170V670Q82 680 92 680H156Q166 680 166 670V424H167Q184 453 216 471T303 490Q366 490 408 461T468 375Q478 346 481 316T485 240Q485 195 482 164T468 104Q450 47 408 18T303 -11Q249 -11 217 8T167 56H166V-170Q166 -180 156 -180H92ZM283 67Q363 67 388 140Q394 159 396 183T399 240Q399 272 397 296T388 340Q363 412 283 412Q201 412 177 340Q171 322 169 299T166 240Q166 204 168 181T177 140Q201 67 283 67Z"  />
<glyph unicode="&#xFF;" horiz-adv-x="477" d="M86 -180Q76 -180 76 -170V-112Q76 -102 86 -102H104Q133 -102 151 -87T185 -30L201 14L25 469Q22 479 33 479H103Q112 479 115 469L241 123H243L364 469Q367 479 376 479H444Q455 479 452 469L263 -37Q247 -79 232 -107T199 -151T160 -173T112 -180H86ZM309 587Q299 587 299 597V670Q299 680 309 680H368Q378 680 378 670V597Q378 587 368 587H309ZM112 587Q102 587 102 597V670Q102 680 112 680H171Q181 680 181 670V597Q181 587 171 587H112Z"  />
<glyph unicode="&#x131;" horiz-adv-x="248" d="M92 0Q82 0 82 10V469Q82 479 92 479H156Q166 479 166 469V10Q166 0 156 0H92Z"  />
<glyph unicode="&#x141;" horiz-adv-x="538" d="M94 0Q84 0 84 10V274L30 247Q20 242 20 253V314Q20 323 30 328L84 355V670Q84 680 94 680H163Q173 680 173 670V398L315 471Q325 476 325 465V404Q325 395 315 390L173 317V89Q173 83 179 83H503Q513 83 513 73V10Q513 0 503 0H94Z"  />
<glyph unicode="&#x142;" horiz-adv-x="278" d="M164 340V126Q164 96 175 85T212 73H231Q241 73 241 63V5Q241 -5 231 -5H197Q134 -5 107 25T80 121V301L45 283Q35 278 35 289V343Q35 353 45 358L80 376V670Q80 680 90 680H154Q164 680 164 670V416L231 451Q241 456 241 445V390Q241 380 231 375L164 340Z"  />
<glyph unicode="&#x152;" horiz-adv-x="948" d="M479 0Q469 0 469 10V59H468Q443 24 403 7T309 -11Q223 -11 164 29T78 148Q73 163 70 179T65 216T61 268T60 340Q60 382 61 412T64 463T70 501T78 532Q104 611 163 651T309 691Q362 691 402 674T468 621H469V670Q469 680 479 680H888Q898 680 898 670V607Q898 597 888 597H564Q558 597 558 591V391Q558 385 564 385H839Q849 385 849 375V312Q849 302 839 302H564Q558 302 558 296V89Q558 83 564 83H888Q898 83 898 73V10Q898 0 888 0H479ZM309 72Q366 72 402 98T454 173Q457 182 459 195T464 229T468 276T469 340Q469 377 468 404T465 451T460 484T454 507Q438 556 402 582T309 608Q252 608 217 582T165 507Q162 498 160 485T155 451T151 404T150 340Q150 303 151 276T154 229T159 196T165 173Q181 124 216 98T309 72Z"  />
<glyph unicode="&#x153;" horiz-adv-x="835" d="M585 -11Q472 -11 421 71H420Q367 -11 258 -11Q188 -11 139 23T69 118Q61 143 57 170T53 240Q53 282 57 309T69 361Q89 423 138 456T258 490Q310 490 351 471T419 410H421Q445 451 486 470T579 490Q649 490 698 457T767 361Q771 349 774 337T779 308T782 272T783 224Q783 214 772 214H468Q462 214 462 208Q463 188 464 175T471 150Q485 108 515 88T591 67Q635 67 665 82T714 120Q722 128 729 122L770 85Q777 79 771 71Q742 35 695 12T585 -11ZM691 281Q697 281 697 287Q697 304 695 317T689 341Q677 377 649 396T579 416Q539 416 510 397T470 341Q466 330 464 317T462 287Q462 281 468 281H691ZM258 67Q298 67 326 86T366 142Q372 162 374 183T377 240Q377 275 375 296T366 337Q354 373 326 392T258 412Q218 412 190 393T150 337Q144 317 142 296T139 240Q139 205 141 184T150 142Q162 106 190 87T258 67Z"  />
<glyph unicode="&#x160;" horiz-adv-x="591" d="M290 -11Q254 -11 219 -4T153 14T96 41T51 74Q44 81 50 89L94 141Q100 148 108 142Q141 116 190 94T298 72Q369 72 408 104T448 188Q448 210 441 228T418 260T374 284T306 299L272 304Q72 331 72 492Q72 537 87 574T132 637T202 677T294 691Q354 691 408 674T501 628Q509 622 503 614L469 559Q463 552 455 557Q413 583 374 595T291 608Q228 608 195 578T162 498Q162 455 194 428T305 389L338 384Q438 370 488 324T538 194Q538 149 523 112T476 47T398 5T290 -11ZM276 751Q267 751 260 761L165 885Q162 889 163 892T169 895H214Q221 895 224 893T233 885L297 814H299L362 885Q371 895 381 895H426Q431 895 432 892T430 885L335 761Q328 751 319 751H276Z"  />
<glyph unicode="&#x161;" horiz-adv-x="490" d="M225 555Q216 555 209 565L114 689Q111 693 112 696T118 699H163Q170 699 173 697T182 689L246 618H248L311 689Q320 699 330 699H375Q380 699 381 696T379 689L284 565Q277 555 268 555H225ZM247 -11Q212 -11 182 -5T128 12T84 35T49 61Q42 68 49 75L90 119Q97 126 104 119Q131 96 169 80T252 64Q305 64 331 84T357 137Q357 165 339 181T264 204L213 209Q142 217 106 251T70 344Q70 413 116 451T248 490Q301 490 344 475T418 437Q426 432 420 423L386 380Q380 373 372 378Q349 393 315 405T243 417Q198 417 175 399T152 351Q152 322 172 307T246 286L296 281Q369 274 404 239T440 146Q440 75 391 32T247 -11Z"  />
<glyph unicode="&#x178;" horiz-adv-x="526" d="M229 0Q219 0 219 10V278L18 669Q14 680 26 680H97Q106 680 112 670L264 379H266L417 670Q421 680 431 680H500Q512 680 508 669L307 278V10Q307 0 297 0H229ZM334 777Q324 777 324 787V859Q324 869 334 869H390Q400 869 400 859V787Q400 777 390 777H334ZM134 777Q124 777 124 787V859Q124 869 134 869H190Q200 869 200 859V787Q200 777 190 777H134Z"  />
<glyph unicode="&#x17D;" horiz-adv-x="536" d="M249 752Q240 752 233 762L138 886Q135 890 136 893T142 896H187Q194 896 197 894T206 886L270 815H272L335 886Q344 896 354 896H399Q404 896 405 893T403 886L308 762Q301 752 292 752H249ZM59 0Q49 0 49 10V73Q49 79 53 84L385 596V597H71Q61 597 61 607V670Q61 680 71 680H477Q487 680 487 670V607Q487 601 483 596L150 84V83H477Q487 83 487 73V10Q487 0 477 0H59Z"  />
<glyph unicode="&#x17E;" horiz-adv-x="477" d="M219 555Q210 555 203 565L108 689Q105 693 106 696T112 699H157Q164 699 167 697T176 689L240 618H242L305 689Q314 699 324 699H369Q374 699 375 696T373 689L278 565Q271 555 262 555H219ZM65 0Q55 0 55 10V63Q55 70 59 74L322 401V403H78Q68 403 68 413V469Q68 479 78 479H412Q422 479 422 469V413Q422 407 418 402L157 78V76H412Q422 76 422 66V10Q422 0 412 0H65Z"  />
<glyph unicode="&#x192;" horiz-adv-x="542" d="M325 335L269 -27Q263 -69 251 -98T220 -145T174 -172T110 -180H86Q76 -180 76 -170V-114Q76 -104 86 -104H106Q144 -104 161 -89T187 -29L243 335H168Q158 335 158 345V392Q158 402 168 402H253L273 529Q286 609 321 644T431 680H457Q467 680 467 670V614Q467 604 457 604H435Q400 604 381 588T356 530L336 402H429Q439 402 439 392V345Q439 335 429 335H325Z"  />
<glyph unicode="&#x2C6;" horiz-adv-x="421" d="M294 557Q284 557 275 567L212 637H210L146 567Q141 561 138 559T127 557H82Q77 557 76 560T78 567L173 690Q180 700 189 700H232Q241 700 248 690L343 567Q346 563 345 560T339 557H294Z"  />
<glyph unicode="&#x2C7;" horiz-adv-x="421" d="M189 555Q180 555 173 565L78 689Q75 693 76 696T82 699H127Q134 699 137 697T146 689L210 618H212L275 689Q284 699 294 699H339Q344 699 345 696T343 689L248 565Q241 555 232 555H189Z"  />
<glyph unicode="&#x2D8;" horiz-adv-x="421" d="M211 561Q152 561 116 592T75 674Q75 684 84 684H120Q128 684 131 674Q148 622 211 622Q275 622 290 674Q293 684 302 684H337Q346 684 346 674Q341 624 305 593T211 561Z"  />
<glyph unicode="&#x2D9;" horiz-adv-x="421" d="M176 587Q166 587 166 597V670Q166 680 176 680H245Q255 680 255 670V597Q255 587 245 587H176Z"  />
<glyph unicode="&#x2DA;" horiz-adv-x="421" d="M211 535Q171 535 144 561T116 629Q116 670 143 696T211 723Q251 723 278 697T306 629Q306 588 279 562T211 535ZM211 576Q233 576 247 591T262 629Q262 652 248 667T211 682Q189 682 175 667T160 629Q160 606 174 591T211 576Z"  />
<glyph unicode="&#x2DB;" horiz-adv-x="421" d="M205 -182Q167 -182 144 -162T121 -103Q121 -75 137 -51T190 0Q204 10 215 10H273Q278 10 278 6T275 0Q251 -16 235 -28T210 -51T196 -71T192 -89Q192 -116 218 -116Q226 -116 231 -114T245 -108Q254 -104 258 -112L276 -147Q280 -154 272 -161Q259 -170 241 -176T205 -182Z"  />
<glyph unicode="&#x2DC;" horiz-adv-x="421" d="M265 576Q247 576 233 582T202 597Q188 605 176 610T149 615Q129 615 115 606T86 583Q83 580 81 581T78 585V633Q78 638 79 642T85 651Q99 665 116 674T153 683Q172 683 186 677T216 662Q230 654 242 649T269 644Q289 644 303 653T332 676Q335 679 337 678T340 674V626Q340 621 339 617T333 608Q319 594 302 585T265 576Z"  />
<glyph unicode="&#x2DD;" horiz-adv-x="421" d="M219 557Q208 557 213 567L279 690Q282 695 285 697T295 700H352Q357 700 358 697T357 690L280 566Q275 557 264 557H219ZM77 557Q66 557 71 567L137 690Q140 695 143 697T153 700H210Q215 700 216 697T215 690L138 566Q133 557 122 557H77Z"  />
<glyph unicode="&#x3C0;" horiz-adv-x="578" d="M489 -6Q433 -6 410 22T387 107V395Q387 401 381 401H196Q190 401 190 395V10Q190 0 180 0H116Q106 0 106 10V395Q106 401 100 401H57Q47 401 47 411V469Q47 479 57 479H519Q529 479 529 469V411Q529 401 519 401H477Q471 401 471 395V109Q471 88 478 80T501 72H506Q516 72 516 62V4Q516 -6 506 -6H489Z"  />
<glyph unicode="&#x60C;" horiz-adv-x="230" d="M160 10Q160 0 150 0H80Q70 0 70 10V103Q70 111 71 115T76 125L138 207Q144 214 151 214Q160 214 160 205V10H160Z"  />
<glyph unicode="&#x615;" horiz-adv-x="0" d="M-95 540Q-85 540 -85 551V717Q-85 724 -77 724H-54Q-46 724 -46 717V633Q-31 641 -14 645T21 650Q66 650 83 627T101 570Q101 535 88 520T47 504H-86H-91H-107Q-114 504 -114 511V533Q-114 540 -107 540H-95ZM19 614Q3 614 -14 609T-46 597V550V540H38Q54 540 58 546T62 571Q62 591 53 602T19 614Z"  />
<glyph unicode="&#x61B;" horiz-adv-x="236" d="M160 244Q160 234 150 234H80Q70 234 70 244V337Q70 345 71 349T76 359L138 441Q144 448 151 448Q160 448 160 439V244H160ZM70 96Q70 106 80 106H156Q166 106 166 96V10Q166 0 156 0H80Q70 0 70 10V96Z"  />
<glyph unicode="&#x61F;" horiz-adv-x="496" d="M214 161Q204 161 204 171V183Q204 208 199 223T178 258L111 350Q85 385 73 414T60 480Q60 517 73 548T110 602T167 637T241 650Q319 650 368 607T429 491Q431 482 421 480L358 469Q349 467 347 477Q338 523 312 547T243 572Q200 572 173 547T146 479Q146 466 148 455T156 432T171 406T193 374L260 282Q276 260 283 241T290 192V171Q290 161 280 161H214ZM295 10Q295 0 285 0H209Q199 0 199 10V96Q199 106 209 106H285Q295 106 295 96V10Z"  />
<glyph unicode="&#x621;" horiz-adv-x="386" d="M90 68Q77 87 70 111T62 166Q62 191 70 218T97 269T147 308T224 324Q263 324 296 310T348 267Q353 260 352 257T348 252L315 224Q305 216 298 223Q284 237 265 247T221 257Q178 257 157 231T135 168Q135 133 152 107T186 68H351Q361 68 361 57V11Q361 0 351 0H30Q20 0 20 11V57Q20 68 30 68H90Z"  />
<glyph unicode="&#x622;" arabic-form="terminal" horiz-adv-x="246" d="M70 670Q70 680 80 680H144Q154 680 154 670V131Q154 101 165 90T202 78H246Q286 78 286 38Q286 13 277 7T246 0H187Q124 0 97 30T70 126V670ZM-55 771Q-48 803 -28 820T19 837Q41 837 65 829T113 811T162 793T208 785Q225 785 231 792T238 819Q238 829 248 829H270Q280 829 280 819Q280 778 262 757T211 736Q185 736 159 744T108 761T60 779T19 787Q9 787 0 782T-14 759Q-17 749 -27 752L-48 758Q-57 761 -55 771Z"  />
<glyph unicode="&#x622;" arabic-form="isolated" horiz-adv-x="224" d="M154 10Q154 0 144 0H80Q70 0 70 10V670Q70 680 80 680H144Q154 680 154 670V10ZM-57 771Q-50 803 -30 820T17 837Q39 837 63 829T111 811T160 793T206 785Q223 785 229 792T236 819Q236 829 246 829H268Q278 829 278 819Q278 778 260 757T209 736Q183 736 157 744T106 761T58 779T17 787Q7 787 -2 782T-16 759Q-19 749 -29 752L-50 758Q-59 761 -57 771Z"  />
<glyph unicode="&#x623;" arabic-form="terminal" horiz-adv-x="246" d="M70 670Q70 680 80 680H144Q154 680 154 670V131Q154 101 165 90T202 78H246Q286 78 286 38Q286 13 277 7T246 0H187Q124 0 97 30T70 126V670ZM51 772Q43 783 38 799T33 834Q33 850 38 867T55 899T86 923T135 933Q161 933 181 924T214 898Q217 891 214 888L193 871Q186 865 182 869Q173 879 161 885T134 892Q106 892 93 875T79 835Q79 813 90 797T113 772H216Q222 772 222 765V737Q222 730 216 730H13Q7 730 7 737V765Q7 772 13 772H51Z"  />
<glyph unicode="&#x623;" arabic-form="isolated" horiz-adv-x="224" d="M154 10Q154 0 144 0H80Q70 0 70 10V670Q70 680 80 680H144Q154 680 154 670V10ZM48 772Q40 783 35 799T30 834Q30 850 35 867T52 899T83 923T132 933Q158 933 178 924T211 898Q214 891 211 888L190 871Q183 865 179 869Q170 879 158 885T131 892Q103 892 90 875T76 835Q76 813 87 797T110 772H213Q219 772 219 765V737Q219 730 213 730H10Q4 730 4 737V765Q4 772 10 772H48Z"  />
<glyph unicode="&#x624;" arabic-form="terminal" horiz-adv-x="507" d="M140 -199Q130 -199 130 -189V-131Q130 -121 140 -121H260Q280 -121 297 -117T326 -102T346 -73T353 -26V0H246Q202 0 167 10T106 44T68 107T55 203Q55 260 70 302T112 372T174 413T248 427Q337 427 387 376T437 209V78H506Q526 78 536 70T546 41Q546 15 537 8T506 0H437V-24Q437 -71 425 -104T390 -158T335 -189T264 -199H140ZM248 349Q198 349 169 309T139 203Q139 132 167 105T252 78H353V209Q353 275 329 312T248 349ZM173 546Q165 556 160 570T155 602Q155 617 160 633T178 664T211 687T264 697Q292 697 316 687T351 659Q355 653 350 648L324 626Q321 624 316 629Q306 638 293 644T261 651Q232 651 219 635T206 600Q206 578 217 565T239 546H352Q358 546 358 539V507Q358 500 352 500H139Q133 500 133 507V539Q133 546 139 546H173Z"  />
<glyph unicode="&#x624;" arabic-form="isolated" horiz-adv-x="502" d="M153 -199Q143 -199 143 -189V-131Q143 -121 153 -121H273Q293 -121 310 -117T339 -102T359 -73T366 -26V0H259Q215 0 180 10T119 44T81 107T68 203Q68 260 83 302T124 372T186 413T261 427Q350 427 400 376T450 209V-24Q450 -71 438 -104T403 -158T348 -189T277 -199H153ZM261 349Q210 349 181 309T152 203Q152 132 180 105T265 78H366V209Q366 275 342 312T261 349ZM185 546Q177 556 172 570T167 602Q167 617 172 633T190 664T223 687T276 697Q304 697 328 687T363 659Q367 653 362 648L336 626Q333 624 328 629Q318 638 305 644T273 651Q244 651 231 635T218 600Q218 578 229 565T251 546H364Q370 546 370 539V507Q370 500 364 500H151Q145 500 145 507V539Q145 546 151 546H185Z"  />
<glyph unicode="&#x625;" arabic-form="terminal" horiz-adv-x="246" d="M70 670Q70 680 80 680H144Q154 680 154 670V131Q154 101 165 90T202 78H246Q286 78 286 38Q286 13 277 7T246 0H187Q124 0 97 30T70 126V670ZM50 -231Q42 -219 37 -204T32 -169Q32 -153 37 -136T54 -104T85 -80T134 -70Q160 -70 180 -79T213 -105Q216 -112 213 -115L192 -132Q185 -138 181 -134Q172 -124 160 -118T133 -111Q105 -111 92 -128T78 -168Q78 -190 89 -206T112 -231H215Q221 -231 221 -238V-266Q221 -273 215 -273H12Q6 -273 6 -266V-238Q6 -231 12 -231H50Z"  />
<glyph unicode="&#x625;" arabic-form="isolated" horiz-adv-x="224" d="M154 10Q154 0 144 0H80Q70 0 70 10V670Q70 680 80 680H144Q154 680 154 670V10ZM47 -231Q39 -219 34 -204T29 -169Q29 -153 34 -136T51 -104T82 -80T131 -70Q157 -70 177 -79T210 -105Q213 -112 210 -115L189 -132Q182 -138 178 -134Q169 -124 157 -118T130 -111Q102 -111 89 -128T75 -168Q75 -190 86 -206T109 -231H212Q218 -231 218 -238V-266Q218 -273 212 -273H9Q3 -273 3 -266V-238Q3 -231 9 -231H47Z"  />
<glyph unicode="&#x626;" arabic-form="initial" horiz-adv-x="281" d="M84 546Q76 556 71 570T66 602Q66 617 71 633T89 664T122 687T175 697Q203 697 227 687T262 659Q266 653 261 648L235 626Q232 624 227 629Q217 638 204 644T172 651Q143 651 130 635T117 600Q117 578 128 565T150 546H263Q269 546 269 539V507Q269 500 263 500H50Q44 500 44 507V539Q44 546 50 546H84ZM7 0Q-13 0 -23 7T-33 35Q-33 60 -24 69T7 78H70Q95 78 106 89T118 131V399Q118 409 128 409H192Q202 409 202 399V126Q202 61 175 31T85 0H7Z"  />
<glyph unicode="&#x626;" arabic-form="medial" horiz-adv-x="296" d="M7 0Q-13 0 -23 7T-33 35Q-33 60 -24 69T7 78H70Q95 78 106 89T118 131V399Q118 409 128 409H192Q202 409 202 399V146Q202 112 226 95T292 78H304Q324 78 334 70T344 41Q344 15 335 8T304 0H282Q250 0 226 13T189 52Q164 0 85 0H7ZM84 546Q76 556 71 570T66 602Q66 617 71 633T89 664T122 687T175 697Q203 697 227 687T262 659Q266 653 261 648L235 626Q232 624 227 629Q217 638 204 644T172 651Q143 651 130 635T117 600Q117 578 128 565T150 546H263Q269 546 269 539V507Q269 500 263 500H50Q44 500 44 507V539Q44 546 50 546H84Z"  />
<glyph unicode="&#x626;" arabic-form="terminal" horiz-adv-x="755" d="M440 149Q472 137 502 125T560 102T617 85T674 78H755Q775 78 785 71T795 43Q795 18 786 9T755 0H684Q689 -8 696 -26T703 -67Q703 -91 694 -114T662 -157T604 -187T516 -199H282Q165 -199 104 -141T43 20Q43 79 62 133T108 225Q112 232 122 226L177 196Q185 191 180 183Q162 155 146 114T129 28Q129 -13 142 -41T179 -87T231 -111T294 -119H515Q575 -119 598 -101T622 -58Q622 -36 609 -20T569 9T503 37T412 70Q403 73 406 82L428 142Q431 152 440 149ZM116 369Q108 379 103 393T98 425Q98 440 103 456T121 487T154 510T207 520Q235 520 259 510T294 482Q298 476 293 471L267 449Q264 447 259 452Q249 461 236 467T204 474Q175 474 162 458T149 423Q149 401 160 388T182 369H295Q301 369 301 362V330Q301 323 295 323H82Q76 323 76 330V362Q76 369 82 369H116Z"  />
<glyph unicode="&#x626;" arabic-form="isolated" horiz-adv-x="775" d="M696 -61Q696 -87 687 -112T655 -156T597 -187T509 -199H275Q158 -199 97 -141T36 20Q36 79 55 133T101 225Q105 232 115 226L170 196Q178 191 173 183Q155 155 139 114T122 28Q122 -13 135 -41T172 -87T224 -111T287 -119H508Q568 -119 591 -101T615 -58Q615 -35 583 -11T496 47Q474 60 453 76T416 113T390 158T380 212Q380 243 391 272T425 323T482 360T560 374Q596 374 622 368T668 352T704 326T735 293Q741 286 732 279L688 243Q680 237 674 244Q652 268 627 282T560 296Q520 296 492 275T464 213Q464 193 474 177T502 145T541 115T586 86Q641 52 668 19T696 -61ZM109 369Q101 379 96 393T91 425Q91 440 96 456T114 487T147 510T200 520Q228 520 252 510T287 482Q291 476 286 471L260 449Q257 447 252 452Q242 461 229 467T197 474Q168 474 155 458T142 423Q142 401 153 388T175 369H288Q294 369 294 362V330Q294 323 288 323H75Q69 323 69 330V362Q69 369 75 369H109Z"  />
<glyph unicode="&#x627;" arabic-form="terminal" horiz-adv-x="246" d="M70 670Q70 680 80 680H144Q154 680 154 670V131Q154 101 165 90T202 78H246Q286 78 286 38Q286 13 277 7T246 0H187Q124 0 97 30T70 126V670Z"  />
<glyph unicode="&#x627;" arabic-form="isolated" horiz-adv-x="224" d="M154 10Q154 0 144 0H80Q70 0 70 10V670Q70 680 80 680H144Q154 680 154 670V10Z"  />
<glyph unicode="&#x628;" arabic-form="initial" horiz-adv-x="265" d="M0 0Q-20 0 -30 7T-40 35Q-40 60 -31 69T0 78H63Q88 78 99 89T111 131V399Q111 409 121 409H185Q195 409 195 399V126Q195 61 168 31T78 0H0ZM96 -183Q86 -183 86 -173V-100Q86 -90 96 -90H164Q174 -90 174 -100V-173Q174 -183 164 -183H96Z"  />
<glyph unicode="&#x628;" arabic-form="medial" horiz-adv-x="296" d="M7 0Q-13 0 -23 7T-33 35Q-33 60 -24 69T7 78H70Q95 78 106 89T118 131V399Q118 409 128 409H192Q202 409 202 399V146Q202 112 226 95T292 78H304Q324 78 334 70T344 41Q344 15 335 8T304 0H282Q250 0 226 13T189 52Q164 0 85 0H7ZM128 -183Q118 -183 118 -173V-100Q118 -90 128 -90H196Q206 -90 206 -100V-173Q206 -183 196 -183H128Z"  />
<glyph unicode="&#x628;" arabic-form="terminal" horiz-adv-x="865" d="M638 78Q664 78 675 89T687 131V399Q687 409 697 409H761Q771 409 771 399V142Q771 110 796 94T861 78H872Q892 78 902 70T912 41Q912 15 903 8T872 0H851Q819 0 795 13T758 52Q745 26 720 13T652 0H171Q108 0 81 30T54 126V335Q54 345 64 345H128Q138 345 138 335V131Q138 101 149 90T186 78H638H638ZM375 -186Q365 -186 365 -176V-103Q365 -93 375 -93H443Q453 -93 453 -103V-176Q453 -186 443 -186H375Z"  />
<glyph unicode="&#x628;" arabic-form="isolated" horiz-adv-x="821" d="M631 78Q657 78 668 89T680 131V399Q680 409 690 409H754Q764 409 764 399V126Q764 61 737 31T645 0H164Q101 0 74 30T47 126V335Q47 345 57 345H121Q131 345 131 335V131Q131 101 142 90T179 78H631H631ZM368 -186Q358 -186 358 -176V-103Q358 -93 368 -93H436Q446 -93 446 -103V-176Q446 -186 436 -186H368Z"  />
<glyph unicode="&#x629;" arabic-form="terminal" horiz-adv-x="501" d="M325 427V470Q325 480 335 480H399Q409 480 409 470V131Q409 101 420 90T457 78H501Q541 78 541 38Q541 13 532 7T501 0H442Q393 0 366 18T329 80Q309 62 281 53T220 44Q181 44 148 55T90 88T51 145T37 227Q37 283 53 321T95 382T155 416T227 427H325ZM221 122Q278 122 301 155T325 249V349H227Q180 349 151 323T121 227Q121 175 147 149T221 122ZM256 548Q246 548 246 558V631Q246 641 256 641H324Q334 641 334 631V558Q334 548 324 548H256ZM134 548Q124 548 124 558V631Q124 641 134 641H202Q212 641 212 631V558Q212 548 202 548H134Z"  />
<glyph unicode="&#x629;" arabic-form="isolated" horiz-adv-x="482" d="M236 -7Q147 -7 96 44T45 209Q45 324 96 375T236 427Q325 427 376 376T427 209Q427 152 414 111T376 44T316 6T236 -7ZM236 349Q180 349 155 312T129 209Q129 137 154 104T236 71Q292 71 317 104T343 209Q343 275 318 312T236 349ZM263 508Q253 508 253 518V591Q253 601 263 601H331Q341 601 341 591V518Q341 508 331 508H263ZM141 508Q131 508 131 518V591Q131 601 141 601H209Q219 601 219 591V518Q219 508 209 508H141Z"  />
<glyph unicode="&#x62A;" arabic-form="initial" horiz-adv-x="276" d="M0 0Q-20 0 -30 7T-40 35Q-40 60 -31 69T0 78H69Q94 78 105 89T117 131V399Q117 409 127 409H191Q201 409 201 399V126Q201 61 174 31T84 0H0ZM186 508Q176 508 176 518V591Q176 601 186 601H254Q264 601 264 591V518Q264 508 254 508H186ZM64 508Q54 508 54 518V591Q54 601 64 601H132Q142 601 142 591V518Q142 508 132 508H64Z"  />
<glyph unicode="&#x62A;" arabic-form="medial" horiz-adv-x="309" d="M7 0Q-13 0 -23 7T-33 35Q-33 60 -24 69T7 78H75Q100 78 111 89T123 131V399Q123 409 133 409H197Q207 409 207 399V146Q207 112 231 95T297 78H309Q329 78 339 70T349 41Q349 15 340 8T309 0H287Q255 0 231 13T194 52Q169 0 90 0H7ZM190 508Q180 508 180 518V591Q180 601 190 601H258Q268 601 268 591V518Q268 508 258 508H190ZM68 508Q58 508 58 518V591Q58 601 68 601H136Q146 601 146 591V518Q146 508 136 508H68Z"  />
<glyph unicode="&#x62A;" arabic-form="terminal" horiz-adv-x="865" d="M638 78Q664 78 675 89T687 131V399Q687 409 697 409H761Q771 409 771 399V142Q771 110 796 94T861 78H872Q892 78 902 70T912 41Q912 15 903 8T872 0H851Q819 0 795 13T758 52Q745 26 720 13T652 0H171Q108 0 81 30T54 126V335Q54 345 64 345H128Q138 345 138 335V131Q138 101 149 90T186 78H638H638ZM441 449Q431 449 431 459V532Q431 542 441 542H509Q519 542 519 532V459Q519 449 509 449H441ZM319 449Q309 449 309 459V532Q309 542 319 542H387Q397 542 397 532V459Q397 449 387 449H319Z"  />
<glyph unicode="&#x62A;" arabic-form="isolated" horiz-adv-x="821" d="M631 78Q657 78 668 89T680 131V399Q680 409 690 409H754Q764 409 764 399V126Q764 61 737 31T645 0H164Q101 0 74 30T47 126V335Q47 345 57 345H121Q131 345 131 335V131Q131 101 142 90T179 78H631H631ZM434 449Q424 449 424 459V532Q424 542 434 542H502Q512 542 512 532V459Q512 449 502 449H434ZM312 449Q302 449 302 459V532Q302 542 312 542H380Q390 542 390 532V459Q390 449 380 449H312Z"  />
<glyph unicode="&#x62B;" arabic-form="initial" horiz-adv-x="276" d="M0 0Q-20 0 -30 7T-40 35Q-40 60 -31 69T0 78H69Q94 78 105 89T117 131V399Q117 409 127 409H191Q201 409 201 399V126Q201 61 174 31T84 0H0ZM184 508Q174 508 174 518V591Q174 601 184 601H252Q262 601 262 591V518Q262 508 252 508H184ZM62 508Q52 508 52 518V591Q52 601 62 601H130Q140 601 140 591V518Q140 508 130 508H62ZM124 625Q114 625 114 635V708Q114 718 124 718H192Q202 718 202 708V635Q202 625 192 625H124Z"  />
<glyph unicode="&#x62B;" arabic-form="medial" horiz-adv-x="309" d="M7 0Q-13 0 -23 7T-33 35Q-33 60 -24 69T7 78H75Q100 78 111 89T123 131V399Q123 409 133 409H197Q207 409 207 399V146Q207 112 231 95T297 78H309Q329 78 339 70T349 41Q349 15 340 8T309 0H287Q255 0 231 13T194 52Q169 0 90 0H7ZM191 508Q181 508 181 518V591Q181 601 191 601H259Q269 601 269 591V518Q269 508 259 508H191ZM69 508Q59 508 59 518V591Q59 601 69 601H137Q147 601 147 591V518Q147 508 137 508H69ZM131 625Q121 625 121 635V708Q121 718 131 718H199Q209 718 209 708V635Q209 625 199 625H131Z"  />
<glyph unicode="&#x62B;" arabic-form="terminal" horiz-adv-x="865" d="M638 78Q664 78 675 89T687 131V399Q687 409 697 409H761Q771 409 771 399V142Q771 110 796 94T861 78H872Q892 78 902 70T912 41Q912 15 903 8T872 0H851Q819 0 795 13T758 52Q745 26 720 13T652 0H171Q108 0 81 30T54 126V335Q54 345 64 345H128Q138 345 138 335V131Q138 101 149 90T186 78H638H638ZM441 449Q431 449 431 459V532Q431 542 441 542H509Q519 542 519 532V459Q519 449 509 449H441ZM319 449Q309 449 309 459V532Q309 542 319 542H387Q397 542 397 532V459Q397 449 387 449H319ZM381 566Q371 566 371 576V649Q371 659 381 659H449Q459 659 459 649V576Q459 566 449 566H381Z"  />
<glyph unicode="&#x62B;" arabic-form="isolated" horiz-adv-x="821" d="M631 78Q657 78 668 89T680 131V399Q680 409 690 409H754Q764 409 764 399V126Q764 61 737 31T645 0H164Q101 0 74 30T47 126V335Q47 345 57 345H121Q131 345 131 335V131Q131 101 142 90T179 78H631H631ZM434 449Q424 449 424 459V532Q424 542 434 542H502Q512 542 512 532V459Q512 449 502 449H434ZM312 449Q302 449 302 459V532Q302 542 312 542H380Q390 542 390 532V459Q390 449 380 449H312ZM374 566Q364 566 364 576V649Q364 659 374 659H442Q452 659 452 649V576Q452 566 442 566H374Z"  />
<glyph unicode="&#x62C;" arabic-form="initial" horiz-adv-x="514" d="M234 349Q200 349 172 335T121 297Q115 290 107 296L63 332Q54 339 60 346Q88 381 129 404T231 427Q300 427 344 406T413 349T449 268T459 173Q459 123 451 90T425 37T380 9T315 0H0Q-40 0 -40 40Q-40 65 -31 71T0 78H284Q312 78 329 82T355 98T367 127T370 173Q370 212 363 244T341 300T299 336T234 349ZM216 -184Q206 -184 206 -174V-101Q206 -91 216 -91H284Q294 -91 294 -101V-174Q294 -184 284 -184H216Z"  />
<glyph unicode="&#x62C;" arabic-form="medial" horiz-adv-x="559" d="M234 349Q200 349 172 335T121 297Q115 290 107 296L63 332Q54 339 60 346Q88 381 129 404T231 427Q300 427 344 406T413 349T449 268T459 173Q459 164 459 156T458 140Q460 109 484 94T548 78H559Q579 78 589 70T599 41Q599 15 590 8T559 0H538Q504 0 477 14T439 58Q422 26 392 13T315 0H0Q-40 0 -40 40Q-40 65 -31 71T0 78H284Q312 78 329 82T355 98T367 127T370 173Q370 212 363 244T341 300T299 336T234 349ZM215 -184Q205 -184 205 -174V-101Q205 -91 215 -91H283Q293 -91 293 -101V-174Q293 -184 283 -184H215Z"  />
<glyph unicode="&#x62C;" arabic-form="terminal" horiz-adv-x="609" d="M199 -199Q122 -199 78 -167T34 -62Q34 -21 47 6T82 49T128 71T176 78H334Q362 78 379 82T405 98T417 127T420 173Q420 212 413 244T391 300T349 336T284 349Q250 349 222 335T171 297Q165 290 157 296L113 332Q104 339 110 346Q138 381 179 404T281 427Q350 427 394 406T463 349T499 268T509 173Q509 164 509 156T508 140Q510 109 534 94T598 78H609Q629 78 639 70T649 41Q649 15 640 8T609 0H588Q554 0 527 14T489 58Q472 26 442 13T365 0H176Q145 0 133 -17T120 -60Q120 -92 137 -106T206 -121H240Q250 -121 250 -131V-189Q250 -199 240 -199H199ZM300 -186Q290 -186 290 -176V-103Q290 -93 300 -93H368Q378 -93 378 -103V-176Q378 -186 368 -186H300Z"  />
<glyph unicode="&#x62C;" arabic-form="isolated" horiz-adv-x="560" d="M172 0Q141 0 129 -17T116 -60Q116 -92 133 -106T202 -121H240Q250 -121 250 -131V-189Q250 -199 240 -199H195Q118 -199 74 -167T30 -62Q30 -21 43 6T78 49T124 71T172 78H330Q358 78 375 82T401 98T413 127T416 173Q416 212 409 244T387 300T345 336T280 349Q246 349 218 335T167 297Q161 290 153 296L109 332Q100 339 106 346Q134 381 175 404T277 427Q346 427 390 406T459 349T495 268T505 173Q505 123 497 90T471 37T426 9T361 0H172ZM300 -186Q290 -186 290 -176V-103Q290 -93 300 -93H368Q378 -93 378 -103V-176Q378 -186 368 -186H300Z"  />
<glyph unicode="&#x62D;" arabic-form="initial" horiz-adv-x="514" d="M234 349Q200 349 172 335T121 297Q115 290 107 296L63 332Q54 339 60 346Q88 381 129 404T231 427Q300 427 344 406T413 349T449 268T459 173Q459 123 451 90T425 37T380 9T315 0H0Q-40 0 -40 40Q-40 65 -31 71T0 78H284Q312 78 329 82T355 98T367 127T370 173Q370 212 363 244T341 300T299 336T234 349Z"  />
<glyph unicode="&#x62D;" arabic-form="medial" horiz-adv-x="559" d="M234 349Q200 349 172 335T121 297Q115 290 107 296L63 332Q54 339 60 346Q88 381 129 404T231 427Q300 427 344 406T413 349T449 268T459 173Q459 164 459 156T458 140Q460 109 484 94T548 78H559Q579 78 589 70T599 41Q599 15 590 8T559 0H538Q504 0 477 14T439 58Q422 26 392 13T315 0H0Q-40 0 -40 40Q-40 65 -31 71T0 78H284Q312 78 329 82T355 98T367 127T370 173Q370 212 363 244T341 300T299 336T234 349Z"  />
<glyph unicode="&#x62D;" arabic-form="terminal" horiz-adv-x="602" d="M169 0Q138 0 126 -17T113 -60Q113 -92 130 -106T199 -121H295Q305 -121 305 -131V-189Q305 -199 295 -199H192Q115 -199 71 -167T27 -62Q27 -21 40 6T75 49T121 71T169 78H327Q355 78 372 82T398 98T410 127T413 173Q413 212 406 244T384 300T342 336T277 349Q243 349 215 335T164 297Q158 290 150 296L106 332Q97 339 103 346Q131 381 172 404T274 427Q343 427 387 406T456 349T492 268T502 173Q502 164 502 156T501 140Q503 109 527 94T591 78H602Q622 78 632 70T642 41Q642 15 633 8T602 0H581Q547 0 520 14T482 58Q465 26 435 13T358 0H169Z"  />
<glyph unicode="&#x62D;" arabic-form="isolated" horiz-adv-x="560" d="M172 0Q141 0 129 -17T116 -60Q116 -92 133 -106T202 -121H298Q308 -121 308 -131V-189Q308 -199 298 -199H195Q118 -199 74 -167T30 -62Q30 -21 43 6T78 49T124 71T172 78H330Q358 78 375 82T401 98T413 127T416 173Q416 212 409 244T387 300T345 336T280 349Q246 349 218 335T167 297Q161 290 153 296L109 332Q100 339 106 346Q134 381 175 404T277 427Q346 427 390 406T459 349T495 268T505 173Q505 123 497 90T471 37T426 9T361 0H172Z"  />
<glyph unicode="&#x62E;" arabic-form="initial" horiz-adv-x="514" d="M234 349Q200 349 172 335T121 297Q115 290 107 296L63 332Q54 339 60 346Q88 381 129 404T231 427Q300 427 344 406T413 349T449 268T459 173Q459 123 451 90T425 37T380 9T315 0H0Q-40 0 -40 40Q-40 65 -31 71T0 78H284Q312 78 329 82T355 98T367 127T370 173Q370 212 363 244T341 300T299 336T234 349ZM210 507Q200 507 200 517V590Q200 600 210 600H278Q288 600 288 590V517Q288 507 278 507H210Z"  />
<glyph unicode="&#x62E;" arabic-form="medial" horiz-adv-x="559" d="M234 349Q200 349 172 335T121 297Q115 290 107 296L63 332Q54 339 60 346Q88 381 129 404T231 427Q300 427 344 406T413 349T449 268T459 173Q459 164 459 156T458 140Q460 109 484 94T548 78H559Q579 78 589 70T599 41Q599 15 590 8T559 0H538Q504 0 477 14T439 58Q422 26 392 13T315 0H0Q-40 0 -40 40Q-40 65 -31 71T0 78H284Q312 78 329 82T355 98T367 127T370 173Q370 212 363 244T341 300T299 336T234 349ZM210 507Q200 507 200 517V590Q200 600 210 600H278Q288 600 288 590V517Q288 507 278 507H210Z"  />
<glyph unicode="&#x62E;" arabic-form="terminal" horiz-adv-x="602" d="M176 0Q145 0 133 -17T120 -60Q120 -92 137 -106T206 -121H302Q312 -121 312 -131V-189Q312 -199 302 -199H199Q122 -199 78 -167T34 -62Q34 -21 47 6T82 49T128 71T176 78H334Q362 78 379 82T405 98T417 127T420 173Q420 212 413 244T391 300T349 336T284 349Q250 349 222 335T171 297Q165 290 157 296L113 332Q104 339 110 346Q138 381 179 404T281 427Q350 427 394 406T463 349T499 268T509 173Q509 164 509 156T508 140Q510 109 534 94T598 78H609Q629 78 639 70T649 41Q649 15 640 8T609 0H588Q554 0 527 14T489 58Q472 26 442 13T365 0H176ZM256 508Q246 508 246 518V591Q246 601 256 601H324Q334 601 334 591V518Q334 508 324 508H256Z"  />
<glyph unicode="&#x62E;" arabic-form="isolated" horiz-adv-x="560" d="M172 0Q141 0 129 -17T116 -60Q116 -92 133 -106T202 -121H298Q308 -121 308 -131V-189Q308 -199 298 -199H195Q118 -199 74 -167T30 -62Q30 -21 43 6T78 49T124 71T172 78H330Q358 78 375 82T401 98T413 127T416 173Q416 212 409 244T387 300T345 336T280 349Q246 349 218 335T167 297Q161 290 153 296L109 332Q100 339 106 346Q134 381 175 404T277 427Q346 427 390 406T459 349T495 268T505 173Q505 123 497 90T471 37T426 9T361 0H172ZM252 508Q242 508 242 518V591Q242 601 252 601H320Q330 601 330 591V518Q330 508 320 508H252Z"  />
<glyph unicode="&#x62F;" arabic-form="terminal" horiz-adv-x="534" d="M433 146Q433 112 457 95T523 78H534Q554 78 564 70T574 41Q574 15 565 8T534 0H513Q479 0 452 14T414 58Q397 25 367 13T289 0H67Q57 0 57 10V68Q57 78 67 78H258Q286 78 303 82T329 97T341 125T344 168V248Q344 349 230 349H114Q104 349 104 359V417Q104 427 114 427H261Q337 427 385 384T433 249V146Z"  />
<glyph unicode="&#x62F;" arabic-form="isolated" horiz-adv-x="488" d="M433 171Q433 121 425 88T399 36T354 8T289 0H67Q57 0 57 10V68Q57 78 67 78H258Q286 78 303 82T329 97T341 125T344 168V248Q344 349 230 349H114Q104 349 104 359V417Q104 427 114 427H261Q337 427 385 384T433 249V171Z"  />
<glyph unicode="&#x630;" arabic-form="terminal" horiz-adv-x="534" d="M440 146Q440 112 464 95T530 78H541Q561 78 571 70T581 41Q581 15 572 8T541 0H520Q486 0 459 14T421 58Q404 25 374 13T296 0H74Q64 0 64 10V68Q64 78 74 78H265Q293 78 310 82T336 97T348 125T351 168V248Q351 349 237 349H121Q111 349 111 359V417Q111 427 121 427H268Q344 427 392 384T440 249V146ZM177 508Q167 508 167 518V591Q167 601 177 601H245Q255 601 255 591V518Q255 508 245 508H177Z"  />
<glyph unicode="&#x630;" arabic-form="isolated" horiz-adv-x="488" d="M433 171Q433 121 425 88T399 36T354 8T289 0H67Q57 0 57 10V68Q57 78 67 78H258Q286 78 303 82T329 97T341 125T344 168V248Q344 349 230 349H114Q104 349 104 359V417Q104 427 114 427H261Q337 427 385 384T433 249V171ZM186 508Q176 508 176 518V591Q176 601 186 601H254Q264 601 264 591V518Q264 508 254 508H186Z"  />
<glyph unicode="&#x631;" arabic-form="terminal" horiz-adv-x="299" d="M10 -199Q0 -199 0 -189V-131Q0 -121 10 -121H33Q114 -121 114 -36V399Q114 409 124 409H188Q198 409 198 399V146Q198 112 222 95T288 78H299Q319 78 329 70T339 41Q339 15 330 8T299 0H278Q226 0 198 32V-34Q198 -115 157 -157T37 -199H10Z"  />
<glyph unicode="&#x631;" arabic-form="isolated" horiz-adv-x="263" d="M10 -199Q0 -199 0 -189V-131Q0 -121 10 -121H33Q114 -121 114 -36V399Q114 409 124 409H188Q198 409 198 399V-34Q198 -115 157 -157T37 -199H10Z"  />
<glyph unicode="&#x632;" arabic-form="terminal" horiz-adv-x="299" d="M10 -199Q0 -199 0 -189V-131Q0 -121 10 -121H33Q114 -121 114 -36V399Q114 409 124 409H188Q198 409 198 399V146Q198 112 222 95T288 78H299Q319 78 329 70T339 41Q339 15 330 8T299 0H278Q226 0 198 32V-34Q198 -115 157 -157T37 -199H10ZM122 508Q112 508 112 518V591Q112 601 122 601H190Q200 601 200 591V518Q200 508 190 508H122Z"  />
<glyph unicode="&#x632;" arabic-form="isolated" horiz-adv-x="263" d="M10 -199Q0 -199 0 -189V-131Q0 -121 10 -121H33Q114 -121 114 -36V399Q114 409 124 409H188Q198 409 198 399V-34Q198 -115 157 -157T37 -199H10ZM123 508Q113 508 113 518V591Q113 601 123 601H191Q201 601 201 591V518Q201 508 191 508H123Z"  />
<glyph unicode="&#x633;" arabic-form="initial" horiz-adv-x="780" d="M305 0Q273 0 249 13T212 52Q187 0 108 0H0Q-20 0 -30 7T-40 35Q-40 60 -31 69T0 78H93Q118 78 129 89T141 131V313Q141 323 151 323H215Q225 323 225 313V146Q225 112 249 95T313 78H338Q363 78 374 89T386 131V313Q386 323 396 323H460Q470 323 470 313V146Q470 112 494 95T558 78H583Q608 78 619 89T631 131V399Q631 409 641 409H705Q715 409 715 399V126Q715 61 688 31T598 0H550Q518 0 494 13T457 52Q432 0 353 0H305Z"  />
<glyph unicode="&#x633;" arabic-form="medial" horiz-adv-x="816" d="M305 0Q273 0 249 13T212 52Q187 0 108 0H0Q-20 0 -30 7T-40 35Q-40 60 -31 69T0 78H93Q118 78 129 89T141 131V313Q141 323 151 323H215Q225 323 225 313V146Q225 112 249 95T313 78H338Q363 78 374 89T386 131V313Q386 323 396 323H460Q470 323 470 313V142Q470 110 495 94T560 78H583Q608 78 619 89T631 131V399Q631 409 641 409H705Q715 409 715 399V146Q715 112 739 95T805 78H816Q836 78 846 70T856 41Q856 15 847 8T816 0H795Q763 0 739 13T702 52Q677 0 598 0H550Q518 0 494 13T457 52Q432 0 353 0H305Z"  />
<glyph unicode="&#x633;" arabic-form="terminal" horiz-adv-x="1107" d="M596 0Q544 0 516 32V20Q516 -83 456 -141T281 -199Q227 -199 184 -185T110 -142T62 -74T45 20Q45 79 64 133T110 225Q114 232 124 226L179 196Q187 191 182 183Q164 155 148 114T131 28Q131 -15 145 -43T183 -88T233 -112T286 -119Q350 -119 391 -86T432 21V313Q432 323 442 323H506Q516 323 516 313V146Q516 112 540 95T604 78H629Q654 78 665 89T677 131V313Q677 323 687 323H751Q761 323 761 313V142Q761 110 786 94T851 78H874Q899 78 910 89T922 131V399Q922 409 932 409H996Q1006 409 1006 399V146Q1006 112 1030 95T1096 78H1106Q1126 78 1136 70T1146 41Q1146 15 1137 8T1106 0H1086Q1054 0 1030 13T993 52Q968 0 889 0H841Q809 0 785 13T748 52Q723 0 644 0H596Z"  />
<glyph unicode="&#x633;" arabic-form="isolated" horiz-adv-x="1071" d="M596 0Q544 0 516 32V20Q516 -83 456 -141T281 -199Q227 -199 184 -185T110 -142T62 -74T45 20Q45 79 64 133T110 225Q114 232 124 226L179 196Q187 191 182 183Q164 155 148 114T131 28Q131 -15 145 -43T183 -88T233 -112T286 -119Q350 -119 391 -86T432 21V313Q432 323 442 323H506Q516 323 516 313V142Q516 110 541 94T606 78H629Q654 78 665 89T677 131V313Q677 323 687 323H751Q761 323 761 313V142Q761 110 786 94T851 78H874Q899 78 910 89T922 131V399Q922 409 932 409H996Q1006 409 1006 399V126Q1006 61 979 31T889 0H841Q809 0 785 13T748 52Q723 0 644 0H596Z"  />
<glyph unicode="&#x634;" arabic-form="initial" horiz-adv-x="780" d="M305 0Q273 0 249 13T212 52Q187 0 108 0H0Q-20 0 -30 7T-40 35Q-40 60 -31 69T0 78H93Q118 78 129 89T141 131V313Q141 323 151 323H215Q225 323 225 313V146Q225 112 249 95T313 78H338Q363 78 374 89T386 131V313Q386 323 396 323H460Q470 323 470 313V146Q470 112 494 95T558 78H583Q608 78 619 89T631 131V399Q631 409 641 409H705Q715 409 715 399V126Q715 61 688 31T598 0H550Q518 0 494 13T457 52Q432 0 353 0H305ZM453 508Q443 508 443 518V591Q443 601 453 601H521Q531 601 531 591V518Q531 508 521 508H453ZM331 508Q321 508 321 518V591Q321 601 331 601H399Q409 601 409 591V518Q409 508 399 508H331ZM393 625Q383 625 383 635V708Q383 718 393 718H461Q471 718 471 708V635Q471 625 461 625H393Z"  />
<glyph unicode="&#x634;" arabic-form="medial" horiz-adv-x="816" d="M312 0Q280 0 256 13T219 52Q194 0 115 0H7Q-13 0 -23 7T-33 35Q-33 60 -24 69T7 78H100Q125 78 136 89T148 131V313Q148 323 158 323H222Q232 323 232 313V146Q232 112 256 95T320 78H345Q370 78 381 89T393 131V313Q393 323 403 323H467Q477 323 477 313V142Q477 110 502 94T567 78H590Q615 78 626 89T638 131V399Q638 409 648 409H712Q722 409 722 399V146Q722 112 746 95T812 78H823Q843 78 853 70T863 41Q863 15 854 8T823 0H802Q770 0 746 13T709 52Q684 0 605 0H557Q525 0 501 13T464 52Q439 0 360 0H312ZM460 508Q450 508 450 518V591Q450 601 460 601H528Q538 601 538 591V518Q538 508 528 508H460ZM338 508Q328 508 328 518V591Q328 601 338 601H406Q416 601 416 591V518Q416 508 406 508H338ZM400 625Q390 625 390 635V708Q390 718 400 718H468Q478 718 478 708V635Q478 625 468 625H400Z"  />
<glyph unicode="&#x634;" arabic-form="terminal" horiz-adv-x="1107" d="M596 0Q544 0 516 32V20Q516 -83 456 -141T281 -199Q227 -199 184 -185T110 -142T62 -74T45 20Q45 79 64 133T110 225Q114 232 124 226L179 196Q187 191 182 183Q164 155 148 114T131 28Q131 -15 145 -43T183 -88T233 -112T286 -119Q350 -119 391 -86T432 21V313Q432 323 442 323H506Q516 323 516 313V146Q516 112 540 95T604 78H629Q654 78 665 89T677 131V313Q677 323 687 323H751Q761 323 761 313V142Q761 110 786 94T851 78H874Q899 78 910 89T922 131V399Q922 409 932 409H996Q1006 409 1006 399V146Q1006 112 1030 95T1096 78H1106Q1126 78 1136 70T1146 41Q1146 15 1137 8T1106 0H1086Q1054 0 1030 13T993 52Q968 0 889 0H841Q809 0 785 13T748 52Q723 0 644 0H596ZM744 508Q734 508 734 518V591Q734 601 744 601H812Q822 601 822 591V518Q822 508 812 508H744ZM622 508Q612 508 612 518V591Q612 601 622 601H690Q700 601 700 591V518Q700 508 690 508H622ZM684 625Q674 625 674 635V708Q674 718 684 718H752Q762 718 762 708V635Q762 625 752 625H684Z"  />
<glyph unicode="&#x634;" arabic-form="isolated" horiz-adv-x="1071" d="M596 0Q544 0 516 32V20Q516 -83 456 -141T281 -199Q227 -199 184 -185T110 -142T62 -74T45 20Q45 79 64 133T110 225Q114 232 124 226L179 196Q187 191 182 183Q164 155 148 114T131 28Q131 -15 145 -43T183 -88T233 -112T286 -119Q350 -119 391 -86T432 21V313Q432 323 442 323H506Q516 323 516 313V142Q516 110 541 94T606 78H629Q654 78 665 89T677 131V313Q677 323 687 323H751Q761 323 761 313V142Q761 110 786 94T851 78H874Q899 78 910 89T922 131V399Q922 409 932 409H996Q1006 409 1006 399V126Q1006 61 979 31T889 0H841Q809 0 785 13T748 52Q723 0 644 0H596ZM744 508Q734 508 734 518V591Q734 601 744 601H812Q822 601 822 591V518Q822 508 812 508H744ZM622 508Q612 508 612 518V591Q612 601 622 601H690Q700 601 700 591V518Q700 508 690 508H622ZM684 625Q674 625 674 635V708Q674 718 684 718H752Q762 718 762 708V635Q762 625 752 625H684Z"  />
<glyph unicode="&#x635;" arabic-form="initial" horiz-adv-x="721" d="M0 0Q-20 0 -30 7T-40 35Q-40 60 -31 69T0 78H63Q88 78 99 89T111 131V399Q111 409 121 409H185Q195 409 195 399V365Q244 391 304 409T427 427Q497 427 543 408T616 357T655 281T666 190Q666 137 658 101T631 42T584 10T515 0H179Q155 0 145 13Q120 0 78 0H0ZM421 349Q391 349 360 344T300 329T244 309T195 287V126Q195 101 190 78H486Q514 78 532 83T560 100T573 135T577 193Q577 230 570 259T544 308T496 338T421 349Z"  />
<glyph unicode="&#x635;" arabic-form="medial" horiz-adv-x="766" d="M0 0Q-20 0 -30 7T-40 35Q-40 60 -31 69T0 78H63Q88 78 99 89T111 131V399Q111 409 121 409H185Q195 409 195 399V365Q244 391 304 409T427 427Q497 427 543 408T616 357T655 281T666 190Q666 177 666 166T665 146Q665 112 689 95T755 78H766Q786 78 796 70T806 41Q806 15 797 8T766 0H745Q710 0 683 16T644 62Q627 28 596 14T515 0H179Q155 0 145 13Q120 0 78 0H0ZM421 349Q391 349 360 344T300 329T244 309T195 287V126Q195 101 190 78H486Q514 78 532 83T560 100T573 135T577 193Q577 230 570 259T544 308T496 338T421 349Z"  />
<glyph unicode="&#x635;" arabic-form="terminal" horiz-adv-x="1087" d="M110 225Q114 232 124 226L179 196Q187 191 182 183Q164 155 148 114T131 28Q131 -15 145 -43T183 -88T233 -112T286 -119Q350 -119 391 -86T432 21V400Q432 410 442 410H506Q516 410 516 400V365Q565 391 625 409T748 427Q818 427 864 408T937 357T976 281T987 190Q987 177 987 166T986 146Q986 112 1010 95T1076 78H1086Q1106 78 1116 70T1126 41Q1126 15 1117 8T1086 0H1066Q1031 0 1004 16T965 62Q948 28 917 14T836 0H515Q509 -94 449 -146T281 -199Q227 -199 184 -185T110 -142T62 -74T45 20Q45 79 64 133T110 225ZM742 349Q712 349 681 344T621 329T565 309T516 287V78H807Q835 78 853 83T881 100T894 135T898 193Q898 230 891 259T865 308T817 338T742 349Z"  />
<glyph unicode="&#x635;" arabic-form="isolated" horiz-adv-x="1042" d="M110 225Q114 232 124 226L179 196Q187 191 182 183Q164 155 148 114T131 28Q131 -15 145 -43T183 -88T233 -112T286 -119Q350 -119 391 -86T432 21V400Q432 410 442 410H506Q516 410 516 400V365Q565 391 625 409T748 427Q818 427 864 408T937 357T976 281T987 190Q987 137 979 101T952 42T905 10T836 0H515Q509 -94 449 -146T281 -199Q227 -199 184 -185T110 -142T62 -74T45 20Q45 79 64 133T110 225ZM742 349Q712 349 681 344T621 329T565 309T516 287V78H807Q835 78 853 83T881 100T894 135T898 193Q898 230 891 259T865 308T817 338T742 349Z"  />
<glyph unicode="&#x636;" arabic-form="initial" horiz-adv-x="721" d="M0 0Q-20 0 -30 7T-40 35Q-40 60 -31 69T0 78H63Q88 78 99 89T111 131V399Q111 409 121 409H185Q195 409 195 399V365Q244 391 304 409T427 427Q497 427 543 408T616 357T655 281T666 190Q666 137 658 101T631 42T584 10T515 0H179Q155 0 145 13Q120 0 78 0H0ZM421 349Q391 349 360 344T300 329T244 309T195 287V126Q195 101 190 78H486Q514 78 532 83T560 100T573 135T577 193Q577 230 570 259T544 308T496 338T421 349ZM392 508Q382 508 382 518V591Q382 601 392 601H460Q470 601 470 591V518Q470 508 460 508H392Z"  />
<glyph unicode="&#x636;" arabic-form="medial" horiz-adv-x="766" d="M7 0Q-13 0 -23 7T-33 35Q-33 60 -24 69T7 78H70Q95 78 106 89T118 131V399Q118 409 128 409H192Q202 409 202 399V365Q251 391 311 409T434 427Q504 427 550 408T623 357T662 281T673 190Q673 177 673 166T672 146Q672 112 696 95T762 78H773Q793 78 803 70T813 41Q813 15 804 8T773 0H752Q717 0 690 16T651 62Q634 28 603 14T522 0H186Q162 0 152 13Q127 0 85 0H7ZM428 349Q398 349 367 344T307 329T251 309T202 287V126Q202 101 197 78H493Q521 78 539 83T567 100T580 135T584 193Q584 230 577 259T551 308T503 338T428 349ZM399 508Q389 508 389 518V591Q389 601 399 601H467Q477 601 477 591V518Q477 508 467 508H399Z"  />
<glyph unicode="&#x636;" arabic-form="terminal" horiz-adv-x="1087" d="M110 225Q114 232 124 226L179 196Q187 191 182 183Q164 155 148 114T131 28Q131 -15 145 -43T183 -88T233 -112T286 -119Q350 -119 391 -86T432 21V400Q432 410 442 410H506Q516 410 516 400V365Q565 391 625 409T748 427Q818 427 864 408T937 357T976 281T987 190Q987 177 987 166T986 146Q986 112 1010 95T1076 78H1086Q1106 78 1116 70T1126 41Q1126 15 1117 8T1086 0H1066Q1031 0 1004 16T965 62Q948 28 917 14T836 0H515Q509 -94 449 -146T281 -199Q227 -199 184 -185T110 -142T62 -74T45 20Q45 79 64 133T110 225ZM742 349Q712 349 681 344T621 329T565 309T516 287V78H807Q835 78 853 83T881 100T894 135T898 193Q898 230 891 259T865 308T817 338T742 349ZM711 508Q701 508 701 518V591Q701 601 711 601H779Q789 601 789 591V518Q789 508 779 508H711Z"  />
<glyph unicode="&#x636;" arabic-form="isolated" horiz-adv-x="1042" d="M110 225Q114 232 124 226L179 196Q187 191 182 183Q164 155 148 114T131 28Q131 -15 145 -43T183 -88T233 -112T286 -119Q350 -119 391 -86T432 21V400Q432 410 442 410H506Q516 410 516 400V365Q565 391 625 409T748 427Q818 427 864 408T937 357T976 281T987 190Q987 137 979 101T952 42T905 10T836 0H515Q509 -94 449 -146T281 -199Q227 -199 184 -185T110 -142T62 -74T45 20Q45 79 64 133T110 225ZM742 349Q712 349 681 344T621 329T565 309T516 287V78H807Q835 78 853 83T881 100T894 135T898 193Q898 230 891 259T865 308T817 338T742 349ZM711 508Q701 508 701 518V591Q701 601 711 601H779Q789 601 789 591V518Q789 508 779 508H711Z"  />
<glyph unicode="&#x637;" arabic-form="initial" horiz-adv-x="721" d="M0 0Q-20 0 -30 7T-40 35Q-40 60 -31 69T0 78H63Q88 78 99 89T111 131V669Q111 679 121 679H185Q195 679 195 669V365Q244 391 304 409T427 427Q497 427 543 408T616 357T655 281T666 190Q666 137 658 101T631 42T584 10T515 0H179Q155 0 145 13Q120 0 78 0H0ZM421 349Q391 349 360 344T300 329T244 309T195 287V126Q195 101 190 78H486Q514 78 532 83T560 100T573 135T577 193Q577 230 570 259T544 308T496 338T421 349Z"  />
<glyph unicode="&#x637;" arabic-form="medial" horiz-adv-x="766" d="M0 0Q-20 0 -30 7T-40 35Q-40 60 -31 69T0 78H63Q88 78 99 89T111 131V670Q111 680 121 680H185Q195 680 195 670V365Q244 391 304 409T427 427Q497 427 543 408T616 357T655 281T666 190Q666 177 666 166T665 146Q665 112 689 95T755 78H766Q786 78 796 70T806 41Q806 15 797 8T766 0H745Q710 0 683 16T644 62Q627 28 596 14T515 0H179Q155 0 145 13Q120 0 78 0H0ZM421 349Q391 349 360 344T300 329T244 309T195 287V126Q195 101 190 78H486Q514 78 532 83T560 100T573 135T577 193Q577 230 570 259T544 308T496 338T421 349Z"  />
<glyph unicode="&#x637;" arabic-form="terminal" horiz-adv-x="780" d="M77 78Q102 78 113 89T125 131V670Q125 680 135 680H199Q209 680 209 670V365Q258 391 318 409T441 427Q511 427 557 408T630 357T669 281T680 190Q680 177 680 166T679 146Q679 112 703 95T769 78H779Q799 78 809 70T819 41Q819 15 810 8T779 0H759Q724 0 697 16T658 62Q641 28 610 14T529 0H193Q169 0 159 13Q134 0 92 0H37Q27 0 27 10V68Q27 78 37 78H77ZM435 349Q405 349 374 344T314 329T258 309T209 287V126Q209 101 204 78H500Q528 78 546 83T574 100T587 135T591 193Q591 230 584 259T558 308T510 338T435 349Z"  />
<glyph unicode="&#x637;" arabic-form="isolated" horiz-adv-x="735" d="M77 78Q102 78 113 89T125 131V670Q125 680 135 680H199Q209 680 209 670V365Q258 391 318 409T441 427Q511 427 557 408T630 357T669 281T680 190Q680 137 672 101T645 42T598 10T529 0H193Q169 0 159 13Q134 0 92 0H37Q27 0 27 10V68Q27 78 37 78H77ZM435 349Q405 349 374 344T314 329T258 309T209 287V126Q209 101 204 78H500Q528 78 546 83T574 100T587 135T591 193Q591 230 584 259T558 308T510 338T435 349Z"  />
<glyph unicode="&#x638;" arabic-form="initial" horiz-adv-x="721" d="M0 0Q-20 0 -30 7T-40 35Q-40 60 -31 69T0 78H63Q88 78 99 89T111 131V669Q111 679 121 679H185Q195 679 195 669V365Q244 391 304 409T427 427Q497 427 543 408T616 357T655 281T666 190Q666 137 658 101T631 42T584 10T515 0H179Q155 0 145 13Q120 0 78 0H0ZM421 349Q391 349 360 344T300 329T244 309T195 287V126Q195 101 190 78H486Q514 78 532 83T560 100T573 135T577 193Q577 230 570 259T544 308T496 338T421 349ZM392 508Q382 508 382 518V591Q382 601 392 601H460Q470 601 470 591V518Q470 508 460 508H392Z"  />
<glyph unicode="&#x638;" arabic-form="medial" horiz-adv-x="766" d="M7 0Q-13 0 -23 7T-33 35Q-33 60 -24 69T7 78H70Q95 78 106 89T118 131V670Q118 680 128 680H192Q202 680 202 670V365Q251 391 311 409T434 427Q504 427 550 408T623 357T662 281T673 190Q673 177 673 166T672 146Q672 112 696 95T762 78H773Q793 78 803 70T813 41Q813 15 804 8T773 0H752Q717 0 690 16T651 62Q634 28 603 14T522 0H186Q162 0 152 13Q127 0 85 0H7ZM428 349Q398 349 367 344T307 329T251 309T202 287V126Q202 101 197 78H493Q521 78 539 83T567 100T580 135T584 193Q584 230 577 259T551 308T503 338T428 349ZM399 508Q389 508 389 518V591Q389 601 399 601H467Q477 601 477 591V518Q477 508 467 508H399Z"  />
<glyph unicode="&#x638;" arabic-form="terminal" horiz-adv-x="780" d="M84 78Q109 78 120 89T132 131V670Q132 680 142 680H206Q216 680 216 670V365Q265 391 325 409T448 427Q518 427 564 408T637 357T676 281T687 190Q687 177 687 166T686 146Q686 112 710 95T776 78H786Q806 78 816 70T826 41Q826 15 817 8T786 0H766Q731 0 704 16T665 62Q648 28 617 14T536 0H200Q176 0 166 13Q141 0 99 0H44Q34 0 34 10V68Q34 78 44 78H84ZM442 349Q412 349 381 344T321 329T265 309T216 287V126Q216 101 211 78H507Q535 78 553 83T581 100T594 135T598 193Q598 230 591 259T565 308T517 338T442 349ZM410 508Q400 508 400 518V591Q400 601 410 601H478Q488 601 488 591V518Q488 508 478 508H410Z"  />
<glyph unicode="&#x638;" arabic-form="isolated" horiz-adv-x="735" d="M77 78Q102 78 113 89T125 131V670Q125 680 135 680H199Q209 680 209 670V365Q258 391 318 409T441 427Q511 427 557 408T630 357T669 281T680 190Q680 137 672 101T645 42T598 10T529 0H193Q169 0 159 13Q134 0 92 0H37Q27 0 27 10V68Q27 78 37 78H77ZM435 349Q405 349 374 344T314 329T258 309T209 287V126Q209 101 204 78H500Q528 78 546 83T574 100T587 135T591 193Q591 230 584 259T558 308T510 338T435 349ZM403 508Q393 508 393 518V591Q393 601 403 601H471Q481 601 481 591V518Q481 508 471 508H403Z"  />
<glyph unicode="&#x639;" arabic-form="initial" horiz-adv-x="516" d="M461 78Q471 78 471 68V10Q471 0 461 0H0Q-40 0 -40 40Q-40 65 -31 71T0 78H114Q91 101 75 136T59 220Q59 251 68 287T101 355T166 406T273 427Q332 427 375 406T444 346Q449 338 441 332L397 296Q389 290 383 297Q338 349 270 349Q208 349 178 313T148 221Q148 184 160 158T187 115T219 90T244 78H461Z"  />
<glyph unicode="&#x639;" arabic-form="medial" horiz-adv-x="543" d="M272 427Q379 427 430 385T481 271Q481 239 471 210T444 156T407 112T366 80Q373 78 380 78T396 78H543Q563 78 573 71T583 43Q583 18 574 9T543 0H402Q366 0 334 6T272 31Q239 13 202 7T136 0H0Q-40 0 -40 40Q-40 65 -31 71T0 78H129Q142 78 163 79T214 89Q206 129 193 157T161 206T122 244T78 276Q69 282 67 286T64 296V356Q64 370 74 376Q86 383 105 392T150 409T207 422T272 427ZM272 349Q227 349 193 340T148 323Q199 294 237 242T293 118Q309 128 327 143T359 177T383 218T393 265Q393 290 384 306T358 331T320 345T272 349Z"  />
<glyph unicode="&#x639;" arabic-form="terminal" horiz-adv-x="573" d="M284 427Q391 427 442 385T493 271Q493 239 483 211T458 159T422 116T383 83Q394 81 405 80T426 78H572Q592 78 602 71T612 43Q612 18 603 9T572 0H423Q394 0 361 7T302 31Q273 20 241 12T183 -7T140 -32T123 -72Q123 -96 141 -108T209 -121H305Q315 -121 315 -131V-189Q315 -199 305 -199H202Q121 -199 79 -170T37 -72Q37 -29 55 -1T102 44T163 70T226 86Q219 126 205 155T173 205T134 243T90 276Q81 282 79 286T76 296V356Q76 370 86 376Q98 383 117 392T162 409T219 422T284 427ZM284 349Q239 349 205 340T160 323Q211 294 249 242T305 118Q321 128 339 143T371 177T395 218T405 265Q405 290 396 306T370 331T332 345T284 349Z"  />
<glyph unicode="&#x639;" arabic-form="isolated" horiz-adv-x="546" d="M491 78Q501 78 501 68V10Q501 0 491 0H179Q148 0 136 -17T123 -59Q123 -91 140 -106T209 -121H305Q315 -121 315 -131V-189Q315 -199 305 -199H202Q125 -199 81 -166T37 -61Q37 -27 46 -3T71 38T106 63T146 75Q122 99 106 134T89 220Q89 251 98 287T131 355T196 406T303 427Q362 427 405 406T474 346Q479 338 471 332L427 296Q419 290 413 297Q368 349 300 349Q238 349 208 313T178 221Q178 184 190 158T217 115T249 90T274 78H491Z"  />
<glyph unicode="&#x63A;" arabic-form="initial" horiz-adv-x="516" d="M461 78Q471 78 471 68V10Q471 0 461 0H0Q-40 0 -40 40Q-40 65 -31 71T0 78H114Q91 101 75 136T59 220Q59 251 68 287T101 355T166 406T273 427Q332 427 375 406T444 346Q449 338 441 332L397 296Q389 290 383 297Q338 349 270 349Q208 349 178 313T148 221Q148 184 160 158T187 115T219 90T244 78H461ZM233 508Q223 508 223 518V591Q223 601 233 601H301Q311 601 311 591V518Q311 508 301 508H233Z"  />
<glyph unicode="&#x63A;" arabic-form="medial" horiz-adv-x="543" d="M272 427Q379 427 430 385T481 271Q481 239 471 210T444 156T407 112T366 80Q373 78 380 78T396 78H543Q563 78 573 71T583 43Q583 18 574 9T543 0H402Q366 0 334 6T272 31Q239 13 202 7T136 0H0Q-40 0 -40 40Q-40 65 -31 71T0 78H129Q142 78 163 79T214 89Q206 129 193 157T161 206T122 244T78 276Q69 282 67 286T64 296V356Q64 370 74 376Q86 383 105 392T150 409T207 422T272 427ZM272 349Q227 349 193 340T148 323Q199 294 237 242T293 118Q309 128 327 143T359 177T383 218T393 265Q393 290 384 306T358 331T320 345T272 349ZM238 508Q228 508 228 518V591Q228 601 238 601H306Q316 601 316 591V518Q316 508 306 508H238Z"  />
<glyph unicode="&#x63A;" arabic-form="terminal" horiz-adv-x="573" d="M284 427Q391 427 442 385T493 271Q493 239 483 211T458 159T422 116T383 83Q394 81 405 80T426 78H572Q592 78 602 71T612 43Q612 18 603 9T572 0H423Q394 0 361 7T302 31Q273 20 241 12T183 -7T140 -32T123 -72Q123 -96 141 -108T209 -121H305Q315 -121 315 -131V-189Q315 -199 305 -199H202Q121 -199 79 -170T37 -72Q37 -29 55 -1T102 44T163 70T226 86Q219 126 205 155T173 205T134 243T90 276Q81 282 79 286T76 296V356Q76 370 86 376Q98 383 117 392T162 409T219 422T284 427ZM284 349Q239 349 205 340T160 323Q211 294 249 242T305 118Q321 128 339 143T371 177T395 218T405 265Q405 290 396 306T370 331T332 345T284 349ZM268 508Q258 508 258 518V591Q258 601 268 601H336Q346 601 346 591V518Q346 508 336 508H268Z"  />
<glyph unicode="&#x63A;" arabic-form="isolated" horiz-adv-x="546" d="M491 78Q501 78 501 68V10Q501 0 491 0H179Q148 0 136 -17T123 -59Q123 -91 140 -106T209 -121H305Q315 -121 315 -131V-189Q315 -199 305 -199H202Q125 -199 81 -166T37 -61Q37 -27 46 -3T71 38T106 63T146 75Q122 99 106 134T89 220Q89 251 98 287T131 355T196 406T303 427Q362 427 405 406T474 346Q479 338 471 332L427 296Q419 290 413 297Q368 349 300 349Q238 349 208 313T178 221Q178 184 190 158T217 115T249 90T274 78H491ZM264 507Q254 507 254 517V590Q254 600 264 600H332Q342 600 342 590V517Q342 507 332 507H264Z"  />
<glyph unicode="&#x640;" horiz-adv-x="111" d="M1 0Q-19 0 -26 8T-33 38Q-33 63 -27 70T1 78H111Q131 78 141 70T151 41Q151 16 142 8T111 0H1Z"  />
<glyph unicode="&#x641;" arabic-form="initial" horiz-adv-x="530" d="M7 0Q-14 0 -23 7T-33 41Q-33 61 -23 69T7 78H120Q91 127 91 209Q91 266 105 307T146 375T206 414T282 427Q371 427 422 376T473 209Q473 152 460 112T422 48T362 12T282 0H7ZM282 349Q229 349 202 313T175 215Q175 141 200 110T282 78Q338 78 363 107T389 209Q389 275 364 312T282 349ZM247 508Q237 508 237 518V591Q237 601 247 601H315Q325 601 325 591V518Q325 508 315 508H247Z"  />
<glyph unicode="&#x641;" arabic-form="medial" horiz-adv-x="520" d="M257 427Q308 427 345 414T406 376T443 319T455 245Q455 194 432 150T366 77Q371 78 381 78H520Q540 78 550 71T560 43Q560 18 551 9T520 0H387Q351 0 319 3T258 24Q225 6 188 3T121 0H0Q-40 0 -40 40Q-40 65 -31 71T0 78H147Q106 107 83 150T59 245Q59 285 71 318T107 376T169 413T257 427ZM257 349Q209 349 178 321T147 240Q147 186 179 150T257 95Q303 113 335 149T367 240Q367 293 336 321T257 349ZM223 508Q213 508 213 518V591Q213 601 223 601H291Q301 601 301 591V518Q301 508 291 508H223Z"  />
<glyph unicode="&#x641;" arabic-form="terminal" horiz-adv-x="959" d="M696 427Q747 427 784 414T845 376T882 319T894 245Q894 194 871 150T805 77Q810 78 820 78H959Q979 78 989 71T999 43Q999 18 990 9T959 0H826Q790 0 758 3T697 24Q664 6 627 3T560 0H164Q101 0 74 30T47 126V335Q47 345 57 345H121Q131 345 131 335V131Q131 101 142 90T179 78H586Q545 107 522 150T498 245Q498 285 510 318T546 376T608 413T696 427ZM696 349Q648 349 617 321T586 240Q586 186 618 150T696 95Q742 113 774 149T806 240Q806 293 775 321T696 349ZM662 508Q652 508 652 518V591Q652 601 662 601H730Q740 601 740 591V518Q740 508 730 508H662Z"  />
<glyph unicode="&#x641;" arabic-form="isolated" horiz-adv-x="942" d="M164 0Q101 0 74 30T47 126V335Q47 345 57 345H121Q131 345 131 335V131Q131 101 142 90T179 78H532Q503 127 503 209Q503 266 517 307T558 375T618 414T694 427Q783 427 834 376T885 209Q885 152 872 112T834 48T774 12T694 0H164ZM694 349Q641 349 614 313T587 215Q587 141 612 110T694 78Q750 78 775 107T801 209Q801 275 776 312T694 349ZM667 508Q657 508 657 518V591Q657 601 667 601H735Q745 601 745 591V518Q745 508 735 508H667Z"  />
<glyph unicode="&#x642;" arabic-form="initial" horiz-adv-x="540" d="M14 0Q-7 0 -16 7T-26 41Q-26 61 -16 69T14 78H127Q98 127 98 209Q98 266 112 307T153 375T213 414T289 427Q378 427 429 376T480 209Q480 152 467 112T429 48T369 12T289 0H14ZM289 349Q236 349 209 313T182 215Q182 141 207 110T289 78Q345 78 370 107T396 209Q396 275 371 312T289 349ZM314 508Q304 508 304 518V591Q304 601 314 601H382Q392 601 392 591V518Q392 508 382 508H314ZM192 508Q182 508 182 518V591Q182 601 192 601H260Q270 601 270 591V518Q270 508 260 508H192Z"  />
<glyph unicode="&#x642;" arabic-form="medial" horiz-adv-x="520" d="M257 427Q308 427 345 414T406 376T443 319T455 245Q455 194 432 150T366 77Q371 78 381 78H520Q540 78 550 71T560 43Q560 18 551 9T520 0H387Q351 0 319 3T258 24Q225 6 188 3T121 0H0Q-40 0 -40 40Q-40 65 -31 71T0 78H147Q106 107 83 150T59 245Q59 285 71 318T107 376T169 413T257 427ZM257 349Q209 349 178 321T147 240Q147 186 179 150T257 95Q303 113 335 149T367 240Q367 293 336 321T257 349ZM284 508Q274 508 274 518V591Q274 601 284 601H352Q362 601 362 591V518Q362 508 352 508H284ZM162 508Q152 508 152 518V591Q152 601 162 601H230Q240 601 240 591V518Q240 508 230 508H162Z"  />
<glyph unicode="&#x642;" arabic-form="terminal" horiz-adv-x="769" d="M706 0V-59Q706 -85 696 -110T664 -155T605 -187T516 -199H282Q165 -199 104 -141T43 20Q43 79 62 133T108 225Q112 232 122 226L177 196Q185 191 180 183Q162 155 146 114T129 28Q129 -13 142 -41T179 -87T231 -111T294 -119H515Q575 -119 598 -101T622 -58V0H515Q471 0 436 11T375 47T337 112T324 209Q324 266 339 307T380 375T441 414T515 427Q604 427 655 376T706 209V78H776Q796 78 806 70T816 41Q816 15 807 8T776 0H706ZM515 349Q464 349 436 312T408 209Q408 137 436 108T521 78H622V209Q622 275 597 312T515 349ZM540 508Q530 508 530 518V591Q530 601 540 601H608Q618 601 618 591V518Q618 508 608 508H540ZM418 508Q408 508 408 518V591Q408 601 418 601H486Q496 601 496 591V518Q496 508 486 508H418Z"  />
<glyph unicode="&#x642;" arabic-form="isolated" horiz-adv-x="764" d="M699 -59Q699 -85 689 -110T657 -155T598 -187T509 -199H275Q158 -199 97 -141T36 20Q36 79 55 133T101 225Q105 232 115 226L170 196Q178 191 173 183Q155 155 139 114T122 28Q122 -13 135 -41T172 -87T224 -111T287 -119H508Q568 -119 591 -101T615 -58V0H508Q464 0 429 11T368 47T330 112T317 209Q317 266 332 307T373 375T434 414T508 427Q597 427 648 376T699 209V-59ZM508 349Q457 349 429 312T401 209Q401 137 429 108T514 78H615V209Q615 275 590 312T508 349ZM533 508Q523 508 523 518V591Q523 601 533 601H601Q611 601 611 591V518Q611 508 601 508H533ZM411 508Q401 508 401 518V591Q401 601 411 601H479Q489 601 489 591V518Q489 508 479 508H411Z"  />
<glyph unicode="&#x643;" arabic-form="initial" horiz-adv-x="493" d="M177 409H266Q342 409 390 366T438 231V171Q438 121 430 88T404 36T359 8T294 0H0Q-40 0 -40 40Q-40 65 -31 71T0 78H263Q291 78 308 82T334 97T346 125T349 168V230Q349 331 235 331H74Q64 331 64 341V397Q64 402 67 406T73 413L292 671Q298 678 305 674L353 634Q361 628 357 620L177 409Z"  />
<glyph unicode="&#x643;" arabic-form="medial" horiz-adv-x="538" d="M177 409H266Q342 409 390 366T438 231V171Q438 163 438 155T437 139Q439 108 463 93T527 78H538Q558 78 568 70T578 41Q578 15 569 8T538 0H517Q484 0 457 14T418 57Q401 25 371 13T294 0H0Q-40 0 -40 40Q-40 65 -31 71T0 78H263Q291 78 308 82T334 97T346 125T349 168V230Q349 331 235 331H74Q64 331 64 341V397Q64 402 67 406T73 413L292 671Q298 678 305 674L353 634Q361 628 357 620L177 409Z"  />
<glyph unicode="&#x643;" arabic-form="terminal" horiz-adv-x="865" d="M631 78Q657 78 668 89T680 131V670Q680 680 690 680H754Q764 680 764 670V146Q764 112 788 95T854 78H865Q885 78 895 70T905 41Q905 15 896 8T865 0H844Q812 0 788 13T751 52Q738 26 713 13T645 0H164Q101 0 74 30T47 126V335Q47 345 57 345H121Q131 345 131 335V131Q131 101 142 90T179 78H631ZM427 323Q439 323 442 328T445 344V364Q445 389 418 389H364Q350 389 350 403V420Q350 425 351 427T355 432L434 526Q439 531 443 531T450 528L470 511Q475 506 474 502T470 494L419 434H435Q494 434 494 364V346Q494 306 481 292T436 278H323Q313 278 313 288V313Q313 323 323 323H427Z"  />
<glyph unicode="&#x643;" arabic-form="isolated" horiz-adv-x="834" d="M631 78Q657 78 668 89T680 131V670Q680 680 690 680H754Q764 680 764 670V126Q764 61 737 31T645 0H164Q101 0 74 30T47 126V335Q47 345 57 345H121Q131 345 131 335V131Q131 101 142 90T179 78H631ZM427 323Q439 323 442 328T445 344V364Q445 389 418 389H364Q350 389 350 403V420Q350 425 351 427T355 432L434 526Q439 531 443 531T450 528L470 511Q475 506 474 502T470 494L419 434H435Q494 434 494 364V346Q494 306 481 292T436 278H323Q313 278 313 288V313Q313 323 323 323H427Z"  />
<glyph unicode="&#x644;" arabic-form="initial" horiz-adv-x="265" d="M0 0Q-20 0 -30 7T-40 35Q-40 60 -31 69T0 78H63Q88 78 99 89T111 131V670Q111 680 121 680H185Q195 680 195 670V126Q195 61 168 31T78 0H0Z"  />
<glyph unicode="&#x644;" arabic-form="medial" horiz-adv-x="296" d="M0 0Q-20 0 -30 7T-40 35Q-40 60 -31 69T0 78H63Q88 78 99 89T111 131V670Q111 680 121 680H185Q195 680 195 670V146Q195 112 219 95T285 78H297Q317 78 327 70T337 41Q337 15 328 8T297 0H275Q243 0 219 13T182 52Q157 0 78 0H0Z"  />
<glyph unicode="&#x644;" arabic-form="terminal" horiz-adv-x="617" d="M110 225Q114 232 124 226L179 196Q187 191 182 183Q164 155 148 114T131 28Q131 -15 145 -43T183 -88T233 -112T286 -119Q350 -119 391 -86T432 21V670Q432 680 442 680H506Q516 680 516 670V146Q516 112 540 95T606 78H617Q637 78 647 70T657 41Q657 15 648 8T617 0H596Q544 0 516 32V20Q516 -83 456 -141T281 -199Q227 -199 184 -185T110 -142T62 -74T45 20Q45 79 64 133T110 225Z"  />
<glyph unicode="&#x644;" arabic-form="isolated" horiz-adv-x="586" d="M110 225Q114 232 124 226L179 196Q187 191 182 183Q164 155 148 114T131 28Q131 -15 145 -43T183 -88T233 -112T286 -119Q350 -119 391 -86T432 21V670Q432 680 442 680H506Q516 680 516 670V20Q516 -83 456 -141T281 -199Q227 -199 184 -185T110 -142T62 -74T45 20Q45 79 64 133T110 225Z"  />
<glyph unicode="&#x645;" arabic-form="initial" horiz-adv-x="548" d="M302 -7Q255 -7 219 6T158 49Q137 17 104 9T43 0H0Q-40 0 -40 40Q-40 65 -31 71T0 78H50Q61 78 72 82T92 97T106 125T112 169Q111 179 111 188T111 209Q111 324 162 375T302 427Q391 427 442 376T493 209Q493 152 480 111T442 44T382 6T302 -7ZM302 349Q246 349 221 312T195 209Q195 137 220 104T302 71Q358 71 383 104T409 209Q409 275 384 312T302 349Z"  />
<glyph unicode="&#x645;" arabic-form="medial" horiz-adv-x="581" d="M302 -7Q255 -7 219 6T158 49Q137 17 104 9T43 0H0Q-40 0 -40 40Q-40 65 -31 71T0 78H50Q61 78 72 82T92 97T106 125T112 169Q111 179 111 188T111 209Q111 324 162 375T302 427Q391 427 442 376T493 209Q493 198 493 187T491 166Q492 115 511 97T553 78H582Q602 78 612 70T622 41Q622 15 613 8T582 0H560Q546 0 530 1T499 8T469 22T445 48Q420 19 384 6T302 -7ZM302 349Q246 349 221 312T195 209Q195 137 220 104T302 71Q358 71 383 104T409 209Q409 275 384 312T302 349Z"  />
<glyph unicode="&#x645;" arabic-form="terminal" horiz-adv-x="625" d="M347 -7Q295 -7 256 10T191 64Q181 48 168 41T142 26T120 5T111 -36V-199H27V-15Q27 16 36 36T59 70T89 93T120 111T145 131T158 162Q157 173 157 184T156 209Q156 324 207 375T347 427Q436 427 487 376T538 209Q538 198 538 187T536 166Q537 115 556 97T598 78H626Q646 78 656 70T666 41Q666 15 657 8T626 0H605Q591 0 575 1T544 8T514 22T490 48Q465 19 429 6T347 -7ZM347 349Q291 349 266 312T240 209Q240 137 265 104T347 71Q403 71 428 104T454 209Q454 275 429 312T347 349Z"  />
<glyph unicode="&#x645;" arabic-form="isolated" horiz-adv-x="593" d="M347 -7Q295 -7 256 10T191 64Q181 48 168 41T142 26T120 5T111 -36V-199H27V-15Q27 16 36 36T59 70T89 93T120 111T145 131T158 162Q157 173 157 184T156 209Q156 324 207 375T347 427Q436 427 487 376T538 209Q538 152 525 111T487 44T427 6T347 -7ZM347 349Q291 349 266 312T240 209Q240 137 265 104T347 71Q403 71 428 104T454 209Q454 275 429 312T347 349Z"  />
<glyph unicode="&#x646;" arabic-form="initial" horiz-adv-x="252" d="M7 0Q-13 0 -23 7T-33 35Q-33 60 -24 69T7 78H70Q95 78 106 89T118 131V399Q118 409 128 409H192Q202 409 202 399V126Q202 61 175 31T85 0H7ZM126 508Q116 508 116 518V591Q116 601 126 601H194Q204 601 204 591V518Q204 508 194 508H126Z"  />
<glyph unicode="&#x646;" arabic-form="medial" horiz-adv-x="296" d="M7 0Q-13 0 -23 7T-33 35Q-33 60 -24 69T7 78H70Q95 78 106 89T118 131V399Q118 409 128 409H192Q202 409 202 399V146Q202 112 226 95T292 78H304Q324 78 334 70T344 41Q344 15 335 8T304 0H282Q250 0 226 13T189 52Q164 0 85 0H7ZM126 508Q116 508 116 518V591Q116 601 126 601H194Q204 601 204 591V518Q204 508 194 508H126Z"  />
<glyph unicode="&#x646;" arabic-form="terminal" horiz-adv-x="610" d="M110 225Q114 232 124 226L179 196Q187 191 182 183Q164 155 148 114T131 28Q131 -15 145 -43T183 -88T233 -112T286 -119Q350 -119 391 -86T432 21V313Q432 323 442 323H506Q516 323 516 313V146Q516 112 540 95T606 78H610Q630 78 640 70T650 41Q650 15 641 8T610 0H596Q544 0 516 32V20Q516 -83 456 -141T281 -199Q227 -199 184 -185T110 -142T62 -74T45 20Q45 79 64 133T110 225ZM281 348Q271 348 271 358V431Q271 441 281 441H349Q359 441 359 431V358Q359 348 349 348H281Z"  />
<glyph unicode="&#x646;" arabic-form="isolated" horiz-adv-x="581" d="M110 225Q114 232 124 226L179 196Q187 191 182 183Q164 155 148 114T131 28Q131 -15 145 -43T183 -88T233 -112T286 -119Q350 -119 391 -86T432 21V313Q432 323 442 323H506Q516 323 516 313V20Q516 -83 456 -141T281 -199Q227 -199 184 -185T110 -142T62 -74T45 20Q45 79 64 133T110 225ZM281 348Q271 348 271 358V431Q271 441 281 441H349Q359 441 359 431V358Q359 348 349 348H281Z"  />
<glyph unicode="&#x647;" arabic-form="initial" horiz-adv-x="602" d="M287 363Q253 363 216 354T139 322Q135 320 131 319T125 321L97 368Q91 379 97 383Q143 413 195 427T297 441Q372 441 420 418T496 358T536 276T547 187Q547 132 539 96T513 39T468 9T403 0H0Q-40 0 -40 40Q-40 65 -31 71T0 78H125Q111 108 111 148Q111 219 148 255T242 291Q269 291 293 282T335 255T363 211T373 148Q373 108 359 78H372Q400 78 417 83T443 100T455 133T458 187Q458 221 450 253T421 309T368 348T287 363ZM242 219Q214 219 199 201T183 148Q183 113 197 97T236 78H247Q273 80 286 96T299 148Q299 182 285 200T242 219Z"  />
<glyph unicode="&#x647;" arabic-form="medial" horiz-adv-x="560" d="M-40 40Q-40 65 -31 71T0 78H111V209Q111 266 125 307T165 375T224 414T298 427Q390 427 440 377T490 221Q490 179 478 140T450 78H561Q582 78 591 72T601 40Q601 0 561 0H460Q481 -26 481 -69Q481 -99 470 -124T437 -168T381 -198T303 -209Q210 -209 161 -172T111 -56V0H0Q-40 0 -40 40ZM298 349Q250 349 223 315T195 220V78H308Q335 78 353 90T384 121T401 165T406 214Q406 279 379 314T298 349ZM299 -131Q353 -131 375 -114T397 -66Q397 -55 394 -44T383 -22T360 -6T322 0H195V-56Q195 -131 299 -131Z"  />
<glyph unicode="&#x647;" arabic-form="terminal" horiz-adv-x="501" d="M325 427V470Q325 480 335 480H399Q409 480 409 470V131Q409 101 420 90T457 78H501Q541 78 541 38Q541 13 532 7T501 0H442Q393 0 366 18T329 80Q309 62 281 53T220 44Q181 44 148 55T90 88T51 145T37 227Q37 283 53 321T95 382T155 416T227 427H325ZM221 122Q278 122 301 155T325 249V349H227Q180 349 151 323T121 227Q121 175 147 149T221 122Z"  />
<glyph unicode="&#x647;" arabic-form="isolated" horiz-adv-x="482" d="M236 -7Q147 -7 96 44T45 209Q45 324 96 375T236 427Q325 427 376 376T427 209Q427 152 414 111T376 44T316 6T236 -7ZM236 349Q180 349 155 312T129 209Q129 137 154 104T236 71Q292 71 317 104T343 209Q343 275 318 312T236 349Z"  />
<glyph unicode="&#x648;" arabic-form="terminal" horiz-adv-x="507" d="M140 -199Q130 -199 130 -189V-131Q130 -121 140 -121H260Q280 -121 297 -117T326 -102T346 -73T353 -26V0H246Q202 0 167 10T106 44T68 107T55 203Q55 260 70 302T112 372T174 413T248 427Q337 427 387 376T437 209V78H506Q526 78 536 70T546 41Q546 15 537 8T506 0H437V-24Q437 -71 425 -104T390 -158T335 -189T264 -199H140ZM248 349Q198 349 169 309T139 203Q139 132 167 105T252 78H353V209Q353 275 329 312T248 349Z"  />
<glyph unicode="&#x648;" arabic-form="isolated" horiz-adv-x="502" d="M140 -199Q130 -199 130 -189V-131Q130 -121 140 -121H260Q280 -121 297 -117T326 -102T346 -73T353 -26V0H246Q202 0 167 10T106 44T68 107T55 203Q55 260 70 302T111 372T173 413T248 427Q337 427 387 376T437 209V-24Q437 -71 425 -104T390 -158T335 -189T264 -199H140ZM248 349Q197 349 168 309T139 203Q139 132 167 105T252 78H353V209Q353 275 329 312T248 349Z"  />
<glyph unicode="&#x649;" arabic-form="initial" horiz-adv-x="265" d="M0 0Q-20 0 -30 7T-40 35Q-40 60 -31 69T0 78H63Q88 78 99 89T111 131V399Q111 409 121 409H185Q195 409 195 399V126Q195 61 168 31T78 0H0Z"  />
<glyph unicode="&#x649;" arabic-form="medial" horiz-adv-x="296" d="M0 0Q-20 0 -30 7T-40 35Q-40 60 -31 69T0 78H63Q88 78 99 89T111 131V399Q111 409 121 409H185Q195 409 195 399V146Q195 112 219 95T285 78H297Q317 78 327 70T337 41Q337 15 328 8T297 0H275Q243 0 219 13T182 52Q157 0 78 0H0Z"  />
<glyph unicode="&#x649;" arabic-form="terminal" horiz-adv-x="748" d="M433 149Q465 137 495 125T553 102T610 85T667 78H748Q768 78 778 71T788 43Q788 18 779 9T748 0H677Q682 -8 689 -26T696 -67Q696 -91 687 -114T655 -157T597 -187T509 -199H275Q158 -199 97 -141T36 20Q36 79 55 133T101 225Q105 232 115 226L170 196Q178 191 173 183Q155 155 139 114T122 28Q122 -13 135 -41T172 -87T224 -111T287 -119H508Q568 -119 591 -101T615 -58Q615 -36 602 -20T562 9T496 37T405 70Q396 73 399 82L421 142Q424 152 433 149Z"  />
<glyph unicode="&#x649;" arabic-form="isolated" horiz-adv-x="775" d="M696 -61Q696 -87 687 -112T655 -156T597 -187T509 -199H275Q158 -199 97 -141T36 20Q36 79 55 133T101 225Q105 232 115 226L170 196Q178 191 173 183Q155 155 139 114T122 28Q122 -13 135 -41T172 -87T224 -111T287 -119H508Q568 -119 591 -101T615 -58Q615 -35 583 -11T496 47Q474 60 453 76T416 113T390 158T380 212Q380 243 391 272T425 323T482 360T560 374Q596 374 622 368T668 352T704 326T735 293Q741 286 732 279L688 243Q680 237 674 244Q652 268 627 282T560 296Q520 296 492 275T464 213Q464 193 474 177T502 145T541 115T586 86Q641 52 668 19T696 -61Z"  />
<glyph unicode="&#x64A;" arabic-form="initial" horiz-adv-x="276" d="M0 0Q-20 0 -30 7T-40 35Q-40 60 -31 69T0 78H69Q94 78 105 89T117 131V399Q117 409 127 409H191Q201 409 201 399V126Q201 61 174 31T84 0H0ZM165 -186Q155 -186 155 -176V-103Q155 -93 165 -93H233Q243 -93 243 -103V-176Q243 -186 233 -186H165ZM43 -186Q33 -186 33 -176V-103Q33 -93 43 -93H111Q121 -93 121 -103V-176Q121 -186 111 -186H43Z"  />
<glyph unicode="&#x64A;" arabic-form="medial" horiz-adv-x="309" d="M7 0Q-13 0 -23 7T-33 35Q-33 60 -24 69T7 78H75Q100 78 111 89T123 131V399Q123 409 133 409H197Q207 409 207 399V146Q207 112 231 95T297 78H309Q329 78 339 70T349 41Q349 15 340 8T309 0H287Q255 0 231 13T194 52Q169 0 90 0H7ZM180 -186Q170 -186 170 -176V-103Q170 -93 180 -93H248Q258 -93 258 -103V-176Q258 -186 248 -186H180ZM58 -186Q48 -186 48 -176V-103Q48 -93 58 -93H126Q136 -93 136 -103V-176Q136 -186 126 -186H58Z"  />
<glyph unicode="&#x64A;" arabic-form="terminal" horiz-adv-x="755" d="M440 149Q472 137 502 125T560 102T617 85T674 78H755Q775 78 785 71T795 43Q795 18 786 9T755 0H684Q689 -8 696 -26T703 -67Q703 -91 694 -114T662 -157T604 -187T516 -199H282Q165 -199 104 -141T43 20Q43 79 62 133T108 225Q112 232 122 226L177 196Q185 191 180 183Q162 155 146 114T129 28Q129 -13 142 -41T179 -87T231 -111T294 -119H515Q575 -119 598 -101T622 -58Q622 -36 609 -20T569 9T503 37T412 70Q403 73 406 82L428 142Q431 152 440 149ZM398 -372Q388 -372 388 -362V-289Q388 -279 398 -279H466Q476 -279 476 -289V-362Q476 -372 466 -372H398ZM276 -372Q266 -372 266 -362V-289Q266 -279 276 -279H344Q354 -279 354 -289V-362Q354 -372 344 -372H276Z"  />
<glyph unicode="&#x64A;" arabic-form="isolated" horiz-adv-x="775" d="M696 14Q696 -12 687 -37T655 -81T597 -112T509 -124H275Q158 -124 97 -66T36 95Q36 154 55 208T101 300Q105 307 115 301L170 271Q178 266 173 258Q155 230 139 189T122 103Q122 62 135 34T172 -12T224 -36T287 -44H508Q568 -44 591 -26T615 17Q615 40 583 64T496 122Q474 135 453 151T416 188T390 233T380 287Q380 318 391 347T425 398T482 435T560 449Q596 449 622 443T668 427T704 401T735 368Q741 361 732 354L688 318Q680 312 674 319Q652 343 627 357T560 371Q520 371 492 350T464 288Q464 268 474 252T502 220T541 190T586 161Q641 127 668 94T696 14ZM394 -290Q384 -290 384 -280V-207Q384 -197 394 -197H462Q472 -197 472 -207V-280Q472 -290 462 -290H394ZM272 -290Q262 -290 262 -280V-207Q262 -197 272 -197H340Q350 -197 350 -207V-280Q350 -290 340 -290H272Z"  />
<glyph unicode="&#x64B;" horiz-adv-x="0" d="M-125 818Q-135 818 -135 828V842Q-135 852 -125 852H129Q139 852 139 842V828Q139 818 129 818H-125ZM-125 750Q-135 750 -135 760V774Q-135 784 -125 784H129Q139 784 139 774V760Q139 750 129 750H-125Z"  />
<glyph unicode="&#x64C;" horiz-adv-x="0" d="M-140 873Q-150 873 -150 883V897Q-150 907 -140 907H-134Q-102 907 -80 886T-58 818Q-58 792 -43 787T1 781Q23 781 37 785T61 796T76 809T83 823H50Q16 823 -3 841T-23 890Q-23 922 -2 943T51 965Q83 965 104 944T126 874Q126 838 117 814T91 774T51 753T1 747Q-19 747 -36 749T-66 758T-86 780T-94 818Q-94 847 -103 860T-130 873H-140ZM90 856Q91 860 91 865T91 874Q91 902 80 916T51 931Q31 931 22 918T12 890Q12 880 16 874T28 863T42 858T55 856H90Z"  />
<glyph unicode="&#x64D;" horiz-adv-x="0" d="M-123 -131Q-133 -131 -133 -121V-107Q-133 -97 -123 -97H131Q141 -97 141 -107V-121Q141 -131 131 -131H-123ZM-123 -199Q-133 -199 -133 -189V-175Q-133 -165 -123 -165H131Q141 -165 141 -175V-189Q141 -199 131 -199H-123Z"  />
<glyph unicode="&#x64E;" horiz-adv-x="0" d="M-125 750Q-135 750 -135 760V774Q-135 784 -125 784H129Q139 784 139 774V760Q139 750 129 750H-125Z"  />
<glyph unicode="&#x64F;" horiz-adv-x="0" d="M40 853Q41 857 41 862T41 871Q41 899 30 913T1 928Q-19 928 -28 915T-38 887Q-38 877 -34 871T-22 860T-8 855T5 853H40ZM-49 778Q-27 778 -13 782T11 793T26 806T33 820H0Q-34 820 -53 838T-73 887Q-73 919 -52 940T1 962Q33 962 54 941T76 871Q76 835 67 811T41 771T1 750T-49 744H-77Q-87 744 -87 754V768Q-87 778 -77 778H-49Z"  />
<glyph unicode="&#x650;" horiz-adv-x="0" d="M-123 -138Q-133 -138 -133 -128V-114Q-133 -104 -123 -104H131Q141 -104 141 -114V-128Q141 -138 131 -138H-123Z"  />
<glyph unicode="&#x651;" horiz-adv-x="0" d="M-128 898Q-128 908 -118 908H-100Q-90 908 -90 898V824Q-90 805 -81 795T-55 784Q-39 784 -30 793T-20 820V898Q-20 908 -10 908H8Q18 908 18 898V820Q18 803 27 794T53 784Q69 784 78 794T88 824V898Q88 908 98 908H116Q126 908 126 898V827Q126 792 107 770T53 748Q18 748 -1 770Q-20 748 -55 748Q-89 748 -108 770T-128 827V898Z"  />
<glyph unicode="&#x652;" horiz-adv-x="0" d="M-80 826Q-80 859 -57 882T-1 906Q32 906 55 883T79 826Q79 793 56 770T-1 747Q-34 747 -57 770T-80 826ZM-44 827Q-44 809 -31 796T0 783Q18 783 31 796T44 827Q44 845 31 858T0 871Q-18 871 -31 858T-44 827Z"  />
<glyph unicode="&#x653;" horiz-adv-x="0" d="M-176 771Q-169 803 -149 820T-102 837Q-80 837 -56 829T-8 811T41 793T87 785Q104 785 110 792T117 819Q117 829 127 829H149Q159 829 159 819Q159 778 141 757T90 736Q64 736 38 744T-13 761T-61 779T-102 787Q-112 787 -121 782T-135 759Q-138 749 -148 752L-169 758Q-178 761 -176 771Z"  />
<glyph unicode="&#x654;" horiz-adv-x="0" d="M-66 772Q-74 783 -79 799T-84 834Q-84 850 -79 867T-62 899T-31 923T18 933Q44 933 64 924T97 898Q100 891 97 888L76 871Q69 865 65 869Q56 879 44 885T17 892Q-11 892 -24 875T-38 835Q-38 813 -27 797T-4 772H99Q105 772 105 765V737Q105 730 99 730H-104Q-110 730 -110 737V765Q-110 772 -104 772H-66Z"  />
<glyph unicode="&#x655;" horiz-adv-x="0" d="M-66 -231Q-74 -219 -79 -204T-84 -169Q-84 -153 -79 -136T-62 -104T-31 -80T18 -70Q44 -70 64 -79T97 -105Q100 -112 97 -115L76 -132Q69 -138 65 -134Q56 -124 44 -118T17 -111Q-11 -111 -24 -128T-38 -168Q-38 -190 -27 -206T-4 -231H99Q105 -231 105 -238V-266Q105 -273 99 -273H-104Q-110 -273 -110 -266V-238Q-110 -231 -104 -231H-66Z"  />
<glyph unicode="&#x656;" horiz-adv-x="0" d="M19 -238Q19 -248 9 -248H-9Q-19 -248 -19 -238V-114Q-19 -104 -9 -104H9Q19 -104 19 -114V-238Z"  />
<glyph unicode="&#x658;" horiz-adv-x="0" d="M-88 888Q-88 898 -78 898H-60Q-50 898 -50 888V838Q-50 812 -37 797T0 782Q23 782 36 797T49 838V888Q49 898 59 898H77Q87 898 87 888V840Q87 798 64 773T0 748Q-41 748 -64 773T-88 840V888Z"  />
<glyph unicode="&#x660;" horiz-adv-x="450" d="M253 135Q239 121 227 121T198 135L153 181Q138 196 137 207T153 235L198 280Q211 293 222 295T249 283L298 235Q312 221 313 209T298 180L253 135Z"  />
<glyph unicode="&#x661;" horiz-adv-x="450" d="M267 10Q267 0 257 0H193Q183 0 183 10V595Q183 605 193 605H257Q267 605 267 595V10Z"  />
<glyph unicode="&#x662;" horiz-adv-x="450" d="M105 478Q105 541 133 573T225 605H398Q408 605 408 595V537Q408 527 398 527H250Q213 527 201 511T189 461V10Q189 0 179 0H115Q105 0 105 10V478Z"  />
<glyph unicode="&#x663;" horiz-adv-x="450" d="M126 435H196V548Q196 558 206 558H270Q280 558 280 548V435Q318 437 333 448T348 491V595Q348 605 358 605H422Q432 605 432 595V495Q432 454 421 428T391 386T343 365T280 359H126V10Q126 0 116 0H52Q42 0 42 10V595Q42 605 52 605H116Q126 605 126 595V435Z"  />
<glyph unicode="&#x664;" horiz-adv-x="450" d="M384 78Q394 78 394 68V10Q394 0 384 0H257Q218 0 183 9T120 38T77 88T61 163Q61 179 64 199T78 240T106 281T153 316Q121 337 106 372T91 439Q91 521 143 563T279 605H344Q354 605 354 595V537Q354 527 344 527H277Q229 527 203 507T176 438Q176 414 185 398T208 370T240 354T277 349H343Q353 349 353 339V281Q353 271 343 271H250Q207 271 177 245T147 169Q147 144 156 127T181 99T216 83T257 78H384Z"  />
<glyph unicode="&#x665;" horiz-adv-x="450" d="M223 0Q191 0 160 6T104 33T64 93T48 198V326Q48 407 61 461T99 548T155 593T226 607Q263 607 295 595T351 550T388 463T402 324V203Q402 139 388 100T349 38T292 8T223 0ZM225 81Q248 81 265 86T294 105T312 143T318 207V319Q318 433 296 482T225 532Q201 532 184 521T155 485T138 420T132 322V207Q132 166 138 142T156 104T185 86T225 81Z"  />
<glyph unicode="&#x666;" horiz-adv-x="450" d="M71 527Q61 527 61 537V595Q61 605 71 605H244Q307 605 335 573T364 478V10Q364 0 354 0H290Q280 0 280 10V461Q280 495 268 511T219 527H71Z"  />
<glyph unicode="&#x667;" horiz-adv-x="450" d="M342 604Q345 614 354 611L419 595Q430 592 428 584L267 9Q264 -2 253 -3T224 -5Q208 -5 197 -4T182 9L22 584Q20 592 31 595L96 611Q105 614 108 604L224 142L342 604Z"  />
<glyph unicode="&#x668;" horiz-adv-x="450" d="M108 -3Q105 -13 96 -10L31 6Q20 9 22 17L183 592Q186 603 197 604T226 606Q242 606 253 605T268 592L428 17Q430 9 419 6L354 -10Q345 -13 342 -3L226 459L108 -3Z"  />
<glyph unicode="&#x669;" horiz-adv-x="450" d="M236 260Q200 260 168 270T112 300T74 352T60 428Q60 468 72 500T107 556T161 592T228 605Q309 605 347 562T386 447V10Q386 0 376 0H312Q302 0 302 10V260H236ZM302 339V437Q302 480 283 503T226 527Q190 527 166 502T141 431Q141 382 168 361T232 339H302Z"  />
<glyph unicode="&#x66A;" horiz-adv-x="670" d="M480 620Q482 624 485 627T493 630H561Q571 630 568 620L182 -2Q180 -6 177 -9T169 -12H101Q96 -12 94 -9T94 -2L480 620ZM215 454Q202 441 192 441T166 454L126 495Q112 509 112 519T126 543L166 583Q177 595 187 597T211 586L255 543Q267 531 268 520T255 494L215 454ZM479 25Q466 12 456 12T430 25L390 66Q376 80 376 90T390 114L430 154Q441 166 451 168T475 157L519 114Q531 102 532 91T519 65L479 25Z"  />
<glyph unicode="&#x66B;" horiz-adv-x="230" d="M70 96Q70 106 80 106H150Q160 106 160 96V3Q160 -5 159 -9T154 -19L92 -101Q86 -108 79 -108Q70 -108 70 -99V96H70Z"  />
<glyph unicode="&#x66C;" horiz-adv-x="230" d="M70 230Q70 240 80 240H150Q160 240 160 230V137Q160 129 159 125T154 115L92 33Q86 26 79 26Q70 26 70 35V230H70Z"  />
<glyph unicode="&#x66D;" horiz-adv-x="343" d="M106 490Q100 481 92 487L89 489Q80 494 85 503L130 593L37 642Q31 645 34 653L36 659Q38 665 44 664L148 651L166 750Q166 760 176 760H182Q192 760 192 750L208 651L312 664Q318 665 320 659L322 653Q325 645 319 642L226 593L271 503Q276 494 267 489L264 487Q258 482 250 490L178 560L106 490Z"  />
<glyph unicode="&#x670;" horiz-adv-x="0" d="M19 760Q19 750 9 750H-9Q-19 750 -19 760V884Q-19 894 -9 894H9Q19 894 19 884V760Z"  />
<glyph unicode="&#x671;" arabic-form="terminal" horiz-adv-x="246" d="M70 670Q70 680 80 680H144Q154 680 154 670V131Q154 101 165 90T202 78H246Q286 78 286 38Q286 13 277 7T246 0H187Q124 0 97 30T70 126V670ZM26 795Q36 795 36 806V899Q36 906 44 906H67Q75 906 75 899V888Q90 896 107 900T142 905Q187 905 204 882T222 825Q222 790 209 775T168 759H14Q7 759 7 766V788Q7 795 14 795H26ZM140 869Q124 869 107 864T75 852V795H159Q175 795 179 801T183 826Q183 846 174 857T140 869Z"  />
<glyph unicode="&#x671;" arabic-form="isolated" horiz-adv-x="224" d="M154 10Q154 0 144 0H80Q70 0 70 10V670Q70 680 80 680H144Q154 680 154 670V10ZM20 795Q30 795 30 806V899Q30 906 38 906H61Q69 906 69 899V888Q84 896 101 900T136 905Q181 905 198 882T216 825Q216 790 203 775T162 759H8Q1 759 1 766V788Q1 795 8 795H20ZM134 869Q118 869 101 864T69 852V795H153Q169 795 173 801T177 826Q177 846 168 857T134 869Z"  />
<glyph unicode="&#x679;" arabic-form="initial" horiz-adv-x="265" d="M0 0Q-20 0 -30 7T-40 35Q-40 60 -31 69T0 78H63Q88 78 99 89T111 131V399Q111 409 121 409H185Q195 409 195 399V126Q195 61 168 31T78 0H0ZM64 540Q74 540 74 551V717Q74 724 82 724H105Q113 724 113 717V633Q128 641 145 645T180 650Q225 650 242 627T260 570Q260 535 247 520T206 504H73H68H52Q45 504 45 511V533Q45 540 52 540H64ZM178 614Q162 614 145 609T113 597V550V540H197Q213 540 217 546T221 571Q221 591 212 602T178 614Z"  />
<glyph unicode="&#x679;" arabic-form="medial" horiz-adv-x="296" d="M7 0Q-13 0 -23 7T-33 35Q-33 60 -24 69T7 78H70Q95 78 106 89T118 131V399Q118 409 128 409H192Q202 409 202 399V146Q202 112 226 95T292 78H304Q324 78 334 70T344 41Q344 15 335 8T304 0H282Q250 0 226 13T189 52Q164 0 85 0H7ZM71 540Q81 540 81 551V717Q81 724 89 724H112Q120 724 120 717V633Q135 641 152 645T187 650Q232 650 249 627T267 570Q267 535 254 520T213 504H80H75H59Q52 504 52 511V533Q52 540 59 540H71ZM185 614Q169 614 152 609T120 597V550V540H204Q220 540 224 546T228 571Q228 591 219 602T185 614Z"  />
<glyph unicode="&#x679;" arabic-form="terminal" horiz-adv-x="865" d="M638 78Q664 78 675 89T687 131V399Q687 409 697 409H761Q771 409 771 399V142Q771 110 796 94T861 78H872Q892 78 902 70T912 41Q912 15 903 8T872 0H851Q819 0 795 13T758 52Q745 26 720 13T652 0H171Q108 0 81 30T54 126V335Q54 345 64 345H128Q138 345 138 335V131Q138 101 149 90T186 78H638H638ZM316 474Q326 474 326 485V651Q326 658 334 658H357Q365 658 365 651V567Q380 575 397 579T432 584Q477 584 494 561T512 504Q512 469 499 454T458 438H325H320H304Q297 438 297 445V467Q297 474 304 474H316ZM430 548Q414 548 397 543T365 531V484V474H449Q465 474 469 480T473 505Q473 525 464 536T430 548Z"  />
<glyph unicode="&#x679;" arabic-form="isolated" horiz-adv-x="821" d="M631 78Q657 78 668 89T680 131V399Q680 409 690 409H754Q764 409 764 399V126Q764 61 737 31T645 0H164Q101 0 74 30T47 126V335Q47 345 57 345H121Q131 345 131 335V131Q131 101 142 90T179 78H631H631ZM309 474Q319 474 319 485V651Q319 658 327 658H350Q358 658 358 651V567Q373 575 390 579T425 584Q470 584 487 561T505 504Q505 469 492 454T451 438H318H313H297Q290 438 290 445V467Q290 474 297 474H309ZM423 548Q407 548 390 543T358 531V484V474H442Q458 474 462 480T466 505Q466 525 457 536T423 548Z"  />
<glyph unicode="&#x67E;" arabic-form="initial" horiz-adv-x="276" d="M0 0Q-20 0 -30 7T-40 35Q-40 60 -31 69T0 78H69Q94 78 105 89T117 131V399Q117 409 127 409H191Q201 409 201 399V126Q201 61 174 31T84 0H0ZM155 -186Q145 -186 145 -176V-103Q145 -93 155 -93H223Q233 -93 233 -103V-176Q233 -186 223 -186H155ZM33 -186Q23 -186 23 -176V-103Q23 -93 33 -93H101Q111 -93 111 -103V-176Q111 -186 101 -186H33ZM94 -303Q84 -303 84 -293V-220Q84 -210 94 -210H162Q172 -210 172 -220V-293Q172 -303 162 -303H94Z"  />
<glyph unicode="&#x67E;" arabic-form="medial" horiz-adv-x="309" d="M7 0Q-13 0 -23 7T-33 35Q-33 60 -24 69T7 78H75Q100 78 111 89T123 131V399Q123 409 133 409H197Q207 409 207 399V146Q207 112 231 95T297 78H309Q329 78 339 70T349 41Q349 15 340 8T309 0H287Q255 0 231 13T194 52Q169 0 90 0H7ZM187 -186Q177 -186 177 -176V-103Q177 -93 187 -93H255Q265 -93 265 -103V-176Q265 -186 255 -186H187ZM65 -186Q55 -186 55 -176V-103Q55 -93 65 -93H133Q143 -93 143 -103V-176Q143 -186 133 -186H65ZM126 -303Q116 -303 116 -293V-220Q116 -210 126 -210H194Q204 -210 204 -220V-293Q204 -303 194 -303H126Z"  />
<glyph unicode="&#x67E;" arabic-form="terminal" horiz-adv-x="865" d="M638 78Q664 78 675 89T687 131V399Q687 409 697 409H761Q771 409 771 399V142Q771 110 796 94T861 78H872Q892 78 902 70T912 41Q912 15 903 8T872 0H851Q819 0 795 13T758 52Q745 26 720 13T652 0H171Q108 0 81 30T54 126V335Q54 345 64 345H128Q138 345 138 335V131Q138 101 149 90T186 78H638H638ZM437 -186Q427 -186 427 -176V-103Q427 -93 437 -93H505Q515 -93 515 -103V-176Q515 -186 505 -186H437ZM315 -186Q305 -186 305 -176V-103Q305 -93 315 -93H383Q393 -93 393 -103V-176Q393 -186 383 -186H315ZM376 -303Q366 -303 366 -293V-220Q366 -210 376 -210H444Q454 -210 454 -220V-293Q454 -303 444 -303H376Z"  />
<glyph unicode="&#x67E;" arabic-form="isolated" horiz-adv-x="821" d="M631 78Q657 78 668 89T680 131V399Q680 409 690 409H754Q764 409 764 399V126Q764 61 737 31T645 0H164Q101 0 74 30T47 126V335Q47 345 57 345H121Q131 345 131 335V131Q131 101 142 90T179 78H631H631ZM430 -186Q420 -186 420 -176V-103Q420 -93 430 -93H498Q508 -93 508 -103V-176Q508 -186 498 -186H430ZM308 -186Q298 -186 298 -176V-103Q298 -93 308 -93H376Q386 -93 386 -103V-176Q386 -186 376 -186H308ZM369 -303Q359 -303 359 -293V-220Q359 -210 369 -210H437Q447 -210 447 -220V-293Q447 -303 437 -303H369Z"  />
<glyph unicode="&#x686;" arabic-form="initial" horiz-adv-x="514" d="M234 349Q200 349 172 335T121 297Q115 290 107 296L63 332Q54 339 60 346Q88 381 129 404T231 427Q300 427 344 406T413 349T449 268T459 173Q459 123 451 90T425 37T380 9T315 0H0Q-40 0 -40 40Q-40 65 -31 71T0 78H284Q312 78 329 82T355 98T367 127T370 173Q370 212 363 244T341 300T299 336T234 349ZM282 -186Q272 -186 272 -176V-103Q272 -93 282 -93H350Q360 -93 360 -103V-176Q360 -186 350 -186H282ZM160 -186Q150 -186 150 -176V-103Q150 -93 160 -93H228Q238 -93 238 -103V-176Q238 -186 228 -186H160ZM221 -303Q211 -303 211 -293V-220Q211 -210 221 -210H289Q299 -210 299 -220V-293Q299 -303 289 -303H221Z"  />
<glyph unicode="&#x686;" arabic-form="medial" horiz-adv-x="559" d="M234 349Q200 349 172 335T121 297Q115 290 107 296L63 332Q54 339 60 346Q88 381 129 404T231 427Q300 427 344 406T413 349T449 268T459 173Q459 164 459 156T458 140Q460 109 484 94T548 78H559Q579 78 589 70T599 41Q599 15 590 8T559 0H538Q504 0 477 14T439 58Q422 26 392 13T315 0H0Q-40 0 -40 40Q-40 65 -31 71T0 78H284Q312 78 329 82T355 98T367 127T370 173Q370 212 363 244T341 300T299 336T234 349ZM282 -186Q272 -186 272 -176V-103Q272 -93 282 -93H350Q360 -93 360 -103V-176Q360 -186 350 -186H282ZM160 -186Q150 -186 150 -176V-103Q150 -93 160 -93H228Q238 -93 238 -103V-176Q238 -186 228 -186H160ZM221 -303Q211 -303 211 -293V-220Q211 -210 221 -210H289Q299 -210 299 -220V-293Q299 -303 289 -303H221Z"  />
<glyph unicode="&#x686;" arabic-form="terminal" horiz-adv-x="602" d="M361 -126Q354 -126 354 -119V-68Q354 -61 361 -61H409Q416 -61 416 -68V-119Q416 -126 409 -126H361ZM276 -126Q269 -126 269 -119V-68Q269 -61 276 -61H324Q331 -61 331 -68V-119Q331 -126 324 -126H276ZM319 -208Q312 -208 312 -201V-150Q312 -143 319 -143H366Q373 -143 373 -150V-201Q373 -208 366 -208H319ZM195 -199Q118 -199 73 -167T27 -62Q27 -21 40 6T75 49T121 71T169 78H327Q355 78 372 82T398 98T410 127T413 173Q413 212 406 244T384 300T342 336T277 349Q243 349 215 335T164 297Q158 290 150 296L106 332Q97 339 103 346Q131 381 172 404T274 427Q343 427 387 406T456 349T492 268T502 173Q502 164 502 156T501 140Q503 109 527 94T591 78H602Q622 78 632 70T642 41Q642 15 633 8T602 0H581Q547 0 520 14T482 58Q465 26 435 13T358 0H169Q138 0 126 -17T113 -60Q113 -92 130 -106T199 -121H240Q250 -121 250 -131V-189Q250 -199 240 -199H195Z"  />
<glyph unicode="&#x686;" arabic-form="isolated" horiz-adv-x="547" d="M361 -126Q354 -126 354 -119V-68Q354 -61 361 -61H409Q416 -61 416 -68V-119Q416 -126 409 -126H361ZM276 -126Q269 -126 269 -119V-68Q269 -61 276 -61H324Q331 -61 331 -68V-119Q331 -126 324 -126H276ZM319 -208Q312 -208 312 -201V-150Q312 -143 319 -143H366Q373 -143 373 -150V-201Q373 -208 366 -208H319ZM27 -62Q27 -21 40 6T75 49T121 71T169 78H327Q355 78 372 82T398 98T410 127T413 173Q413 212 406 244T384 300T342 336T277 349Q243 349 215 335T164 297Q158 290 150 296L106 332Q97 339 103 346Q131 381 172 404T274 427Q343 427 387 406T456 349T492 268T502 173Q502 123 494 90T468 37T423 9T358 0H169Q138 0 126 -17T113 -60Q113 -92 130 -106T199 -121H240Q250 -121 250 -131V-189Q250 -199 240 -199H195Q118 -199 73 -167T27 -62Z"  />
<glyph unicode="&#x688;" arabic-form="terminal" horiz-adv-x="534" d="M433 146Q433 112 457 95T523 78H534Q554 78 564 70T574 41Q574 15 565 8T534 0H513Q479 0 452 14T414 58Q397 25 367 13T289 0H67Q57 0 57 10V68Q57 78 67 78H258Q286 78 303 82T329 97T341 125T344 168V248Q344 349 230 349H114Q104 349 104 359V417Q104 427 114 427H261Q337 427 385 384T433 249V146ZM135 540Q145 540 145 551V717Q145 724 153 724H176Q184 724 184 717V633Q199 641 216 645T251 650Q296 650 313 627T331 570Q331 535 318 520T277 504H144H139H123Q116 504 116 511V533Q116 540 123 540H135ZM249 614Q233 614 216 609T184 597V550V540H268Q284 540 288 546T292 571Q292 591 283 602T249 614Z"  />
<glyph unicode="&#x688;" arabic-form="isolated" horiz-adv-x="488" d="M433 171Q433 121 425 88T399 36T354 8T289 0H67Q57 0 57 10V68Q57 78 67 78H258Q286 78 303 82T329 97T341 125T344 168V248Q344 349 230 349H114Q104 349 104 359V417Q104 427 114 427H261Q337 427 385 384T433 249V171ZM135 540Q145 540 145 551V717Q145 724 153 724H176Q184 724 184 717V633Q199 641 216 645T251 650Q296 650 313 627T331 570Q331 535 318 520T277 504H144H139H123Q116 504 116 511V533Q116 540 123 540H135ZM249 614Q233 614 216 609T184 597V550V540H268Q284 540 288 546T292 571Q292 591 283 602T249 614Z"  />
<glyph unicode="&#x691;" arabic-form="terminal" horiz-adv-x="299" d="M10 -199Q0 -199 0 -189V-131Q0 -121 10 -121H33Q114 -121 114 -36V399Q114 409 124 409H188Q198 409 198 399V146Q198 112 222 95T288 78H299Q319 78 329 70T339 41Q339 15 330 8T299 0H278Q226 0 198 32V-34Q198 -115 157 -157T37 -199H10ZM67 540Q77 540 77 551V717Q77 724 85 724H108Q116 724 116 717V633Q131 641 148 645T183 650Q228 650 245 627T263 570Q263 535 250 520T209 504H76H71H55Q48 504 48 511V533Q48 540 55 540H67ZM181 614Q165 614 148 609T116 597V550V540H200Q216 540 220 546T224 571Q224 591 215 602T181 614Z"  />
<glyph unicode="&#x691;" arabic-form="isolated" horiz-adv-x="263" d="M10 -199Q0 -199 0 -189V-131Q0 -121 10 -121H33Q114 -121 114 -36V399Q114 409 124 409H188Q198 409 198 399V-34Q198 -115 157 -157T37 -199H10ZM66 540Q76 540 76 551V717Q76 724 84 724H107Q115 724 115 717V633Q130 641 147 645T182 650Q227 650 244 627T262 570Q262 535 249 520T208 504H75H70H54Q47 504 47 511V533Q47 540 54 540H66ZM180 614Q164 614 147 609T115 597V550V540H199Q215 540 219 546T223 571Q223 591 214 602T180 614Z"  />
<glyph unicode="&#x698;" arabic-form="terminal" horiz-adv-x="299" d="M10 -199Q0 -199 0 -189V-131Q0 -121 10 -121H33Q114 -121 114 -36V399Q114 409 124 409H188Q198 409 198 399V146Q198 112 222 95T288 78H299Q319 78 329 70T339 41Q339 15 330 8T299 0H278Q226 0 198 32V-34Q198 -115 157 -157T37 -199H10ZM184 508Q174 508 174 518V591Q174 601 184 601H252Q262 601 262 591V518Q262 508 252 508H184ZM62 508Q52 508 52 518V591Q52 601 62 601H130Q140 601 140 591V518Q140 508 130 508H62ZM124 625Q114 625 114 635V708Q114 718 124 718H192Q202 718 202 708V635Q202 625 192 625H124Z"  />
<glyph unicode="&#x698;" arabic-form="isolated" horiz-adv-x="263" d="M10 -199Q0 -199 0 -189V-131Q0 -121 10 -121H33Q114 -121 114 -36V399Q114 409 124 409H188Q198 409 198 399V-34Q198 -115 157 -157T37 -199H10ZM182 508Q172 508 172 518V591Q172 601 182 601H250Q260 601 260 591V518Q260 508 250 508H182ZM60 508Q50 508 50 518V591Q50 601 60 601H128Q138 601 138 591V518Q138 508 128 508H60ZM122 625Q112 625 112 635V708Q112 718 122 718H190Q200 718 200 708V635Q200 625 190 625H122Z"  />
<glyph unicode="&#x6A4;" arabic-form="initial" horiz-adv-x="530" d="M7 0Q-14 0 -23 7T-33 41Q-33 61 -23 69T7 78H120Q91 127 91 209Q91 266 105 307T146 375T206 414T282 427Q371 427 422 376T473 209Q473 152 460 112T422 48T362 12T282 0H7ZM282 349Q229 349 202 313T175 215Q175 141 200 110T282 78Q338 78 363 107T389 209Q389 275 364 312T282 349ZM306 508Q296 508 296 518V591Q296 601 306 601H374Q384 601 384 591V518Q384 508 374 508H306ZM184 508Q174 508 174 518V591Q174 601 184 601H252Q262 601 262 591V518Q262 508 252 508H184ZM246 625Q236 625 236 635V708Q236 718 246 718H314Q324 718 324 708V635Q324 625 314 625H246Z"  />
<glyph unicode="&#x6A4;" arabic-form="medial" horiz-adv-x="520" d="M257 427Q308 427 345 414T406 376T443 319T455 245Q455 194 432 150T366 77Q371 78 381 78H520Q540 78 550 71T560 43Q560 18 551 9T520 0H387Q351 0 319 3T258 24Q225 6 188 3T121 0H0Q-40 0 -40 40Q-40 65 -31 71T0 78H147Q106 107 83 150T59 245Q59 285 71 318T107 376T169 413T257 427ZM257 349Q209 349 178 321T147 240Q147 186 179 150T257 95Q303 113 335 149T367 240Q367 293 336 321T257 349ZM285 508Q275 508 275 518V591Q275 601 285 601H353Q363 601 363 591V518Q363 508 353 508H285ZM163 508Q153 508 153 518V591Q153 601 163 601H231Q241 601 241 591V518Q241 508 231 508H163ZM225 625Q215 625 215 635V708Q215 718 225 718H293Q303 718 303 708V635Q303 625 293 625H225Z"  />
<glyph unicode="&#x6A4;" arabic-form="terminal" horiz-adv-x="959" d="M696 427Q747 427 784 414T845 376T882 319T894 245Q894 194 871 150T805 77Q810 78 820 78H959Q979 78 989 71T999 43Q999 18 990 9T959 0H826Q790 0 758 3T697 24Q664 6 627 3T560 0H164Q101 0 74 30T47 126V335Q47 345 57 345H121Q131 345 131 335V131Q131 101 142 90T179 78H586Q545 107 522 150T498 245Q498 285 510 318T546 376T608 413T696 427ZM696 349Q648 349 617 321T586 240Q586 186 618 150T696 95Q742 113 774 149T806 240Q806 293 775 321T696 349ZM723 508Q713 508 713 518V591Q713 601 723 601H791Q801 601 801 591V518Q801 508 791 508H723ZM601 508Q591 508 591 518V591Q591 601 601 601H669Q679 601 679 591V518Q679 508 669 508H601ZM663 625Q653 625 653 635V708Q653 718 663 718H731Q741 718 741 708V635Q741 625 731 625H663Z"  />
<glyph unicode="&#x6A4;" arabic-form="isolated" horiz-adv-x="942" d="M164 0Q101 0 74 30T47 126V335Q47 345 57 345H121Q131 345 131 335V131Q131 101 142 90T179 78H532Q503 127 503 209Q503 266 517 307T558 375T618 414T694 427Q783 427 834 376T885 209Q885 152 872 112T834 48T774 12T694 0H164ZM694 349Q641 349 614 313T587 215Q587 141 612 110T694 78Q750 78 775 107T801 209Q801 275 776 312T694 349ZM719 508Q709 508 709 518V591Q709 601 719 601H787Q797 601 797 591V518Q797 508 787 508H719ZM597 508Q587 508 587 518V591Q587 601 597 601H665Q675 601 675 591V518Q675 508 665 508H597ZM659 625Q649 625 649 635V708Q649 718 659 718H727Q737 718 737 708V635Q737 625 727 625H659Z"  />
<glyph unicode="&#x6A9;" arabic-form="initial" horiz-adv-x="493" d="M177 409H266Q342 409 390 366T438 231V171Q438 121 430 88T404 36T359 8T294 0H0Q-40 0 -40 40Q-40 65 -31 71T0 78H263Q291 78 308 82T334 97T346 125T349 168V230Q349 331 235 331H74Q64 331 64 341V397Q64 402 67 406T73 413L292 671Q298 678 305 674L353 634Q361 628 357 620L177 409Z"  />
<glyph unicode="&#x6A9;" arabic-form="medial" horiz-adv-x="538" d="M177 409H266Q342 409 390 366T438 231V171Q438 163 438 155T437 139Q439 108 463 93T527 78H538Q558 78 568 70T578 41Q578 15 569 8T538 0H517Q484 0 457 14T418 57Q401 25 371 13T294 0H0Q-40 0 -40 40Q-40 65 -31 71T0 78H263Q291 78 308 82T334 97T346 125T349 168V230Q349 331 235 331H74Q64 331 64 341V397Q64 402 67 406T73 413L292 671Q298 678 305 674L353 634Q361 628 357 620L177 409Z"  />
<glyph unicode="&#x6A9;" arabic-form="terminal" horiz-adv-x="888" d="M614 78Q642 78 659 82T685 97T697 125T700 168V230Q700 331 586 331H425Q415 331 415 341V397Q415 402 418 406T424 413L643 671Q649 678 656 674L704 634Q712 628 708 620L528 409H617Q693 409 741 366T789 231V134Q789 106 814 92T877 78H888Q908 78 918 70T928 41Q928 15 919 8T888 0H867Q834 0 807 14T768 56Q751 24 722 12T645 0H164Q101 0 74 30T47 126V335Q47 345 57 345H121Q131 345 131 335V131Q131 101 142 90T179 78H614Z"  />
<glyph unicode="&#x6A9;" arabic-form="isolated" horiz-adv-x="844" d="M614 78Q642 78 659 82T685 97T697 125T700 168V230Q700 331 586 331H425Q415 331 415 341V397Q415 402 418 406T424 413L643 671Q649 678 656 674L704 634Q712 628 708 620L528 409H617Q693 409 741 366T789 231V171Q789 121 781 88T755 36T710 8T645 0H164Q101 0 74 30T47 126V335Q47 345 57 345H121Q131 345 131 335V131Q131 101 142 90T179 78H614Z"  />
<glyph unicode="&#x6AF;" arabic-form="initial" horiz-adv-x="493" d="M177 409H266Q342 409 390 366T438 231V171Q438 121 430 88T404 36T359 8T294 0H0Q-40 0 -40 40Q-40 65 -31 71T0 78H263Q291 78 308 82T334 97T346 125T349 168V230Q349 331 235 331H74Q64 331 64 341V397Q64 402 67 406T73 413L292 671Q298 678 305 674L353 634Q361 628 357 620L177 409ZM34 449Q28 442 21 446L-27 486Q-35 491 -31 500L188 758Q194 765 201 761L249 721Q257 715 253 707L34 449Z"  />
<glyph unicode="&#x6AF;" arabic-form="medial" horiz-adv-x="538" d="M177 409H266Q342 409 390 366T438 231V171Q438 163 438 155T437 139Q439 108 463 93T527 78H538Q558 78 568 70T578 41Q578 15 569 8T538 0H517Q484 0 457 14T418 57Q401 25 371 13T294 0H0Q-40 0 -40 40Q-40 65 -31 71T0 78H263Q291 78 308 82T334 97T346 125T349 168V230Q349 331 235 331H74Q64 331 64 341V397Q64 402 67 406T73 413L292 671Q298 678 305 674L353 634Q361 628 357 620L177 409ZM24 449Q18 442 11 446L-37 486Q-45 491 -41 500L178 758Q184 765 191 761L239 721Q247 715 243 707L24 449Z"  />
<glyph unicode="&#x6AF;" arabic-form="terminal" horiz-adv-x="888" d="M614 78Q642 78 659 82T685 97T697 125T700 168V230Q700 331 586 331H425Q415 331 415 341V397Q415 402 418 406T424 413L643 671Q649 678 656 674L704 634Q712 628 708 620L528 409H617Q693 409 741 366T789 231V134Q789 106 814 92T877 78H888Q908 78 918 70T928 41Q928 15 919 8T888 0H867Q834 0 807 14T768 56Q751 24 722 12T645 0H164Q101 0 74 30T47 126V335Q47 345 57 345H121Q131 345 131 335V131Q131 101 142 90T179 78H614ZM379 449Q373 442 366 446L318 486Q310 491 314 500L533 758Q539 765 546 761L594 721Q602 715 598 707L379 449Z"  />
<glyph unicode="&#x6AF;" arabic-form="isolated" horiz-adv-x="844" d="M614 78Q642 78 659 82T685 97T697 125T700 168V230Q700 331 586 331H425Q415 331 415 341V397Q415 402 418 406T424 413L643 671Q649 678 656 674L704 634Q712 628 708 620L528 409H617Q693 409 741 366T789 231V171Q789 121 781 88T755 36T710 8T645 0H164Q101 0 74 30T47 126V335Q47 345 57 345H121Q131 345 131 335V131Q131 101 142 90T179 78H614ZM379 449Q373 442 366 446L318 486Q310 491 314 500L533 758Q539 765 546 761L594 721Q602 715 598 707L379 449Z"  />
<glyph unicode="&#x6BA;" arabic-form="terminal" horiz-adv-x="610" d="M110 225Q114 232 124 226L179 196Q187 191 182 183Q164 155 148 114T131 28Q131 -15 145 -43T183 -88T233 -112T286 -119Q350 -119 391 -86T432 21V313Q432 323 442 323H506Q516 323 516 313V146Q516 112 540 95T606 78H610Q630 78 640 70T650 41Q650 15 641 8T610 0H596Q544 0 516 32V20Q516 -83 456 -141T281 -199Q227 -199 184 -185T110 -142T62 -74T45 20Q45 79 64 133T110 225Z"  />
<glyph unicode="&#x6BA;" arabic-form="isolated" horiz-adv-x="581" d="M110 225Q114 232 124 226L179 196Q187 191 182 183Q164 155 148 114T131 28Q131 -15 145 -43T183 -88T233 -112T286 -119Q350 -119 391 -86T432 21V313Q432 323 442 323H506Q516 323 516 313V20Q516 -83 456 -141T281 -199Q227 -199 184 -185T110 -142T62 -74T45 20Q45 79 64 133T110 225Z"  />
<glyph unicode="&#x6BE;" arabic-form="initial" horiz-adv-x="602" d="M287 363Q253 363 216 354T139 322Q135 320 131 319T125 321L97 368Q91 379 97 383Q143 413 195 427T297 441Q372 441 420 418T496 358T536 276T547 187Q547 132 539 96T513 39T468 9T403 0H0Q-40 0 -40 40Q-40 65 -31 71T0 78H125Q111 108 111 148Q111 219 148 255T242 291Q269 291 293 282T335 255T363 211T373 148Q373 108 359 78H372Q400 78 417 83T443 100T455 133T458 187Q458 221 450 253T421 309T368 348T287 363ZM242 219Q214 219 199 201T183 148Q183 113 197 97T236 78H247Q273 80 286 96T299 148Q299 182 285 200T242 219Z"  />
<glyph unicode="&#x6BE;" arabic-form="medial" horiz-adv-x="560" d="M-40 40Q-40 65 -31 71T0 78H111V209Q111 266 125 307T165 375T224 414T298 427Q390 427 440 377T490 221Q490 179 478 140T450 78H561Q582 78 591 72T601 40Q601 0 561 0H460Q481 -26 481 -69Q481 -99 470 -124T437 -168T381 -198T303 -209Q210 -209 161 -172T111 -56V0H0Q-40 0 -40 40ZM298 349Q250 349 223 315T195 220V78H308Q335 78 353 90T384 121T401 165T406 214Q406 279 379 314T298 349ZM299 -131Q353 -131 375 -114T397 -66Q397 -55 394 -44T383 -22T360 -6T322 0H195V-56Q195 -131 299 -131Z"  />
<glyph unicode="&#x6BE;" arabic-form="terminal" horiz-adv-x="601" d="M90 -64Q90 -74 80 -74H16Q6 -74 6 -64V11Q6 34 14 47T35 67T62 76T88 78H152V209Q152 266 168 307T211 375T273 414T348 427Q433 427 482 379T531 221Q531 179 519 140T491 78H602Q623 78 632 72T642 40Q642 0 602 0H501Q522 -26 522 -69Q522 -99 511 -124T478 -168T422 -198T344 -209Q251 -209 202 -172T152 -56V0H126Q103 0 97 -6T90 -34V-64ZM344 349Q295 349 266 314T236 209V78H349Q376 78 394 90T425 121T442 165T447 214Q447 280 421 314T344 349ZM340 -131Q394 -131 416 -114T438 -66Q438 -55 435 -44T424 -22T401 -6T363 0H236V-56Q236 -131 340 -131Z"  />
<glyph unicode="&#x6BE;" arabic-form="isolated" horiz-adv-x="662" d="M90 -64Q90 -74 80 -74H16Q6 -74 6 -64V11Q6 34 14 47T35 67T62 76T88 78H173Q160 105 160 148Q160 219 195 251T287 284Q342 284 378 252T414 148Q414 127 411 110T401 78H417Q445 78 462 83T488 100T500 133T503 187Q503 221 495 253T467 309T417 348T340 363Q300 363 263 352T188 309Q180 303 174 308L139 349Q130 357 136 363Q179 405 233 423T342 441Q417 441 465 418T541 358T581 276T592 187Q592 132 584 96T558 39T513 9T448 0H126Q103 0 97 -6T90 -34V-64ZM287 219Q259 219 244 201T228 148Q228 111 243 95T287 78Q315 78 329 94T344 148Q344 182 330 200T287 219Z"  />
<glyph unicode="&#x6C0;" arabic-form="terminal" horiz-adv-x="501" d="M325 427V470Q325 480 335 480H399Q409 480 409 470V131Q409 101 420 90T457 78H501Q541 78 541 38Q541 13 532 7T501 0H442Q393 0 366 18T329 80Q309 62 281 53T220 44Q181 44 148 55T90 88T51 145T37 227Q37 283 53 321T95 382T155 416T227 427H325ZM221 122Q278 122 301 155T325 249V349H227Q180 349 151 323T121 227Q121 175 147 149T221 122ZM168 570Q160 581 155 597T150 632Q150 648 155 665T172 697T203 721T252 731Q278 731 298 722T331 696Q334 689 331 686L310 669Q303 663 299 667Q290 677 278 683T251 690Q223 690 210 673T196 633Q196 611 207 595T230 570H333Q339 570 339 563V535Q339 528 333 528H130Q124 528 124 535V563Q124 570 130 570H168Z"  />
<glyph unicode="&#x6C0;" arabic-form="isolated" horiz-adv-x="482" d="M236 -7Q147 -7 96 44T45 209Q45 324 96 375T236 427Q325 427 376 376T427 209Q427 152 414 111T376 44T316 6T236 -7ZM236 349Q180 349 155 312T129 209Q129 137 154 104T236 71Q292 71 317 104T343 209Q343 275 318 312T236 349ZM172 535Q164 546 159 562T154 597Q154 613 159 630T176 662T207 686T256 696Q282 696 302 687T335 661Q338 654 335 651L314 634Q307 628 303 632Q294 642 282 648T255 655Q227 655 214 638T200 598Q200 576 211 560T234 535H337Q343 535 343 528V500Q343 493 337 493H134Q128 493 128 500V528Q128 535 134 535H172Z"  />
<glyph unicode="&#x6C1;" arabic-form="initial" horiz-adv-x="273" d="M193 -145Q187 -146 181 -146T168 -146Q145 -146 122 -141T81 -123T52 -89T40 -37Q40 -19 44 0H0Q-20 0 -30 7T-40 35Q-40 60 -31 69T0 78H63Q88 78 99 89T111 131V399Q111 409 121 409H185Q195 409 195 399V126Q195 72 178 43T119 4Q115 -11 115 -25Q115 -57 139 -67T193 -78Q203 -78 203 -88V-135Q203 -143 193 -145Z"  />
<glyph unicode="&#x6C1;" arabic-form="medial" horiz-adv-x="441" d="M143 78Q153 78 153 68V-7Q153 -55 171 -75T237 -96V-72Q237 6 276 42T379 78H441Q461 78 471 71T481 43Q481 18 472 9T441 0H383Q351 0 336 -13T321 -63V-170Q321 -180 311 -180H261Q171 -180 120 -144T69 -30V0H0Q-40 0 -40 40Q-40 65 -31 71T0 78H143Z"  />
<glyph unicode="&#x6C1;" arabic-form="terminal" horiz-adv-x="492" d="M385 150Q385 115 398 97T454 78H492Q513 78 522 69T532 35Q532 14 522 7T492 0H445Q301 0 301 141V325H233Q172 325 148 294T124 199V10Q124 0 114 0H50Q40 0 40 10V222Q40 280 57 316T103 373T166 401T237 409H375Q385 409 385 399V150Z"  />
<glyph unicode="&#x6C1;" arabic-form="isolated" horiz-adv-x="482" d="M236 -7Q147 -7 96 44T45 209Q45 324 96 375T236 427Q325 427 376 376T427 209Q427 152 414 111T376 44T316 6T236 -7ZM236 349Q180 349 155 312T129 209Q129 137 154 104T236 71Q292 71 317 104T343 209Q343 275 318 312T236 349Z"  />
<glyph unicode="&#x6C2;" arabic-form="terminal" horiz-adv-x="492" d="M385 150Q385 115 398 97T454 78H492Q513 78 522 69T532 35Q532 14 522 7T492 0H445Q301 0 301 141V325H233Q172 325 148 294T124 199V10Q124 0 114 0H50Q40 0 40 10V222Q40 280 57 316T103 373T166 401T237 409H375Q385 409 385 399V150ZM158 535Q150 546 145 562T140 597Q140 613 145 630T162 662T193 686T242 696Q268 696 288 687T321 661Q324 654 321 651L300 634Q293 628 289 632Q280 642 268 648T241 655Q213 655 200 638T186 598Q186 576 197 560T220 535H323Q329 535 329 528V500Q329 493 323 493H120Q114 493 114 500V528Q114 535 120 535H158Z"  />
<glyph unicode="&#x6C2;" arabic-form="isolated" horiz-adv-x="482" d="M236 -7Q147 -7 96 44T45 209Q45 324 96 375T236 427Q325 427 376 376T427 209Q427 152 414 111T376 44T316 6T236 -7ZM236 349Q180 349 155 312T129 209Q129 137 154 104T236 71Q292 71 317 104T343 209Q343 275 318 312T236 349ZM172 535Q164 546 159 562T154 597Q154 613 159 630T176 662T207 686T256 696Q282 696 302 687T335 661Q338 654 335 651L314 634Q307 628 303 632Q294 642 282 648T255 655Q227 655 214 638T200 598Q200 576 211 560T234 535H337Q343 535 343 528V500Q343 493 337 493H134Q128 493 128 500V528Q128 535 134 535H172Z"  />
<glyph unicode="&#x6C3;" arabic-form="terminal" horiz-adv-x="501" d="M325 427V470Q325 480 335 480H399Q409 480 409 470V131Q409 101 420 90T457 78H501Q541 78 541 38Q541 13 532 7T501 0H442Q393 0 366 18T329 80Q309 62 281 53T220 44Q181 44 148 55T90 88T51 145T37 227Q37 283 53 321T95 382T155 416T227 427H325ZM221 122Q278 122 301 155T325 249V349H227Q180 349 151 323T121 227Q121 175 147 149T221 122ZM267 542Q257 542 257 552V625Q257 635 267 635H335Q345 635 345 625V552Q345 542 335 542H267ZM145 542Q135 542 135 552V625Q135 635 145 635H213Q223 635 223 625V552Q223 542 213 542H145Z"  />
<glyph unicode="&#x6C3;" arabic-form="isolated" horiz-adv-x="482" d="M236 -7Q147 -7 96 44T45 209Q45 324 96 375T236 427Q325 427 376 376T427 209Q427 152 414 111T376 44T316 6T236 -7ZM236 349Q180 349 155 312T129 209Q129 137 154 104T236 71Q292 71 317 104T343 209Q343 275 318 312T236 349ZM259 508Q249 508 249 518V591Q249 601 259 601H327Q337 601 337 591V518Q337 508 327 508H259ZM137 508Q127 508 127 518V591Q127 601 137 601H205Q215 601 215 591V518Q215 508 205 508H137Z"  />
<glyph unicode="&#x6CC;" arabic-form="initial" horiz-adv-x="276" d="M0 0Q-20 0 -30 7T-40 35Q-40 60 -31 69T0 78H69Q94 78 105 89T117 131V399Q117 409 127 409H191Q201 409 201 399V126Q201 61 174 31T84 0H0ZM155 -186Q145 -186 145 -176V-103Q145 -93 155 -93H223Q233 -93 233 -103V-176Q233 -186 223 -186H155ZM33 -186Q23 -186 23 -176V-103Q23 -93 33 -93H101Q111 -93 111 -103V-176Q111 -186 101 -186H33Z"  />
<glyph unicode="&#x6CC;" arabic-form="medial" horiz-adv-x="309" d="M7 0Q-13 0 -23 7T-33 35Q-33 60 -24 69T7 78H75Q100 78 111 89T123 131V399Q123 409 133 409H197Q207 409 207 399V146Q207 112 231 95T297 78H309Q329 78 339 70T349 41Q349 15 340 8T309 0H287Q255 0 231 13T194 52Q169 0 90 0H7ZM188 -186Q178 -186 178 -176V-103Q178 -93 188 -93H256Q266 -93 266 -103V-176Q266 -186 256 -186H188ZM66 -186Q56 -186 56 -176V-103Q56 -93 66 -93H134Q144 -93 144 -103V-176Q144 -186 134 -186H66Z"  />
<glyph unicode="&#x6CC;" arabic-form="terminal" horiz-adv-x="755" d="M440 149Q472 137 502 125T560 102T617 85T674 78H755Q775 78 785 71T795 43Q795 18 786 9T755 0H684Q689 -8 696 -26T703 -67Q703 -91 694 -114T662 -157T604 -187T516 -199H282Q165 -199 104 -141T43 20Q43 79 62 133T108 225Q112 232 122 226L177 196Q185 191 180 183Q162 155 146 114T129 28Q129 -13 142 -41T179 -87T231 -111T294 -119H515Q575 -119 598 -101T622 -58Q622 -36 609 -20T569 9T503 37T412 70Q403 73 406 82L428 142Q431 152 440 149Z"  />
<glyph unicode="&#x6CC;" arabic-form="isolated" horiz-adv-x="775" d="M696 -61Q696 -87 687 -112T655 -156T597 -187T509 -199H275Q158 -199 97 -141T36 20Q36 79 55 133T101 225Q105 232 115 226L170 196Q178 191 173 183Q155 155 139 114T122 28Q122 -13 135 -41T172 -87T224 -111T287 -119H508Q568 -119 591 -101T615 -58Q615 -35 583 -11T496 47Q474 60 453 76T416 113T390 158T380 212Q380 243 391 272T425 323T482 360T560 374Q596 374 622 368T668 352T704 326T735 293Q741 286 732 279L688 243Q680 237 674 244Q652 268 627 282T560 296Q520 296 492 275T464 213Q464 193 474 177T502 145T541 115T586 86Q641 52 668 19T696 -61Z"  />
<glyph unicode="&#x6D2;" arabic-form="terminal" horiz-adv-x="334" d="M104 -65Q104 -92 122 -106T190 -121H571Q581 -121 581 -131V-189Q581 -199 571 -199H193Q147 -199 115 -189T62 -161T33 -119T23 -68Q23 -32 36 -5T72 41T127 69T195 78H334Q354 78 364 71T374 43Q374 18 365 9T334 0H185Q140 0 122 -16T104 -65Z"  />
<glyph unicode="&#x6D2;" arabic-form="isolated" horiz-adv-x="753" d="M331 348Q306 311 269 285T197 236T137 191T112 141Q112 116 135 97T219 78H723Q733 78 733 68V10Q733 0 723 0H219Q166 0 130 11T72 40T41 82T31 131Q31 180 59 215T127 279T206 335T270 397Q276 405 285 398L330 362Q336 356 331 348Z"  />
<glyph unicode="&#x6D3;" arabic-form="terminal" horiz-adv-x="334" d="M104 -65Q104 -92 122 -106T190 -121H571Q581 -121 581 -131V-189Q581 -199 571 -199H193Q147 -199 115 -189T62 -161T33 -119T23 -68Q23 -32 36 -5T72 41T127 69T195 78H334Q354 78 364 71T374 43Q374 18 365 9T334 0H185Q140 0 122 -16T104 -65ZM94 179Q86 190 81 206T76 241Q76 257 81 274T98 306T129 330T178 340Q204 340 224 331T257 305Q260 298 257 295L236 278Q229 272 225 276Q216 286 204 292T177 299Q149 299 136 282T122 242Q122 220 133 204T156 179H259Q265 179 265 172V144Q265 137 259 137H56Q50 137 50 144V172Q50 179 56 179H94Z"  />
<glyph unicode="&#x6D3;" arabic-form="isolated" horiz-adv-x="819" d="M338 348Q313 311 276 285T204 236T144 191T119 141Q119 116 142 97T226 78H730Q740 78 740 68V10Q740 0 730 0H226Q173 0 137 11T79 40T48 82T38 131Q38 180 66 215T134 279T213 335T277 397Q283 405 292 398L337 362Q343 356 338 348ZM83 454Q75 465 70 481T65 516Q65 532 70 549T87 581T118 605T167 615Q193 615 213 606T246 580Q249 573 246 570L225 553Q218 547 214 551Q205 561 193 567T166 574Q138 574 125 557T111 517Q111 495 122 479T145 454H248Q254 454 254 447V419Q254 412 248 412H45Q39 412 39 419V447Q39 454 45 454H83Z"  />
<glyph unicode="&#x6D4;" horiz-adv-x="294" d="M261 78Q271 78 271 68V10Q271 0 261 0H174Q139 0 102 9T28 45Q21 49 27 59L55 110Q60 118 68 113Q96 95 123 87T194 78H261Z"  />
<glyph unicode="&#x6D5;" arabic-form="terminal" horiz-adv-x="501" d="M325 427V470Q325 480 335 480H399Q409 480 409 470V131Q409 101 420 90T457 78H501Q541 78 541 38Q541 13 532 7T501 0H442Q393 0 366 18T329 80Q309 62 281 53T220 44Q181 44 148 55T90 88T51 145T37 227Q37 283 53 321T95 382T155 416T227 427H325ZM221 122Q278 122 301 155T325 249V349H227Q180 349 151 323T121 227Q121 175 147 149T221 122Z"  />
<glyph unicode="&#x6D5;" arabic-form="isolated" horiz-adv-x="482" d="M236 -7Q147 -7 96 44T45 209Q45 324 96 375T236 427Q325 427 376 376T427 209Q427 152 414 111T376 44T316 6T236 -7ZM236 349Q180 349 155 312T129 209Q129 137 154 104T236 71Q292 71 317 104T343 209Q343 275 318 312T236 349Z"  />
<glyph unicode="&#x6F0;" horiz-adv-x="450" d="M253 135Q239 121 227 121T198 135L153 181Q138 196 137 207T153 235L198 280Q211 293 222 295T249 283L298 235Q312 221 313 209T298 180L253 135Z"  />
<glyph unicode="&#x6F1;" horiz-adv-x="450" d="M267 10Q267 0 257 0H193Q183 0 183 10V595Q183 605 193 605H257Q267 605 267 595V10Z"  />
<glyph unicode="&#x6F2;" horiz-adv-x="450" d="M105 478Q105 541 133 573T225 605H398Q408 605 408 595V537Q408 527 398 527H250Q213 527 201 511T189 461V10Q189 0 179 0H115Q105 0 105 10V478Z"  />
<glyph unicode="&#x6F3;" horiz-adv-x="450" d="M126 435H196V548Q196 558 206 558H270Q280 558 280 548V435Q318 437 333 448T348 491V595Q348 605 358 605H422Q432 605 432 595V495Q432 454 421 428T391 386T343 365T280 359H126V10Q126 0 116 0H52Q42 0 42 10V595Q42 605 52 605H116Q126 605 126 595V435Z"  />
<glyph unicode="&#x6F4;" horiz-adv-x="450" d="M303 606Q313 606 313 596V549Q313 539 303 539Q270 539 258 525T245 481V435Q274 435 293 436T325 444T342 461T347 491V502Q347 512 357 512H421Q431 512 431 502V495Q431 424 399 395T312 360Q304 359 296 359T279 359H121V10Q121 0 111 0H47Q37 0 37 10V595Q37 605 47 605H111Q121 605 121 595V435H177V498Q177 555 206 580T288 606H303Z"  />
<glyph unicode="&#x6F5;" horiz-adv-x="450" d="M336 255Q336 318 328 370T306 459T270 516T224 537Q198 537 178 517T142 460T119 371T111 255Q111 159 128 120T173 80Q182 80 190 84T204 93T216 102T226 106Q230 106 235 102T246 93T261 84T282 80Q294 80 304 89T321 118T332 171T336 255ZM37 256Q37 347 52 415Q74 516 120 561T224 607Q257 607 287 592T342 543T384 460T409 340Q411 320 412 299T413 255Q413 213 410 176Q407 138 400 106T380 49T351 12T310 -2Q287 -2 268 5T228 31Q208 13 189 6T151 -1Q94 -1 66 63T37 256Z"  />
<glyph unicode="&#x6F6;" horiz-adv-x="450" d="M110 -14Q105 -22 96 -17L42 17Q34 23 39 31L212 307Q187 319 171 335T146 369T133 405T129 439Q129 521 179 563T314 605H379Q389 605 389 595V537Q389 527 379 527H312Q264 527 238 507T211 438Q211 414 220 398T243 370T275 354T312 349H378Q388 349 388 339V281Q388 271 378 271H345Q328 271 316 271T296 268T282 262T271 248L110 -14Z"  />
<glyph unicode="&#x6F7;" horiz-adv-x="450" d="M342 604Q345 614 354 611L419 595Q430 592 428 584L267 9Q264 -2 253 -3T224 -5Q208 -5 197 -4T182 9L22 584Q20 592 31 595L96 611Q105 614 108 604L224 142L342 604Z"  />
<glyph unicode="&#x6F8;" horiz-adv-x="450" d="M108 -3Q105 -13 96 -10L31 6Q20 9 22 17L183 592Q186 603 197 604T226 606Q242 606 253 605T268 592L428 17Q430 9 419 6L354 -10Q345 -13 342 -3L226 459L108 -3Z"  />
<glyph unicode="&#x6F9;" horiz-adv-x="450" d="M236 260Q200 260 168 270T112 300T74 352T60 428Q60 468 72 500T107 556T161 592T228 605Q309 605 347 562T386 447V10Q386 0 376 0H312Q302 0 302 10V260H236ZM302 339V437Q302 480 283 503T226 527Q190 527 166 502T141 431Q141 382 168 361T232 339H302Z"  />
<glyph unicode="&#x2002;" horiz-adv-x="500" />
<glyph unicode="&#x2003;" horiz-adv-x="1000" />
<glyph unicode="&#x2009;" horiz-adv-x="100" />
<glyph unicode="&#x200A;" horiz-adv-x="20" />
<glyph unicode="&#x200C;" horiz-adv-x="33" d="M33 2H0V1321H33V2Z"  />
<glyph unicode="&#x200D;" horiz-adv-x="33" d="M78 1227L33 1273V0H0V1276L-49 1227L-66 1245L-3 1308L-66 1372L-49 1389L15 1326L78 1389L96 1372L33 1309V1308L96 1245L78 1227Z"  />
<glyph unicode="&#x200E;" horiz-adv-x="32" d="M109 1227V1288H32V2H0V1321H109V1389L190 1308L109 1227Z"  />
<glyph unicode="&#x200F;" horiz-adv-x="33" d="M33 1321V2H0V1288H-77V1227L-158 1308L-77 1389V1321H33Z"  />
<glyph unicode="&#x2010;" horiz-adv-x="380" d="M57 227Q47 227 47 237V295Q47 305 57 305H323Q333 305 333 295V237Q333 227 323 227H57H57Z"  />
<glyph unicode="&#x2013;" horiz-adv-x="512" d="M34 229Q24 229 24 239V293Q24 303 34 303H478Q488 303 488 293V239Q488 229 478 229H34Z"  />
<glyph unicode="&#x2014;" horiz-adv-x="850" d="M34 229Q24 229 24 239V293Q24 303 34 303H816Q826 303 826 293V239Q826 229 816 229H34Z"  />
<glyph unicode="&#x2018;" horiz-adv-x="215" d="M77 503Q67 503 67 513V596Q67 604 68 608T74 617L126 674Q132 682 139 682Q148 682 148 672V513Q148 503 138 503H77Z"  />
<glyph unicode="&#x2019;" horiz-adv-x="215" d="M76 501Q67 501 67 511V670Q67 680 77 680H138Q148 680 148 670V587Q148 579 147 575T142 566L90 509Q84 501 76 501Z"  />
<glyph unicode="&#x201A;" horiz-adv-x="215" d="M76 -87Q67 -87 67 -77V82Q67 92 77 92H138Q148 92 148 82V-1Q148 -15 142 -22L90 -79Q84 -87 76 -87Z"  />
<glyph unicode="&#x201C;" horiz-adv-x="372" d="M234 503Q224 503 224 513V596Q224 604 225 608T230 617L282 674Q288 682 296 682Q305 682 305 672V513Q305 503 295 503H234ZM77 503Q67 503 67 513V596Q67 604 68 608T74 617L126 674Q132 682 139 682Q148 682 148 672V513Q148 503 138 503H77Z"  />
<glyph unicode="&#x201D;" horiz-adv-x="372" d="M233 501Q224 501 224 511V670Q224 680 234 680H295Q305 680 305 670V587Q305 579 304 575T298 566L246 509Q240 501 233 501ZM76 501Q67 501 67 511V670Q67 680 77 680H138Q148 680 148 670V587Q148 573 142 566L90 509Q85 501 76 501Z"  />
<glyph unicode="&#x201E;" horiz-adv-x="372" d="M233 -87Q224 -87 224 -77V82Q224 92 234 92H295Q305 92 305 82V-1Q305 -9 304 -13T298 -22L246 -79Q240 -87 233 -87ZM76 -87Q67 -87 67 -77V82Q67 92 77 92H138Q148 92 148 82V-1Q148 -9 147 -13T142 -22L90 -79Q84 -87 76 -87Z"  />
<glyph unicode="&#x2020;" horiz-adv-x="494" d="M216 -180Q206 -180 206 -170V358Q206 364 200 364H60Q50 364 50 374V430Q50 440 60 440H200Q206 440 206 446V670Q206 680 216 680H278Q288 680 288 670V446Q288 440 294 440H434Q444 440 444 430V374Q444 364 434 364H294Q288 364 288 358V-170Q288 -180 278 -180H216Z"  />
<glyph unicode="&#x2021;" horiz-adv-x="494" d="M216 -180Q206 -180 206 -170V23Q206 29 200 29H60Q50 29 50 39V95Q50 105 60 105H200Q206 105 206 111V389Q206 395 200 395H60Q50 395 50 405V461Q50 471 60 471H200Q206 471 206 477V670Q206 680 216 680H278Q288 680 288 670V477Q288 471 294 471H434Q444 471 444 461V405Q444 395 434 395H294Q288 395 288 389V111Q288 105 294 105H434Q444 105 444 95V39Q444 29 434 29H294Q288 29 288 23V-170Q288 -180 278 -180H216Z"  />
<glyph unicode="&#x2022;" horiz-adv-x="442" d="M221 180Q165 180 130 215T94 308Q94 365 129 400T221 436Q248 436 271 427T312 400T338 360T348 308Q348 280 339 257T312 216T272 190T221 180Z"  />
<glyph unicode="&#x2026;" horiz-adv-x="708" d="M552 0Q542 0 542 10V96Q542 106 552 106H628Q638 106 638 96V10Q638 0 628 0H552ZM316 0Q306 0 306 10V96Q306 106 316 106H392Q402 106 402 96V10Q402 0 392 0H316ZM80 0Q70 0 70 10V96Q70 106 80 106H156Q166 106 166 96V10Q166 0 156 0H80Z"  />
<glyph unicode="&#x202A;" horiz-adv-x="500" />
<glyph unicode="&#x202B;" horiz-adv-x="500" />
<glyph unicode="&#x202C;" horiz-adv-x="500" />
<glyph unicode="&#x202D;" horiz-adv-x="500" />
<glyph unicode="&#x202E;" horiz-adv-x="500" />
<glyph unicode="&#x2030;" horiz-adv-x="1083" d="M164 -11Q159 -11 158 -8T158 -1L552 681Q558 691 568 691H615Q620 691 621 688T620 681L226 -1Q220 -11 211 -11H164ZM199 330Q156 330 126 351T83 407Q81 414 80 421T77 438T76 465T75 509Q75 536 75 552T77 579T79 597T83 611Q95 646 125 667T199 688Q242 688 272 667T314 611Q316 604 317 597T320 580T321 553T322 509Q322 482 322 466T320 439T318 421T314 407Q303 372 273 351T199 330ZM199 388Q219 388 233 397T252 423Q253 427 254 431T256 445T257 469T258 509Q258 534 258 549T257 573T255 586T252 595Q247 612 233 621T199 630Q179 630 165 621T145 595Q144 591 143 587T142 573T141 549T140 509Q140 484 140 469T141 445T143 432T145 423Q151 406 165 397T199 388ZM885 -9Q842 -9 812 12T769 68Q767 75 766 82T763 99T762 126T761 170Q761 197 761 214T763 241T765 258T769 272Q781 307 811 328T885 349Q928 349 958 328T1000 272Q1002 265 1003 259T1006 242T1007 214T1008 170Q1008 143 1008 127T1006 100T1004 82T1000 68Q989 33 959 12T885 -9ZM579 -9Q536 -9 506 12T464 68Q462 75 461 82T458 99T457 126T456 170Q456 197 456 214T458 241T460 258T464 272Q475 307 505 328T579 349Q623 349 653 328T695 272Q697 265 698 259T701 242T702 214T703 170Q703 143 703 127T701 100T699 82T695 68Q684 33 654 12T579 -9ZM885 49Q905 49 919 58T938 84Q939 88 940 92T942 106T943 130T944 170Q944 195 944 210T943 234T941 247T938 256Q933 273 919 282T885 291Q865 291 851 282T831 256Q830 252 829 248T828 234T827 210T826 170Q826 145 826 130T827 106T829 93T831 84Q837 67 851 58T885 49ZM579 49Q621 49 633 84Q634 88 635 92T637 106T638 130T638 170Q638 195 638 210T637 234T635 247T633 256Q621 291 579 291Q538 291 526 256Q524 252 523 248T522 234T521 210T520 170Q520 145 520 130T521 106T523 93T526 84Q538 49 579 49Z"  />
<glyph unicode="&#x2039;" horiz-adv-x="320" d="M51 257Q44 264 51 271L240 463Q243 466 246 465T250 459V386Q250 376 241 366L142 268Q138 264 142 260L241 162Q250 152 250 142V69Q250 64 247 63T240 65L51 257Z"  />
<glyph unicode="&#x203A;" horiz-adv-x="320" d="M80 65Q77 62 74 63T70 69V142Q70 152 79 162L178 260Q182 264 178 268L79 366Q70 376 70 386V459Q70 464 73 465T80 463L269 271Q276 264 269 257L80 65H80Z"  />
<glyph unicode="&#x2044;" horiz-adv-x="155" d="M-148 -11Q-153 -11 -154 -8T-153 -1L241 681Q247 691 256 691H303Q308 691 309 688T309 681L-86 -1Q-89 -6 -92 -8T-101 -11H-148Z"  />
<glyph unicode="&#x20AC;" horiz-adv-x="542" d="M309 67Q353 67 379 87T424 142Q428 150 437 147L491 120Q498 116 494 107Q471 57 426 23T309 -11Q237 -11 188 24T116 126Q109 147 106 172T103 242Q103 248 97 248H55Q45 248 45 258V300Q45 310 55 310H97Q103 310 103 316V370Q103 376 97 376H55Q45 376 45 386V428Q45 438 55 438H97Q103 438 103 444Q103 482 106 507T116 554Q138 621 187 656T309 691Q345 691 374 682T425 657T465 620T494 573Q498 564 491 560L437 533Q428 529 424 538Q406 572 380 592T309 613Q224 613 199 534Q194 519 192 499T189 444Q189 438 195 438H386Q396 438 396 428L386 386Q383 376 376 376H195Q189 376 189 370V316Q189 310 195 310H366Q376 310 376 300L366 258Q363 248 356 248H195Q189 248 189 242Q189 201 191 181T199 146Q224 67 309 67Z"  />
<glyph unicode="&#x2113;" horiz-adv-x="508" d="M445 37Q412 12 375 -1T299 -15Q231 -15 193 20T154 119V230L80 161L54 199L153 286V558Q153 599 165 633T198 691T248 729T310 743Q369 743 403 707T438 607Q438 529 389 450T242 280V137Q242 109 249 91T269 61T297 46T329 41Q373 41 419 74L445 37ZM374 599Q374 640 356 667T310 695Q281 695 262 666T242 580V333Q311 408 342 476T374 599Z"  />
<glyph unicode="&#x2122;" horiz-adv-x="833" d="M730 286Q720 286 720 296V537H718L629 352Q624 342 616 342H583Q576 342 571 352L482 537H480V296Q480 286 470 286H429Q419 286 419 296V670Q419 680 429 680H468Q476 680 481 671L599 419H602L718 671Q722 680 732 680H771Q781 680 781 670V296Q781 286 771 286H730ZM172 286Q162 286 162 296V616Q162 622 156 622H51Q41 622 41 632V670Q41 680 51 680H338Q348 680 348 670V632Q348 622 338 622H233Q227 622 227 616V296Q227 286 217 286H172Z"  />
<glyph unicode="&#x2126;" horiz-adv-x="625" d="M363 0Q353 0 353 10V72Q353 82 363 85Q394 95 415 114T450 163T469 236T475 340Q475 379 474 406T471 452T465 484T459 507Q442 556 406 582T312 608Q256 608 220 582T166 507Q163 497 160 484T155 452T151 406T150 340Q150 280 156 237T175 163T209 114T262 85Q272 82 272 72V10Q272 0 262 0H73Q63 0 63 10V72Q63 82 73 82H150V84Q126 99 109 119T81 168T65 239T60 340Q60 382 61 411T64 462T70 499T79 530Q105 611 166 651T312 691Q398 691 459 651T546 530Q550 515 554 499T560 462T563 412T565 340Q565 281 560 240T544 169T516 119T475 84V82H552Q562 82 562 72V10Q562 0 552 0H363Z"  />
<glyph unicode="&#x212E;" horiz-adv-x="750" d="M193 326V98Q265 24 374 24Q452 24 509 59T615 174L659 148Q630 103 601 71T537 19T463 -11T374 -21Q300 -21 241 6T139 80T74 190T51 326Q51 399 74 462T139 571T240 644T374 671Q446 671 505 646T607 574T673 465T698 326H193ZM556 371V552Q478 627 373 627Q266 627 193 552V371H556Z"  />
<glyph unicode="&#x2202;" horiz-adv-x="541" d="M250 -11Q205 -11 169 4T107 48T67 114T53 199Q53 245 68 285T109 354T173 400T255 417Q301 417 340 400T408 348H409Q410 404 401 452T372 537T322 594T250 615Q219 615 192 604T138 573Q130 568 125 576L96 621Q91 629 99 635Q128 658 167 674T252 691Q310 691 354 667T428 599T473 494T488 356Q488 276 474 209T431 93T356 17T250 -11ZM257 68Q324 68 360 123T405 279Q379 310 345 327T269 345Q206 345 170 308T134 201Q134 141 167 105T257 68Z"  />
<glyph unicode="&#x2206;" horiz-adv-x="607" d="M32 0Q21 0 24 10L260 670Q263 680 272 680H337Q346 680 349 670L583 10Q586 0 575 0H32ZM465 75Q471 75 470 81L305 547H303L137 81Q135 75 142 75H465Z"  />
<glyph unicode="&#x220F;" horiz-adv-x="652" d="M489 -180Q479 -180 479 -170V651Q479 657 473 657H179Q173 657 173 651V-170Q173 -180 163 -180H94Q84 -180 84 -170V730Q84 740 94 740H558Q568 740 568 730V-170Q568 -180 558 -180H489Z"  />
<glyph unicode="&#x2211;" horiz-adv-x="534" d="M61 -180Q51 -180 51 -170V-111Q51 -106 53 -102L239 320L58 656Q55 662 55 667V730Q55 740 65 740H471Q481 740 481 730V667Q481 657 471 657H156L330 333Q333 326 330 319L147 -97H481Q491 -97 491 -107V-170Q491 -180 481 -180H61Z"  />
<glyph unicode="&#x2212;" horiz-adv-x="542" d="M71 239Q61 239 61 249V303Q61 313 71 313H471Q481 313 481 303V249Q481 239 471 239H71Z"  />
<glyph unicode="&#x221A;" horiz-adv-x="629" d="M296 -180Q287 -180 283 -170L145 112Q142 118 136 115L70 84Q60 79 57 88L37 131Q32 140 41 144L169 207Q179 212 183 203L312 -66H315L534 730Q537 740 546 740H603Q614 740 611 730L361 -170Q358 -180 349 -180H296Z"  />
<glyph unicode="&#x221E;" horiz-adv-x="766" d="M567 87Q518 87 475 113T383 195Q334 140 290 114T198 87Q165 87 137 98T87 131T54 181T42 247Q42 282 53 311T86 362T136 395T199 407Q246 407 288 380T382 295Q434 355 476 381T566 407Q600 407 629 396T679 363T712 313T724 247Q724 212 712 183T679 132T630 99T567 87ZM564 149Q609 149 634 179T660 248Q660 288 635 316T564 345Q532 345 501 323T425 246Q449 219 467 200T502 170T533 154T564 149ZM202 149Q233 149 264 172T341 246Q296 299 265 322T202 345Q156 345 131 317T106 248Q106 206 132 178T202 149Z"  />
<glyph unicode="&#x222B;" horiz-adv-x="414" d="M107 -180Q99 -180 87 -180T66 -178Q56 -176 56 -168V-111Q56 -99 66 -101Q74 -102 81 -102T95 -103Q130 -103 147 -81T165 -3V545Q165 650 199 694T308 740Q316 740 327 740T348 738Q358 736 358 728V671Q358 666 356 663T348 661Q340 663 333 663T319 663Q284 663 267 641T249 563V15Q249 -90 215 -134T107 -180Z"  />
<glyph unicode="&#x2248;" horiz-adv-x="542" d="M286 404Q303 393 321 384T357 375Q383 375 399 389T432 429Q437 437 446 431L484 409Q492 404 488 395Q468 353 433 329T356 305Q325 305 301 316T256 342Q239 353 221 362T185 371Q159 371 143 357T110 317Q105 309 96 315L58 337Q50 342 54 351Q74 393 109 417T186 441Q217 441 241 430T286 404ZM286 210Q303 199 321 190T357 181Q383 181 399 195T432 235Q437 243 446 237L484 215Q492 210 488 201Q468 159 433 135T356 111Q325 111 301 122T256 148Q239 159 221 168T185 177Q159 177 143 163T110 123Q105 115 96 121L58 143Q50 148 54 157Q74 199 109 223T186 247Q217 247 241 236T286 210Z"  />
<glyph unicode="&#x2260;" horiz-adv-x="542" d="M234 139L182 38Q176 28 167 28H120Q109 28 115 39L167 139H71Q61 139 61 149V203Q61 213 71 213H205L270 339H71Q61 339 61 349V403Q61 413 71 413H309L361 514Q365 524 376 524H423Q433 524 428 513L376 413H471Q481 413 481 403V349Q481 339 471 339H338L273 213H471Q481 213 481 203V149Q481 139 471 139H234Z"  />
<glyph unicode="&#x2264;" horiz-adv-x="542" d="M71 307Q61 310 61 320V367Q61 377 71 381L471 545Q481 548 481 539V477Q481 468 471 464L170 345V343L471 224Q481 220 481 211V149Q481 140 471 143L71 307ZM71 0Q61 0 61 10V64Q61 74 71 74H471Q481 74 481 64V10Q481 0 471 0H71Z"  />
<glyph unicode="&#x2265;" horiz-adv-x="542" d="M71 143Q61 140 61 149V211Q61 220 71 224L372 343V345L71 464Q61 468 61 477V539Q61 548 71 545L471 381Q481 377 481 367V320Q481 310 471 307L71 143ZM71 0Q61 0 61 10V64Q61 74 71 74H471Q481 74 481 64V10Q481 0 471 0H71Z"  />
<glyph unicode="&#x25CA;" horiz-adv-x="559" d="M251 -52Q241 -52 237 -42L61 322Q58 329 61 336L237 700Q241 710 251 710H308Q318 710 322 700L498 336Q501 329 498 322L322 -42Q318 -52 308 -52H251ZM419 329L280 623H278L140 329L280 35H282L419 329Z"  />
<glyph unicode="&#x25CC;" horiz-adv-x="911" d="M484 671Q484 659 476 651T456 643Q445 643 437 651T428 671Q428 682 436 690T456 699Q468 699 476 691T484 671ZM611 644Q611 633 603 625T583 616Q572 616 564 624T555 644Q555 656 563 664T583 672Q595 672 603 664T611 644ZM716 573Q716 562 708 554T688 545Q676 545 668 553T660 573Q660 585 668 593T688 602Q700 602 708 594T716 573ZM786 467Q786 456 778 448T758 439Q747 439 739 447T730 467Q730 479 738 487T758 495Q770 495 778 487T786 467ZM811 344Q811 332 803 324T783 316Q772 316 764 324T755 344Q755 355 763 363T783 372Q795 372 803 364T811 344ZM786 217Q786 205 778 197T758 189Q747 189 739 197T730 217Q730 228 738 236T758 245Q770 245 778 237T786 217ZM716 112Q716 101 708 93T688 84Q676 84 668 92T660 112Q660 123 668 131T688 140Q700 140 708 132T716 112ZM608 40Q608 29 600 21T580 12Q569 12 561 20T552 40Q552 52 560 60T580 68Q592 68 600 60T608 40ZM484 17Q484 5 476 -3T456 -12Q445 -12 437 -4T428 17Q428 28 436 36T456 45Q468 45 476 37T484 17ZM358 42Q358 30 350 22T330 14Q318 14 310 22T302 42Q302 53 310 61T330 70Q341 70 349 62T358 42ZM253 112Q253 101 245 93T225 84Q213 84 205 92T197 112Q197 123 205 131T225 140Q237 140 245 132T253 112ZM181 220Q181 208 173 200T153 192Q141 192 133 200T125 220Q125 231 133 239T153 248Q164 248 172 240T181 220ZM156 344Q156 332 148 324T128 316Q116 316 108 324T100 344Q100 355 108 363T128 372Q140 372 148 364T156 344ZM182 471Q182 459 174 451T154 443Q143 443 135 451T126 471Q126 482 134 490T154 499Q166 499 174 491T182 471ZM253 573Q253 562 245 554T225 545Q213 545 205 553T197 573Q197 585 205 593T225 602Q237 602 245 594T253 573ZM361 646Q361 634 353 626T333 618Q321 618 313 626T305 646Q305 657 313 665T333 674Q344 674 352 666T361 646Z"  />
<glyph unicode="&#x274A;" horiz-adv-x="371" d="M215 624L296 652Q305 655 308 646L318 617Q322 607 312 604L230 576L278 511Q283 502 276 498L251 480Q243 474 237 482L188 548L140 482Q134 474 126 480L101 498Q94 502 99 511L147 576L67 604Q57 607 61 617L71 646Q74 655 83 652L165 623V706Q165 716 175 716H205Q215 716 215 706V624Z"  />
</font>
</defs>
</svg>
