<svg xmlns="http://www.w3.org/2000/svg" width="230.234" height="70.088" viewBox="0 0 230.234 70.088">
  <g id="Group_287" data-name="Group 287" transform="translate(-207.787 473.592)">
    <g id="Group_283" data-name="Group 283" transform="translate(207.787 -472.884)">
      <g id="Group_280" data-name="Group 280" transform="translate(8.793 0.831)">
        <path id="Path_622" data-name="Path 622" d="M653.827-385.379a32.578,32.578,0,0,1-3.459-.022,2.65,2.65,0,0,1-2.565-3.212,5.751,5.751,0,0,1,.186-1.043,8.651,8.651,0,0,1,1.808-3.492,1.419,1.419,0,0,1,2.343-.081,10.073,10.073,0,0,1,2.307,3.9.493.493,0,0,0,.584.4,9.2,9.2,0,0,0,4.452-1.19c.168-.1.329-.211.5-.32-.93-1.088-1.628-1.266-2.849-.685.024-.372.024-.7.069-1.019a3.8,3.8,0,0,1,3.568-3.561,6.306,6.306,0,0,1,4.205.642,1.93,1.93,0,0,1,1.053,2.694,16.859,16.859,0,0,1-.972,1.936c.592.223,1.228.514,1.893.7a22.594,22.594,0,0,0,6.313.671,35.112,35.112,0,0,0,8.882-.919,7.1,7.1,0,0,0,4.017-2.368,2.57,2.57,0,0,1,.735-.455,3.8,3.8,0,0,1,.022.874,11.631,11.631,0,0,1-.4,1.269,8.249,8.249,0,0,0,4.028-.448,3.573,3.573,0,0,0,1.586-1.679c.242-.427.431-.885.682-1.307.077-.13.278-.187.422-.278.061.147.184.3.17.441-.041.426-.145.846-.2,1.271-.015.112.014.309.084.343a6.236,6.236,0,0,0,2.93.866,2.309,2.309,0,0,0,.33-.076c-.794-1.7.2-3.033.976-4.457a9.939,9.939,0,0,1,.236,1.116,10.067,10.067,0,0,1-.772,5.055c-.6,1.377-1.089,1.585-2.432.932-.806-.393-1.543-.926-2.346-1.418-.017.027-.1.16-.185.3a5.567,5.567,0,0,1-5.169,2.963,13.933,13.933,0,0,1-1.473-.073c-.654-.079-.779-.226-.885-.885a1.759,1.759,0,0,0-.246.085,21.616,21.616,0,0,1-7.676,2.175,33.971,33.971,0,0,1-7.187.085,12.969,12.969,0,0,1-6.794-2.368.582.582,0,0,0-.512.016,20.661,20.661,0,0,1-5.157,2.2c-.6.147-1.21.216-1.808.354-.135.031-.332.191-.344.307-.359,3.587-2.383,6.221-4.887,8.582-.257.242-.533.466-.813.682a3.687,3.687,0,0,1-2.391.806,30.756,30.756,0,0,1-6.835-.6,8.583,8.583,0,0,1-1.014-.305,2.626,2.626,0,0,1-.477-.305l.026-.13c.615-.06,1.233-.1,1.844-.185a37.771,37.771,0,0,0,4.911-.768,14.05,14.05,0,0,0,8.244-6.7A6.712,6.712,0,0,0,653.827-385.379Zm-1.681-3.341a3.922,3.922,0,0,0-1.8-1.647.745.745,0,0,0-.935.461c-.147.429.119.618.447.776A5.189,5.189,0,0,0,652.145-388.72Z" transform="translate(-559.437 410.259)" fill="#202322"/>
        <path id="Path_623" data-name="Path 623" d="M373.474-420.65c-.07.339-.115.562-.163.784a4.825,4.825,0,0,1-2.585,3.362,11.194,11.194,0,0,1-6.007,1.319c-1.089-.065-1.614-.49-1.647-1.587-.035-1.146.113-2.3.189-3.445a2.353,2.353,0,0,1,.173-.471,4.758,4.758,0,0,1,.261.59,1.461,1.461,0,0,0,1.151,1.131,7.166,7.166,0,0,0,3.381-.118,11.371,11.371,0,0,0,3.766-1.692,1.251,1.251,0,0,0,.611-1.433c-.454-2.37-.924-4.745-1.2-7.14a21.225,21.225,0,0,1,.206-3.761c0-.037.053-.07.152-.194.109.361.214.653.285.953.62,2.633,1.19,5.279,1.865,7.9a42.592,42.592,0,0,0,1.389,4.246c.847,2.269,2.373,2.708,4.251,2.687a4.644,4.644,0,0,0,3.624-1.545c.211-.242.381-.52.57-.781a.42.42,0,0,1,.663-.129c2.07,1.416,4.45,1.672,6.86,1.845a24.4,24.4,0,0,0,9.242-1.119,5.16,5.16,0,0,0,2.318-1.278,12.107,12.107,0,0,0,.875-1.191c.405.133.3.458.273.725-.1.853-.118.878.635,1.283a6.107,6.107,0,0,0,5.758-.077.687.687,0,0,0,.347-.972c-.3-.722-.673-1.41-.981-2.127a1.914,1.914,0,0,1-.19-.9c.087-.84.241-1.673.382-2.507.021-.125.107-.332.174-.336a.646.646,0,0,1,.392.168,1.373,1.373,0,0,1,.286.359,8.387,8.387,0,0,1,.964,7.168,5.105,5.105,0,0,1-4.388,3.384,9.4,9.4,0,0,1-1.01.053,3.4,3.4,0,0,1-3.172-2.406c-.074-.186-.143-.373-.219-.571-.039.01-.1.008-.117.034a10,10,0,0,1-5.815,3.237,25.45,25.45,0,0,1-7.3.466,9.009,9.009,0,0,1-3.549-.923,4.9,4.9,0,0,1-2.039-1.886c-.107-.182-.251-.343-.468-.636-.2.407-.382.712-.507,1.038a4.966,4.966,0,0,1-6.466,2.8,4.324,4.324,0,0,1-2.139-2.262,14.535,14.535,0,0,1-1.024-3.77C373.521-420.427,373.509-420.48,373.474-420.65Z" transform="translate(-340.227 439.973)" fill="#202322"/>
        <path id="Path_624" data-name="Path 624" d="M275.623-454.465c-.094.188-.182.38-.285.564a.44.44,0,0,1-.292.2c-2.513.672-21.764,7.936-24,9.018-.023.011-.047.02-.094.04a.915.915,0,0,1,.037-.158,1.661,1.661,0,0,1,.763-.866c1.146-.595,18.86-7.422,21.745-8.244.675-.192,1.353-.375,2.03-.563l.062-.015Z" transform="translate(-250.95 456.842)" fill="#202322"/>
        <path id="Path_625" data-name="Path 625" d="M616.379-403.238a.716.716,0,0,1,.072.127c.277.921,1.01,1.13,1.841,1.159a13.143,13.143,0,0,0,6.648-1.4.443.443,0,0,0,.28-.584,4.909,4.909,0,0,0-.287-.87,11.176,11.176,0,0,0-2.871-3.687,4.968,4.968,0,0,0-1.436-.792,2.215,2.215,0,0,0-1.075.031c-.279.052-.457.024-.535-.258a3.82,3.82,0,0,1,.256-2.869,1.485,1.485,0,0,1,1.92-.528,6.291,6.291,0,0,1,2.821,2.235,10.664,10.664,0,0,1,1.836,8.8,2.927,2.927,0,0,1-1.78,2.249,14.673,14.673,0,0,1-6.49,1.343,1.622,1.622,0,0,1-1.758-1.693,8.052,8.052,0,0,1,.44-3.132C616.27-403.146,616.315-403.171,616.379-403.238Z" transform="translate(-541.473 423.84)" fill="#202322"/>
        <path id="Path_626" data-name="Path 626" d="M452.662-445.468a13.146,13.146,0,0,0-3.982-.356,1.936,1.936,0,0,1,.127-.243c.375-.505.748-1.013,1.136-1.508a.537.537,0,0,1,.314-.176,7.362,7.362,0,0,1,2.874.2,8.765,8.765,0,0,1,.867.245.622.622,0,0,1,.433.819.909.909,0,0,1-.091.257,4.325,4.325,0,0,1-2.866,2.385c-.681.123-1.369.212-2.055.3-.084.011-.178-.054-.268-.084.064-.076.113-.184.194-.222,1.032-.484,2.068-.957,3.1-1.435.074-.034.143-.076.215-.114Z" transform="translate(-408.4 451.529)" fill="#202322"/>
        <path id="Path_627" data-name="Path 627" d="M562.082-320.615l-3.2-2.087,1.7-3,2.621,1.587,1.355-2.351,3.2,2.025-1.676,3.1-2.629-1.639Z" transform="translate(-496.155 354.9)" fill="#202322"/>
        <path id="Path_628" data-name="Path 628" d="M428.622-326.039l3.2,2.027-1.672,3.1-2.628-1.646-1.361,2.368-3.208-2.083,1.694-3,2.619,1.591Z" transform="translate(-387.918 354.559)" fill="#202322"/>
        <path id="Path_629" data-name="Path 629" d="M264.857-322.4l1.7-3,2.6,1.587,1.354-2.354,3.2,2.024-1.682,3.11-2.625-1.652-1.361,2.366Z" transform="translate(-262.024 354.658)" fill="#202322"/>
        <path id="Path_630" data-name="Path 630" d="M857.093-436.8c.5-.293,1-.6,1.508-.875a33.7,33.7,0,0,0,5.449-3.485c.4-.331.764-.7,1.172-1.083-.256-.151-.473-.268-.678-.4a1.411,1.411,0,0,1-.454-2.242,4.185,4.185,0,0,1,.914-.957c.553-.41,1.028-.21,1.194.454a4.044,4.044,0,0,1-.109,2.242c.294.108.583.222.878.319.237.078.255.207.168.421-.265.646-.309.675-.977.485-.207-.059-.411-.127-.591-.183a17.284,17.284,0,0,1-8.41,5.416Zm8.556-6.457.1-.075a6.836,6.836,0,0,0,.058-.768c-.02-.615-.373-.852-.957-.667a.527.527,0,0,0-.2.937A8.558,8.558,0,0,0,865.649-443.255Z" transform="translate(-733.615 450.127)" fill="#202322"/>
        <path id="Path_631" data-name="Path 631" d="M295.066-462.61c.12-.7.212-1.332.343-1.958a5.624,5.624,0,0,1,.325-1.038.629.629,0,0,1,.984-.31.87.87,0,0,1,.265,1.409c-.08-.1-.155-.2-.234-.3-.336-.416-.7-.378-.866.13a11.321,11.321,0,0,0-.319,1.442c-.1.554-.174,1.113-.269,1.668a.823.823,0,0,1-.134.237c-.076-.062-.183-.108-.221-.188a5.033,5.033,0,0,1-.265-.675,3.2,3.2,0,0,0-.941-1.555l-.015.07a2.123,2.123,0,0,1-.4-.035,1.629,1.629,0,0,1-.348-.173.86.86,0,0,1-.478-1.168.37.37,0,0,1,.459-.28,1.332,1.332,0,0,1,.831.5,5.252,5.252,0,0,1,1.012,1.625C294.862-463.032,294.955-462.856,295.066-462.61Z" transform="translate(-283.977 466.04)" fill="#202322"/>
        <path id="Path_632" data-name="Path 632" d="M751.947-462.491c.12-.7.212-1.332.343-1.958a5.617,5.617,0,0,1,.325-1.038.629.629,0,0,1,.984-.31.87.87,0,0,1,.265,1.409c-.08-.1-.155-.2-.234-.3-.336-.416-.7-.378-.866.13a11.341,11.341,0,0,0-.319,1.442c-.1.554-.173,1.113-.269,1.667a.822.822,0,0,1-.134.237c-.076-.062-.183-.108-.221-.188a5.037,5.037,0,0,1-.265-.675,3.2,3.2,0,0,0-.941-1.555l-.015.07a2.108,2.108,0,0,1-.4-.035,1.62,1.62,0,0,1-.348-.173.86.86,0,0,1-.478-1.168.37.37,0,0,1,.459-.28,1.331,1.331,0,0,1,.831.5,5.248,5.248,0,0,1,1.012,1.625C751.743-462.913,751.836-462.736,751.947-462.491Z" transform="translate(-647.786 465.944)" fill="#202322"/>
        <path id="Path_633" data-name="Path 633" d="M503.634-321.513l-1.665,3.006a12.654,12.654,0,0,1-3.186-2.066l1.665-2.955Z" transform="translate(-448.296 352.558)" fill="#202322"/>
      </g>
      <g id="Group_282" data-name="Group 282" transform="translate(1.299 42.23)">
        <g id="Group_281" data-name="Group 281">
          <path id="Path_634" data-name="Path 634" d="M223.883-250.522c-.479-1.861-1.267-3.693-3.915-3.693a2.81,2.81,0,0,0-2.957,3.073c0,1.945,1.239,2.932,3.577,4.144,3.38,1.748,4.844,3.045,4.844,5.723,0,2.96-2.563,5.216-6.2,5.216a11.737,11.737,0,0,1-4.309-.93,38.414,38.414,0,0,1-.76-4.229l.873-.225c.563,1.889,1.8,4.342,4.732,4.342a3.1,3.1,0,0,0,3.267-3.242c0-2.171-1.155-3.045-3.633-4.4-2.957-1.607-4.619-2.96-4.619-5.582,0-2.509,2.084-4.877,5.8-4.877a18,18,0,0,1,3.718.536c.113,1.015.226,2.143.451,3.975Z" transform="translate(-214.166 256.753)" fill="#202322"/>
          <path id="Path_635" data-name="Path 635" d="M302.757-212.669a2.061,2.061,0,0,1-1.324-.536,2.646,2.646,0,0,1-.676-1.269c-1.126.761-2.507,1.8-3.38,1.8a3.456,3.456,0,0,1-3.436-3.468c0-1.381.76-2.284,2.309-2.819a22.179,22.179,0,0,0,4.45-1.833v-.564c0-2-1.014-3.158-2.479-3.158a1.634,1.634,0,0,0-1.324.649,6.051,6.051,0,0,0-.76,1.832.784.784,0,0,1-.817.649,1.355,1.355,0,0,1-1.239-1.241c0-.395.366-.733.93-1.128a11.823,11.823,0,0,1,4.056-1.974,3.89,3.89,0,0,1,2.366.761,3.9,3.9,0,0,1,1.436,3.27v5.441c0,1.3.479,1.692.986,1.692a2.237,2.237,0,0,0,1.014-.31l.282.789ZM300.7-219.8c-.62.31-1.972.9-2.62,1.184-1.07.479-1.718,1.015-1.718,2.058a2.05,2.05,0,0,0,2.028,2.171,3.74,3.74,0,0,0,2.31-1.015Z" transform="translate(-277.69 233.279)" fill="#202322"/>
          <path id="Path_636" data-name="Path 636" d="M378.866-213.105a32.434,32.434,0,0,0-4.309.987v-2.171c-1.521,1.269-2.76,2.171-4.309,2.171-1.887,0-3.521-1.156-3.521-4.229v-5.469c0-1.523-.225-1.692-.929-1.833l-.789-.141v-.733a38.235,38.235,0,0,0,4.028-.507c-.084.9-.084,2.255-.084,4.116v3.834c0,2.481,1.3,3.186,2.563,3.186a4.447,4.447,0,0,0,3.042-1.353v-6.569c0-1.523-.338-1.72-1.3-1.861l-.9-.113v-.733a39.821,39.821,0,0,0,4.422-.507v9.445c0,1.41.226,1.607,1.3,1.663l.789.028Z" transform="translate(-334.281 232.728)" fill="#202322"/>
          <path id="Path_637" data-name="Path 637" d="M466.243-243.248a29.809,29.809,0,0,0-4.366,1.043v-1.833c-.507.31-1.239.7-1.746,1.015a5.122,5.122,0,0,1-2.225.818c-2.253,0-5.239-2.255-5.239-6.2a7.1,7.1,0,0,1,7.295-6.851,5.728,5.728,0,0,1,1.915.31v-4.144c0-1.8-.2-1.861-2.2-2.03v-.733a28.071,28.071,0,0,0,4.422-.959v17c0,1.466.2,1.663,1.239,1.72l.9.056Zm-4.366-9.473a3.527,3.527,0,0,0-2.957-1.438c-1.352,0-3.746.9-3.746,4.962,0,3.411,2.112,5.216,3.915,5.244a5.059,5.059,0,0,0,2.788-1.015Z" transform="translate(-404.082 262.814)" fill="#202322"/>
          <path id="Path_638" data-name="Path 638" d="M538.388-213.228v-.789c1.774-.169,1.971-.31,1.971-2.227v-5.808c0-1.748-.084-1.861-1.775-2.143v-.677a18.425,18.425,0,0,0,4-1.128v9.755c0,1.917.2,2.058,2.028,2.227v.789Z" transform="translate(-472.34 233.499)" fill="#202322"/>
          <path id="Path_639" data-name="Path 639" d="M586.562-225.895a18.246,18.246,0,0,0,4.084-1.212v2.255c.085-.056,2.338-1.353,2.45-1.41a3.976,3.976,0,0,1,1.633-.564c3.1,0,4.985,2.594,4.985,5.385,0,4.285-3.38,6.992-7.069,7.669a4.66,4.66,0,0,1-2-.507v3.806c0,2.086.225,2.255,2.394,2.453v.789h-6.675v-.789c1.831-.2,2.056-.338,2.056-2.227v-12.828c0-1.692-.056-1.8-1.859-2.058Zm4.084,9.642a4.079,4.079,0,0,0,2.676,1.1c2.45,0,4.028-2.058,4.028-5.216,0-3.045-1.775-4.765-3.774-4.765a5.631,5.631,0,0,0-2.929,1.212Z" transform="translate(-510.544 234.381)" fill="#202322"/>
          <path id="Path_640" data-name="Path 640" d="M686.154-215.4a6.414,6.414,0,0,1-4.676,2.735c-3.436,0-5.52-2.819-5.52-6.062a7.244,7.244,0,0,1,1.831-4.934,5.776,5.776,0,0,1,4.2-2.058,4.4,4.4,0,0,1,4.309,4.37c-.028.564-.113.817-.563.93-.563.113-4.169.366-7.52.479-.084,3.778,2.225,5.328,4.225,5.328a4.76,4.76,0,0,0,3.267-1.438Zm-4.845-9.247c-1.3,0-2.563,1.212-2.957,3.5,1.577,0,3.154,0,4.816-.085.507,0,.676-.141.676-.564A2.62,2.62,0,0,0,681.309-224.652Z" transform="translate(-581.886 233.279)" fill="#202322"/>
          <path id="Path_641" data-name="Path 641" d="M761.271-243.248a29.814,29.814,0,0,0-4.366,1.043v-1.833c-.507.31-1.239.7-1.746,1.015a5.12,5.12,0,0,1-2.225.818c-2.253,0-5.239-2.255-5.239-6.2a7.1,7.1,0,0,1,7.295-6.851,5.727,5.727,0,0,1,1.915.31v-4.144c0-1.8-.2-1.861-2.2-2.03v-.733a28.076,28.076,0,0,0,4.422-.959v17c0,1.466.2,1.663,1.239,1.72l.9.056Zm-4.366-9.473a3.527,3.527,0,0,0-2.957-1.438c-1.352,0-3.746.9-3.746,4.962,0,3.411,2.112,5.216,3.915,5.244a5.059,5.059,0,0,0,2.788-1.015Z" transform="translate(-639.01 262.814)" fill="#202322"/>
          <path id="Path_642" data-name="Path 642" d="M835.23-213.228v-.789c1.775-.169,1.972-.31,1.972-2.227v-5.808c0-1.748-.085-1.861-1.775-2.143v-.677a18.42,18.42,0,0,0,4-1.128v9.755c0,1.917.2,2.058,2.028,2.227v.789Z" transform="translate(-708.713 233.499)" fill="#202322"/>
          <path id="Path_643" data-name="Path 643" d="M894.651-212.669a2.061,2.061,0,0,1-1.324-.536,2.643,2.643,0,0,1-.676-1.269c-1.127.761-2.507,1.8-3.38,1.8a3.457,3.457,0,0,1-3.436-3.468c0-1.381.76-2.284,2.31-2.819a22.173,22.173,0,0,0,4.45-1.833v-.564c0-2-1.014-3.158-2.478-3.158a1.633,1.633,0,0,0-1.324.649,6.052,6.052,0,0,0-.761,1.832.784.784,0,0,1-.817.649,1.355,1.355,0,0,1-1.239-1.241c0-.395.366-.733.93-1.128a11.825,11.825,0,0,1,4.056-1.974,3.89,3.89,0,0,1,2.366.761,3.9,3.9,0,0,1,1.436,3.27v5.441c0,1.3.479,1.692.986,1.692a2.237,2.237,0,0,0,1.014-.31l.282.789Zm-2.056-7.133c-.62.31-1.971.9-2.619,1.184-1.071.479-1.718,1.015-1.718,2.058a2.05,2.05,0,0,0,2.028,2.171,3.739,3.739,0,0,0,2.309-1.015Z" transform="translate(-749.009 233.279)" fill="#202322"/>
        </g>
        <path id="Path_644" data-name="Path 644" d="M544.96-255.937l-1.386,2.5a10.525,10.525,0,0,1-2.652-1.72l1.386-2.459Z" transform="translate(-474.358 258.673)" fill="#202322"/>
        <path id="Path_645" data-name="Path 645" d="M841.006-255.937l-1.386,2.5a10.525,10.525,0,0,1-2.652-1.72l1.386-2.459Z" transform="translate(-710.097 258.673)" fill="#202322"/>
      </g>
      <path id="Path_646" data-name="Path 646" d="M208.734-470.114c.2.878.466,1.747.594,2.636.462,3.226.53,3.131.935,6.365.343,2.732.579,5.477.952,8.2.464,3.389,2.152,5.2,5.9,5.95a21.192,21.192,0,0,0,3.942.346,43.009,43.009,0,0,0,9.495-.881c1.168-.253,2.316-.616,3.455-.984.811-.262.921-.46.5-1.2a21.175,21.175,0,0,0-1.691-2.4,1.092,1.092,0,0,1-.282-.871c.118-.884.215-1.771.325-2.656.018-.148.062-.293.108-.5a3.235,3.235,0,0,1,.275.232,9.661,9.661,0,0,1,2.607,6.718,3.7,3.7,0,0,1-2,3.444,17.5,17.5,0,0,1-5,1.7,38.168,38.168,0,0,1-10.823.858,11.668,11.668,0,0,1-4.36-1.082,5.8,5.8,0,0,1-3.15-3.607,35.554,35.554,0,0,1-1.171-6.434c-.452-3.865-.522-4.406-.984-8.27-.162-1.359-.376-2.712-.56-4.068a1.331,1.331,0,0,1,.015-.458q.3-1.327.614-2.649a2.629,2.629,0,0,1,.168-.4Z" transform="translate(-207.787 470.117)" fill="#202322"/>
    </g>
    <path id="Path_647" data-name="Path 647" d="M628.581-332.593c-.093.186-.18.375-.281.556a.433.433,0,0,1-.288.2c-3.71,1.216-9.284,3.5-9.284,3.5-.023.011-.046.02-.092.04a.922.922,0,0,1,.036-.156,1.639,1.639,0,0,1,.752-.854c1.13-.586,8.392-3.112,9.059-3.3l.061-.014Z" transform="translate(-327.155 -112.258)" fill="#202322"/>
    <g id="Group_284" data-name="Group 284" transform="translate(368.096 -473.592)">
      <path id="Path_648" data-name="Path 648" d="M1031.537-413.79c15.477-3.835,36.624-14.049,31.681-33.076.7,19.171-26.692,26.888-38.625,29.337,17.34-11.629,38.874-17.7,33.473-40.6,1.5,17.5-23.647,29.532-33.165,33.441a327.535,327.535,0,0,0,15.955-30.546c-10.795,14.822-16.037,22.148-19.531,27.716-1.011-10.77-1.826-37.513,13.948-44.28-22.742,6.02-17.956,27.877-20.047,48.65-3.462-11.68-9.556-39.478,7.685-47.89-19.113,4.6-18.161,28.067-14.254,43.526-5.484-9.564-11.49-24.653-2.516-34.669-14.4,12.1-6.8,29.389-.744,38.094-5.006-4.076-10.727-10.8-9.079-19.481-4.865,11.028,2.4,20.08,9.014,24.978a11.557,11.557,0,0,1-7.451-6.07c.277,2.884,4.381,8.178,9.161,10.387a10.623,10.623,0,0,1-6.592-3.883c1.6,2.687,5.115,6.668,9.98,6.522a5.578,5.578,0,0,1-4.843-.578,35.7,35.7,0,0,0,6.183,4.856l0,0c.087.053.175.1.262.156s.174.106.261.158l0,0a35.7,35.7,0,0,0,7.2,3.167,5.578,5.578,0,0,1-2.791-4c2.163,4.361,7.329,5.581,10.454,5.732a10.624,10.624,0,0,1-6.53-3.986c4.2,3.176,10.8,4.3,13.478,3.188a11.557,11.557,0,0,1-8.864-3.714c7.435,3.526,18.843,5.672,26.279-3.814-6.879,5.542-15.508,3.663-21.461,1.168,10.533,1.244,29.362-.2,33.253-18.6C1058.7-415.267,1042.557-413.457,1031.537-413.79Z" transform="translate(-994.731 472.162)" fill="#dbd7c7"/>
      <path id="Path_649" data-name="Path 649" d="M1064.4-427.532c-.081.942-.2,1.9-.374,2.884,6.216-12.156-.2-25.3-6.692-31.617a.108.108,0,0,1,.141-.162,22.866,22.866,0,0,1,8.01,9.781c-.142-5.813-4.585-11.049-9.562-13.892a.105.105,0,0,1,.088-.191,11.872,11.872,0,0,1,5.94,4.447c-1.215-2.824-4.873-7.007-9.445-7.672a.109.109,0,0,1,0-.215,6.982,6.982,0,0,1,4.358.908,13.706,13.706,0,0,0-1.422-1.121,26.933,26.933,0,0,0-5.614-4.119,26.929,26.929,0,0,0-6.278-3.011,13.716,13.716,0,0,0-1.659-.726,6.981,6.981,0,0,1,2.854,3.416.109.109,0,0,1-.188.1c-2.741-3.72-8.867-5.1-11.93-4.843a14.5,14.5,0,0,1,7.434,3.27.106.106,0,0,1-.127.168c-4.852-3.051-13.359-3.956-17.307-1.708,5.091-.671,10.3,1.093,12.95,2.276a.108.108,0,0,1-.077.2c-8.627-2.751-23.247-2.22-31.042,8.989a32.955,32.955,0,0,1,3.138-2.175,23.652,23.652,0,0,0-.512,2.8,6.346,6.346,0,0,1-2.036,3.966,24.881,24.881,0,0,0-7.937,14.03,25.9,25.9,0,0,1,8.4-10.484,1.2,1.2,0,0,1,1.9.729,30.593,30.593,0,0,0,1.154,4.262,2.453,2.453,0,0,1-.54,2.511c-5.287,5.521-8.79,12.037-8.246,19.287,1.064-5.21,4.461-10.088,8.911-14.46a2.433,2.433,0,0,1,3.735.387q.588.886,1.234,1.751a3.709,3.709,0,0,1,.115,4.23c-4.642,7.181-7.21,14.219-6.292,19.888.93-4.706,4.574-10.492,9.19-16.265a2.976,2.976,0,0,1,4.172-.487,42.4,42.4,0,0,0,4.618,3.2,42.438,42.438,0,0,0,4.647,2.411,2.719,2.719,0,0,1,1.366,3.537c-2.934,6.862-6.348,12.876-10.091,15.938,5.38-1.843,10.335-7.332,14.459-14.7a3.7,3.7,0,0,1,3.836-1.865q1.082.185,2.158.306a2.432,2.432,0,0,1,2.052,3.121c-1.762,5.864-4.445,11.04-8.472,14.377,6.519-2.877,10.586-8.85,12.987-15.925a2.455,2.455,0,0,1,2.005-1.644,30.987,30.987,0,0,0,4.336-.9,1.2,1.2,0,0,1,1.507,1.357,25.718,25.718,0,0,1-5.2,11.782,24.854,24.854,0,0,0,8.439-12.852,6.272,6.272,0,0,1,2.608-3.593A24.076,24.076,0,0,0,1064.4-427.532Zm-.645-1.031a22.809,22.809,0,0,1-1.876,1.429.908.908,0,0,1-1.413-.819,37.87,37.87,0,0,0-.324-8.086,1.639,1.639,0,0,1,.791-1.649,11.444,11.444,0,0,0,1.2-.8.881.881,0,0,1,1.4.476,30.673,30.673,0,0,1,.988,7.8A2.173,2.173,0,0,1,1063.758-428.563Zm-2.107-11.083q-.372.31-.781.586a.9.9,0,0,1-1.382-.557,56.593,56.593,0,0,0-5.221-14.017.1.1,0,0,1,.162-.119,37.469,37.469,0,0,1,7.813,11.844A1.983,1.983,0,0,1,1061.651-439.646Zm-6.829,2.694a21.176,21.176,0,0,1-2.57.16.891.891,0,0,1-.891-.924,86.757,86.757,0,0,0-.717-14.619.108.108,0,0,1,.206-.06,77.491,77.491,0,0,1,4.72,14.391A.877.877,0,0,1,1054.822-436.952Zm-9-.6q-.807-.183-1.625-.411a.9.9,0,0,1-.627-1.12,111.079,111.079,0,0,0,3.012-13.661.107.107,0,0,1,.214.01,143.316,143.316,0,0,1,.115,14.347A.894.894,0,0,1,1045.824-437.549Zm-3.937-17.227c-.565,2.48-1.74,7.408-3.415,13.274a1.107,1.107,0,0,1-1.561.687q-1.386-.7-2.762-1.521t-2.651-1.726a1.106,1.106,0,0,1-.128-1.7c4.385-4.241,8.179-7.6,10.1-9.265A.255.255,0,0,1,1041.886-454.776Zm-4.424-3.435a111.044,111.044,0,0,0-10.63,9.091.9.9,0,0,1-1.283-.026q-.587-.616-1.129-1.242a.89.89,0,0,1,.218-1.347,143.216,143.216,0,0,1,12.715-6.66A.107.107,0,0,1,1037.463-458.21Zm-2.269-3.39a86.74,86.74,0,0,0-13.229,6.251.891.891,0,0,1-1.236-.351,21.224,21.224,0,0,1-1.066-2.337.881.881,0,0,1,.579-1.16,77.505,77.505,0,0,1,14.908-2.612A.108.108,0,0,1,1035.193-461.6Zm-.563-3.809a56.593,56.593,0,0,0-14.815,1.995.9.9,0,0,1-1.142-.957,9.855,9.855,0,0,1,.17-1.059,1.939,1.939,0,0,1,1.7-1.492,37.463,37.463,0,0,1,14.12,1.314A.1.1,0,0,1,1034.63-465.409Zm-24.667,1.562a30.633,30.633,0,0,1,6.556-2.383.876.876,0,0,1,1.057,1.01,11.4,11.4,0,0,0-.144,1.439,1.641,1.641,0,0,1-1.086,1.474,38.46,38.46,0,0,0-6.623,3.114.908.908,0,0,1-1.363-.9,22.353,22.353,0,0,1,.468-2.35A2.168,2.168,0,0,1,1009.963-463.847Zm-.832,9.232a46.519,46.519,0,0,1,8.257-3.692.887.887,0,0,1,1.115.534,22.8,22.8,0,0,0,1.272,2.782.873.873,0,0,1-.308,1.152,67.242,67.242,0,0,0-7.748,5.646,1.51,1.51,0,0,1-2.421-.706,28.331,28.331,0,0,1-.922-4.178A1.531,1.531,0,0,1,1009.131-454.615Zm3.719,11.007a90.1,90.1,0,0,1,8.781-6.283,1.464,1.464,0,0,1,1.893.291q.584.679,1.219,1.346a.889.889,0,0,1-.016,1.233,96.458,96.458,0,0,0-7.564,8.7,1.515,1.515,0,0,1-2.413,0,36.081,36.081,0,0,1-2.251-3.345A1.511,1.511,0,0,1,1012.85-443.608Zm13.24,15.378a41.223,41.223,0,0,1-4.234-2.911,3.031,3.031,0,0,1-.375-4.412c2.163-2.409,4.4-4.749,6.572-6.936a2.47,2.47,0,0,1,3.15-.3q1.122.774,2.322,1.494t2.407,1.342a2.465,2.465,0,0,1,1.217,2.914c-.913,2.974-1.935,6.076-3.052,9.145a3.032,3.032,0,0,1-4.122,1.722A41.332,41.332,0,0,1,1026.09-428.23Zm12.4,3a96.119,96.119,0,0,0,4.222-11.009.888.888,0,0,1,1.08-.594q.889.247,1.767.443a1.463,1.463,0,0,1,1.143,1.539,89.4,89.4,0,0,1-1.47,11.013,1.517,1.517,0,0,1-1.58,1.22,36.405,36.405,0,0,1-4.057-.5A1.508,1.508,0,0,1,1038.49-425.225Zm11.275.389a66.563,66.563,0,0,0,1.439-9.972.867.867,0,0,1,.866-.809,22.791,22.791,0,0,0,3.061-.188.886.886,0,0,1,.994.731,45.914,45.914,0,0,1,.607,9.621,1.527,1.527,0,0,1-1.037,1.374,28.821,28.821,0,0,1-4.2,1.063A1.511,1.511,0,0,1,1049.766-424.836Z" transform="translate(-996.631 473.592)" fill="#104758"/>
    </g>
  </g>
</svg>
